<svg width="375" height="812" viewBox="0 0 375 812" fill="none" xmlns="http://www.w3.org/2000/svg">
<path d="M375 0H0V812H375V0Z" fill="url(#paint0_radial)"/>
<path opacity="0.1" d="M187.5 354.671L204.026 209.132L195.626 358.002L234.883 235.478L202.654 367.632L259.316 284.657L207.65 382.168L274.057 349.947L209.901 399.732L277.105 422.625L209.132 417.901L268.045 492.76L205.454 434.193L248.115 551.024L199.332 446.488L220.004 589.422L191.645 453.09L187.5 602.807L183.355 453.09L154.996 589.422L175.668 446.488L126.885 551.024L169.546 434.193L106.955 492.76L165.868 417.901L97.8953 422.625L165.099 399.732L100.943 349.947L167.35 382.168L115.684 284.657L172.346 367.632L140.117 235.478L179.374 358.002L170.974 209.132L187.5 354.671Z" fill="white"/>
<path opacity="0.1" d="M0 812L187.555 407.605L0 722.121V812ZM30.9938 0L187.555 407.544L67.9722 0H30.9938ZM0 613.285L187.555 407.544L0 544.24V613.285ZM0 320.33L187.555 407.544L0 262.975V320.33ZM0 161.164L187.555 407.605L0 82.3083V161.164ZM301.016 812L187.555 407.544L271.065 811.939H301.016V812ZM229.777 812L187.555 407.544L205.728 811.939H229.777V812ZM103.276 812L187.555 407.605L73.3529 812H103.276ZM169.052 812L187.555 407.605L145.031 812H169.052ZM0 456.36L187.555 407.605L0 404.032V456.36ZM375 278.116L187.555 407.544L375 336.683V278.116ZM375 417.598L187.555 407.544L375 471.562V417.598ZM375 104.172L187.555 407.544L375 180.424V104.172ZM375 560.835L187.555 407.544L375 625.943V560.835ZM317.13 0L187.555 407.544L356.332 0H317.13ZM178.66 0L187.582 407.544L202.983 0H178.66ZM241.252 0L187.555 407.544L268.759 0H241.252ZM114.449 0L187.555 407.544L140.694 0H114.449ZM375 812V745.742L374.973 745.923L187.555 407.544L361.301 811.939L361.384 811.516L361.301 811.939H375V812Z" fill="white"/>
<defs>
<radialGradient id="paint0_radial" cx="0" cy="0" r="1" gradientUnits="userSpaceOnUse" gradientTransform="translate(187.5 405.988) rotate(90) scale(409.843 185.769)">
<stop stop-color="white"/>
<stop offset="0.0485696" stop-color="#DEE5F1"/>
<stop offset="0.1313" stop-color="#ABBDDD"/>
<stop offset="0.2131" stop-color="#829CCC"/>
<stop offset="0.2922" stop-color="#6182BE"/>
<stop offset="0.3679" stop-color="#4A70B5"/>
<stop offset="0.4388" stop-color="#3C65AF"/>
<stop offset="0.5" stop-color="#3761AD"/>
<stop offset="0.5064" stop-color="#3660AC"/>
<stop offset="0.8273" stop-color="#174489"/>
<stop offset="1" stop-color="#0B397C"/>
</radialGradient>
</defs>
</svg>
