<?xml version="1.0" encoding="utf-8"?>
<!-- Generator: Adobe Illustrator 24.1.1, SVG Export Plug-In . SVG Version: 6.00 Build 0)  -->
<svg version="1.1" id="Layer_1" xmlns="http://www.w3.org/2000/svg" xmlns:xlink="http://www.w3.org/1999/xlink" x="0px" y="0px"
	 viewBox="0 0 315 87" style="enable-background:new 0 0 315 87;" xml:space="preserve">
<style type="text/css">
	.st0{fill:#FFFFFF;}
</style>
<path class="st0" d="M314.1,34.2c-0.1,0-0.1,0-0.1,0.1c0,0.1-0.4,0.1-0.8,0c-0.8-0.1-0.8-0.1-0.8-0.4c0.1-0.1,0.4-0.3,0.8-0.1
	c0.4,0,0.7,0.1,0.7,0.3C313.8,34.1,314,34.2,314.1,34.2c0.4-0.1,0.4-0.4-0.1-0.5c-0.3-0.1-0.4-0.4-0.4-0.5c0-0.3-0.1-0.3-0.4-0.1
	c-0.3,0.1-0.3,0.1-0.1-0.1c0.1-0.3,0.1-0.3-0.8-0.5c-0.5-0.1-1.5-0.4-2.2-0.7c-0.7-0.3-1.5-0.5-2.1-0.8c-1.4-0.5-4.1-1.5-4.5-1.6
	c-0.4-0.1-3.1-0.9-4.4-1.5c-1.6-0.5-5.1-1.6-7.2-2.3c-0.7-0.1-1.6-0.5-2.3-0.7c-4.8-1.4-8.9-2.5-17.7-4.6
	c-3.1-0.8-19.8-4.4-21.6-4.6c-0.7-0.1-2.7-0.4-4.4-0.8c-3.9-0.7-8.1-1.5-8.9-1.5c-0.4,0-2.1-0.3-3.7-0.5c-1.6-0.3-3-0.5-3.1-0.5
	c0,0-1.1-0.1-2.2-0.3c-3.1-0.5-7.8-1.1-8.1-0.9c-0.1,0-0.3,0-0.4,0c-0.1-0.1-0.3,0-0.4,0c-0.4,0.3-0.9,0.1-0.8-0.1
	c0.1-0.1,0.1-0.3-0.1-0.3c-0.1,0-0.3,0-0.4,0.1c0,0.1-0.1,0.3-0.3,0.1c-0.1,0-0.3-0.1-0.3-0.3c0-0.1-0.1-0.1-0.3-0.3
	c-0.3,0-0.4,0-0.4,0.3c0,0.1-0.1,0.3-0.1,0.3c-0.7-0.1-1.4-0.4-1.6-0.7c-0.3-0.3-0.4-0.3-0.7-0.1c-0.3,0.1-0.3,0.1-0.1,0
	c0.1-0.1,0.1-0.3,0-0.3s-0.4,0-0.7,0.1c-0.3,0.1-0.4,0.1-0.3,0c0.1-0.1,0-0.1-0.3-0.3c-0.3,0-0.4,0-0.4,0.1c0,0.1-0.1,0.1-0.5,0
	c-0.3-0.1-0.5-0.3-0.5-0.3c0-0.3-1.6-0.4-1.9-0.1c-0.1,0.1-0.1,0-0.1-0.1c0.1-0.3,0-0.3-0.1-0.1c-0.1,0.1-0.5,0.1-1.5-0.1
	c-1.2-0.3-1.2-0.3-1.1,0c0.1,0.3,0.1,0.3-0.3,0.1c-0.7-0.4-3.4-0.8-3.9-0.7c-0.1,0-1.2-0.1-2.3-0.3c-1.9-0.3-2.7-0.4-4.9-0.5
	c-0.4,0-1.5-0.1-2.3-0.3c-0.9-0.3-1.5-0.3-1.4-0.1c0.1,0.1-1.1-0.1-1.4-0.4c-0.1,0-0.4,0-0.7,0c-0.4,0.1-0.5,0-0.5,0
	c0-0.1-0.1-0.3-0.5-0.3c-0.4-0.1-0.5,0-0.5,0.1c0,0.3-0.4,0.3-0.8-0.1c-0.1-0.1-0.4-0.3-0.4-0.3c-0.1,0-0.7,0-1.4-0.1
	c-0.7-0.1-1.2-0.1-1.4-0.1c-0.1,0.1-0.3,0.1-0.4,0.1c-0.1,0-0.5,0-0.9-0.1c-1.4-0.1-2.3-0.3-2.2-0.5c0-0.1-0.1-0.1-0.3-0.1
	c-0.3,0-0.4,0-0.4,0.1c0,0.1-0.3,0.1-0.4,0c-0.3,0-0.5,0-0.5,0.1c-0.1,0.1-0.1,0.1-0.3-0.1c-0.3-0.3-0.7-0.4-0.9-0.1
	c-0.3,0.1-2.3,0-2.5-0.1c0,0-0.3-0.1-0.5,0c-0.3,0-0.8,0-1.2,0c-1.2-0.1-2.1-0.1-2.2,0c-0.1,0.1-0.5,0.1-1.4,0
	c-0.9-0.1-1.1-0.1-0.9-0.4c0.1-0.1,0.1-0.3-0.1-0.1c-0.1,0-0.3,0.1-0.3,0.1c0,0.1-0.1,0.1-0.1,0c0-0.1-0.3,0-0.4,0
	c-0.5,0.3-2.3-0.1-2.1-0.4c0.3-0.3-0.9-0.4-1.2-0.1c-0.1,0.1-0.1,0.1-0.1,0c0.1-0.3-0.7-0.5-0.9-0.3c-0.1,0.1-0.1,0.1-0.3-0.1
	c-0.1-0.3-0.1-0.3-0.4-0.1c-0.1,0.1-0.4,0.1-0.5,0c-0.1-0.1-0.4-0.1-0.4,0c-0.1,0.1-0.3,0.1-0.5,0.1c-0.3,0-0.5,0-0.7,0
	c-0.1,0-0.1,0-0.1-0.1c0-0.1-0.1-0.1-0.4-0.1c-0.3,0-0.5,0-0.5,0.1c0,0.1-0.1,0.1-0.1,0.1c-0.1,0-0.4,0-0.8,0c-0.4,0-0.8,0-0.9-0.1
	c-0.1,0-0.4,0-0.5,0c-0.1,0.1-0.3,0.1-0.3,0c0-0.1-0.1-0.1-0.3-0.1c-0.1,0-0.7,0-1.4-0.1c-0.7-0.1-1.2-0.1-1.4,0
	c-0.1,0.1-0.3,0.1-0.4,0c-0.1-0.1-0.8-0.1-1.5-0.1c-0.7,0-1.6,0-2.1,0c-0.5,0-0.8,0-0.8,0.1c0,0.1,0,0.1-0.3,0
	c-0.1-0.1-0.7-0.1-1.1-0.1c-1.2,0-1.9-0.1-1.9-0.3c0-0.1-0.1-0.1-0.3-0.1c-0.3,0.1-2.7,0.1-3.7,0c-0.3,0-0.4,0-0.4,0s-0.7,0-1.9-0.1
	c-0.5,0-1.1,0-1.5,0c-0.3,0-0.9,0-1.6,0c-0.5-0.1-1.1-0.1-1.2-0.1c-0.3,0.1-1.5-0.1-1.4-0.1c0.1-0.1,0.4-0.1,0.5,0
	c0.3,0,0.4,0,0.5-0.1c0-0.1-0.1-0.1-0.3-0.1c-0.1,0-0.5,0-0.8,0c-0.3,0-0.4,0.1-0.4,0.1c0,0.1-0.4,0.3-0.8,0.3
	c-0.5,0-1.2,0.1-1.6,0.3c-0.4,0.1-1.1,0.1-1.4,0.1c-0.4,0-0.9,0-1.2,0.1c-0.5,0.1-0.5,0.1-0.5-0.1c0-0.1,0-0.3-0.4-0.1
	c-0.1,0-0.5,0-0.7-0.1c-0.3-0.1-0.1-0.3,0.8-0.3l1.1-0.1l-0.9-0.1c-0.5-0.1-1.1-0.1-1.4,0c-0.3,0-0.5,0-0.8,0
	c-0.1-0.1-0.4-0.1-0.7,0c-0.1,0-0.5,0.1-0.8,0c-0.7,0-1.6,0.3-2.1,0.5c-0.3,0.1-0.4,0.1-0.5,0c-0.1-0.1,0,0-0.2,0
	c-0.1,0-0.3-0.1-0.1-0.3c0-0.1,0.1-0.3,0.3-0.3c0.1,0,0.3,0,0.3-0.1c0-0.1,0.1-0.3,0.4-0.1c0.4,0,0.4,0,1.1,0c0.3,0,0.7,0,0.8,0
	c0.1,0,0.8,0,1.4,0c0.7,0,1.4-0.1,1.8,0c0.9,0,1.4,0,1.6-0.1c0.1-0.1,0.4-0.1,0.5,0c0.1,0.1,0.1,0,0.1,0c-0.1-0.3-0.8-0.3-0.9-0.1
	c-0.1,0.1-0.3,0.2-0.3,0.1c-0.1-0.1-2.1-0.1-2.1,0c0,0-0.1,0-0.4,0c-0.1-0.1-0.5-0.1-0.8-0.1c-0.3,0-0.9,0-1.6,0
	c-0.7,0-1.2,0-1.4,0.1c-0.1,0.1-0.3,0.1-0.4,0.1c-0.1-0.1-1.5-0.1-1.5,0.1c0,0.1,0.1,0.1,0.3,0.3c0.4,0.3,0.3,0.7-0.3,0.7
	c-0.3,0-0.5,0-0.5,0.1c0,0.1-0.1,0.1-0.4,0.1c-0.1,0-0.7,0-1.2,0c-0.5,0.1-1.4,0.1-1.9,0.1c-0.7,0-1.1,0-0.9,0.1
	c0,0.1-0.1,0.1-0.4,0c-0.3-0.1-0.4-0.1-0.5,0c0,0.1-0.3,0.1-0.4,0c-0.3-0.1-0.4-0.1-0.5,0.1c0,0.1-0.1,0.3-0.3,0.3
	C112,3.4,112,3.1,112,3c0-0.1,0-0.1-0.1,0c-0.1,0.1-0.3,0.1-0.5,0c-0.1-0.1-0.3-0.1-0.3,0c0.1,0.3-0.5,0.5-1.1,0.3
	c-0.4-0.1-0.5-0.1-0.5,0c0,0.1-0.1,0.1-0.1,0c0-0.1-0.1-0.3-0.3-0.3c-0.1,0-0.1,0-0.1,0.1c0,0.1-0.3,0.3-0.8,0.3s-0.9,0.1-1.1,0.1
	c-0.3,0.1-0.5,0-0.4-0.1c0-0.1,0.3-0.3,0.4-0.3c0.3-0.1,0.3-0.1-0.1-0.1c-0.3,0-0.7,0-0.9,0.1c-1.4,0.3-1.8,0.3-2.6,0.4
	c-0.5,0-1.1,0.1-1.2,0.1c-0.1,0-0.5,0-0.8,0c-0.4,0-0.7,0-0.8,0c0,0-0.3,0-0.4,0.1c-0.1,0-0.4,0.1-0.7,0c-0.3,0-0.7,0-0.9,0
	c-0.7,0-0.8-0.4-0.1-0.4c0.4,0,1.1-0.5,0.8-0.5c-0.1,0-0.3,0-0.3,0.1c0,0.1-0.8,0.3-1.4,0.1c-0.1,0-0.1,0.1-0.1,0.1
	c0,0.1,0,0.1-0.3-0.1c-0.4-0.4-0.4-0.5-0.1-0.3c0.1,0.1,0.3,0.1,0.3,0c0-0.1,0-0.3-1.1-0.1C95.4,2.7,95,2.9,95,3
	c0,0.1-0.1,0.1-0.3,0.1s-0.3,0-0.3,0.1c0.1,0.3-0.5,0.3-0.8,0c-0.1-0.1-0.3-0.1-0.3,0.1c0,0.1-0.1,0.1-0.1,0.1c0-0.3-0.4-0.3-0.9,0
	c-0.4,0.3-0.5,0.3-0.5,0.1c0-0.1-0.1-0.1-0.3,0c-0.1,0.1-0.1,0.1-0.1,0c0-0.3-0.5-0.1-0.5,0.1c0,0.1-0.3,0.3-0.7,0.3
	c-0.4,0-0.5,0-0.5-0.1c0-0.1,0-0.1-0.1-0.1c-0.1,0-0.1,0-0.1,0.1c0,0.1,0,0.1-0.1,0.3c-0.1,0-0.1,0-0.1-0.1c0-0.3-0.4-0.3-0.8-0.1
	c-0.1,0.1-0.7,0.1-0.9,0c-0.4,0-0.9,0-1.2,0c-0.3,0.1-0.5,0.1-0.8,0c-0.1,0-0.4,0-0.5,0s-0.4,0.1-0.7,0.1c-0.3,0-1.1,0.1-1.8,0.3
	c-0.7,0.1-1.6,0.1-2.1,0.1c-0.5,0-0.8,0-0.9,0.3c-0.1,0.1-0.3,0.3-0.3,0.1c-0.1-0.1-0.5,0-1.1,0c-0.5,0.1-0.9,0.1-1.1,0.1
	c-0.4-0.1-1.2,0.1-1.1,0.3c0,0.1,0,0.1-0.1,0c-0.1-0.1-0.4-0.1-0.7,0c-0.5,0.1-1.2,0.1-1.5-0.3c-0.3-0.3-0.8-0.3-0.7,0
	c0,0.1,0.1,0.1,0.3,0C73,5.1,73,5.1,73,5.3c0,0.1-0.4,0.3-1.2,0.4c-0.7,0-1.2,0.1-1.4,0.3c-0.1,0-0.3,0.1-0.4,0
	c-0.1,0-0.8,0-1.5,0.1c-2.9,0.5-3.5,0.5-3.4,0.3c0-0.1,0.5-0.3,0.9-0.1c0.1,0,0.5,0,0.7-0.1C66.8,6,67.1,5.9,67.1,6
	c0,0,0.1,0,0.4-0.1c0.1-0.1,0.4-0.1,0.5-0.1c0.3,0,0.4-0.1,0.1-0.4c-0.1-0.1-1.5-0.1-1.9,0.1c-0.1,0.1-0.4,0.1-0.5,0.1s-0.4,0-0.7,0
	c-0.3,0-0.5,0.1-0.7,0.1c-0.1,0-0.7,0-1.2,0.1c-0.5,0.1-1.5,0.3-2.1,0.4c-0.5,0.1-0.9,0.3-0.9,0.3s-0.1,0-0.4,0
	c-0.3-0.1-0.4-0.1-0.4,0c0,0.1-0.1,0.1-0.3,0.1c-0.1,0-0.8,0.1-1.6,0.3c-0.8,0.1-1.9,0.3-2.5,0.4c-0.5,0.1-1.2,0.3-1.4,0.3
	c-0.1,0.1-0.4,0.1-0.5,0.1s-0.3,0-0.3,0.1c0,0.1-0.1,0.1-0.3,0c-0.1-0.1-0.8,0-1.4,0.1c-2.9,0.5-6,1.2-6.3,1.1
	c-0.4-0.1-1.6,0.1-1.9,0.3c-0.1,0.1-0.3,0.1-0.5,0.1c-0.5-0.1-1.4,0.1-1.5,0.4c-0.1,0.1-0.5,0.3-0.9,0.4c-0.4,0.1-1.2,0.3-1.8,0.5
	c-0.4,0.3-1.1,0.4-1.2,0.3c-0.1,0-0.5,0-0.8,0.1c-0.3,0.1-0.5,0.1-0.5,0.1s0,0,0,0.1c0,0.1,0.1,0.1,0.1,0.1c0.3,0,0.1,0.1-0.4,0.4
	c-0.2,0-0.2,0.1-0.3,0.7c0,0.4-0.1,0.7-0.3,0.7c-0.3,0.1-0.4,0.7-0.3,0.9c0.1,0.3-0.3,0.7-0.7,0.8c-0.3,0-0.3,0,0-0.1
	c0.3-0.1,0.3-0.1,0-0.3c-0.3-0.1-0.4-0.1-0.5,0.4c0,0.1-0.1,0.4-0.3,0.4c-0.1,0-0.3,0.1-0.1,0.3c0,0.1-0.1,0.3-0.3,0.4
	c-0.4,0.3-0.1,0.9,0.4,0.9c0.3,0,0.3,0,0.3,0.1c-0.1,0.1-0.3,0.1-0.4,0.1c-0.1,0-0.3,0-0.3,0c0,0.1,0.1,0.1,0.3,0.3
	c0.1,0,0.3,0.1,0.1,0.4c-0.1,0.3-0.1,0.3-0.3,0c-0.1-0.1-0.3-0.3-0.4-0.4c-0.3,0-0.3,0.4,0.1,0.9c0.3,0.4,0.3,0.7,0.3,0.8
	c-0.3,0.3-0.4,1.1-0.1,1.5c0.1,0.4,0.1,0.4-0.5,0.8c-0.4,0.1-0.5,0.4-0.4,0.4c0.1,0,0.1,0.1,0,0.1c-0.4,0.1-0.4,0.7,0,0.8
	c0.5,0.3,0.5,0.7,0.1,0.5c-0.1,0-0.3,0-0.3,0.1c0,0.1,0,0.3,0.3,0.3s0.3,0,0.1,0.1c-0.1,0.1-0.1,0.3-0.3,0.4c0,0.1-0.1,0-0.3-0.1
	c-0.1-0.3-0.1-0.3-0.4,0c-0.1,0.1-0.1,0.4,0,0.5c0.3,0.3-0.1,0.7-0.4,0.5c-0.1,0-0.3,0-0.4,0.1c-0.1,0.1-0.9,0.3-2.3,0.5
	c-1.2,0.1-2.5,0.3-2.6,0.3c-1.9,0.3-6.1,0.9-7.1,1.1c-0.7,0.1-1.6,0.3-2.1,0.4c-0.5,0.1-1.6,0.3-2.6,0.4c-0.9,0.1-2.1,0.3-2.5,0.3
	c-1.5,0-2.3,0.3-3,0.7c-0.4,0.3-1.4,0.5-2.1,0.7c-1.5,0.3-1.9,0.7-2.2,1.5c0,0.3-0.3,0.5-0.5,0.7c-0.3,0.1-0.5,0.4-0.5,0.5
	c0,0.1-0.3,0.2-0.4,0.2c-0.3,0-0.4,0.1-0.4,0.4c0,0.4,0,0.4-0.1,0.1c-0.1-0.1-0.1-0.3-0.1-0.1c0,0.1,0,0.3,0.1,0.4
	c0.1,0.1,0.1,0.5,0.1,0.8c0,0.3,0,0.4,0.1,0.4s0.1,0,0.1,0.1c0,0.1,0,0.1,0.3,0.1c0.3,0,0.4,0,0.8,0.3c0.4,0.4,0.4,0.9,0,0.8
	c-0.1,0-0.3,0-0.3,0c-0.1,0.4-0.4,0.7-0.5,0.8c-0.3,0.1-0.5-0.1-0.4-0.3c0.1-0.1,0-0.1-0.3,0c-0.3,0-0.4,0.3-0.5,0.5
	C1,38.3,1,38.5,1.4,38.5c0.4,0,0.4,0,0.1,0.3C1.3,39,1.3,39,1.6,39c0.1,0,0.1,0.1,0.1,0.4c0,0.3-0.1,0.4-0.3,0.3
	c-0.1-0.1-0.1,0-0.3,0.1c0,0.1,0,0.3,0.1,0.3c0.1,0,0.1,0.1,0,0.1C1,40.4,0.7,41.2,1,41.4c0.1,0,0.1,0.1,0,0.3
	c-0.1,0.1-0.1,0.3,0,0.4c0.1,0.1,0,0.4,0,0.5c-0.1,0.3-0.1,0.3,0.1,0.1c0.1-0.1,0.4-0.1,0.5,0c0.1,0.1,0,0.1-0.3,0.3
	c-0.1,0.1-0.3,0.1-0.3,0.1c0.1,0,0,0.1-0.3,0.4C0.5,43.7,0.4,44,0.4,44s0,0,0.1,0c0.1-0.1,0.5-0.3,0.9-0.3c0.7-0.1,0.8-0.1,0.8,0
	c0,0.1,0,0.3-0.1,0.3c-0.1,0-0.1,0,0,0.1c0.1,0,0.1,0.3,0,0.5c-0.1,0.4-0.1,0.4,0,0.4c0.1,0,0.3,0,0.4,0.1c0,0.1,0.1,0.1,0.4,0
	c0.1-0.1,0.4-0.3,0.7-0.1c0.4,0,0.4,0.1,0,0.4c-0.3,0.1-0.4,0.1-0.4,0c0-0.1-0.1,0-0.3,0.3c-0.1,0.3,0,0.5,0.1,0.7
	c0.3,0.1,0.1,0.1-0.1,0.4c-0.3,0.1-0.4,0.3-0.3,0.4c0.3,0.1,0.1,0.5-0.1,0.5c-0.4-0.1,0,0.1,0.7,0.4c0.5,0.1,0.7,0.1,0.8,0.1
	c0-0.1,0-0.1-0.1-0.1c-0.1,0-0.1,0-0.1-0.1c0.1-0.4,0.7-0.3,0.5,0.1c0,0.3,0,0.5,0,0.7c0,0.4-0.1,0.7-0.5,0.8
	c-0.4,0.1-0.4,0.1-0.1,0.3c0.1,0.1,0,0.1-0.4,0c-0.5-0.1-0.7-0.1-0.7,0c-0.1,0.5,0.1,0.8,0.5,0.7c0.3,0,0.5,0,0.7,0
	c0.1,0,0.4,0,0.7,0c0.3,0,0.5,0,0.7,0.1c0.3,0.1,0.1,0.3-0.3,0.3c-0.3,0-0.5,0.1-0.5,0.3c0,0.1-0.1,0-0.3,0c-0.1-0.1-0.3-0.1-0.1,0
	c0,0.1,0.1,0.3,0.3,0.3c0.5,0.1,0.1,0.4-0.7,0.5c-0.8,0.1-0.9,0.1-0.9,0.7c0,0.4-0.1,0.5-0.3,0.4c-0.1-0.1-0.1-0.1,0,0.1
	c0.1,0.3,0.3,0.3,0.5,0.1c0.3-0.1,0.4-0.1,0.1,0.1c-0.1,0.4-0.1,0.4,0.4,0c0.3-0.1,0.7-0.3,0.8-0.3c0.1,0,0.3,0,0.3-0.1
	c0-0.1,0.1-0.1,0.3-0.1c0.1,0,0.4,0,0.5-0.1c0.3-0.1,0.9-0.1,0.9,0.1c0,0.1-0.4,0.3-0.8,0.4c-0.4,0.1-0.7,0.3-0.8,0.3
	c0,0.1-1.2,0.8-1.6,0.7c-0.1,0-0.3-0.1-0.1-0.1c0.1-0.1,0-0.1,0-0.1c-0.3,0-0.5,0.3-0.3,0.4c0.1,0.1,0.1,0.1-0.1,0
	c-0.3-0.1-0.4-0.1-0.4,0c0,0.1-0.3,0.1-0.4,0.1c-0.3,0-0.5,0-0.7,0.1c-0.1,0.1-0.3,0.1-0.4,0.1c-0.4-0.1-0.4-0.1-0.4,0.1
	c0,0.3,0.1,0.3,0.3,0.1c0.1-0.1,0.1-0.1,0.1,0c0,0.1,0.1,0.3,0.4,0.3c0.4,0,0.4,0,0.3-0.3c-0.3-0.4,0-0.4,0.3,0
	c0.1,0.3,0.3,0.3,0.7,0.3c0.3,0,0.8-0.1,1.2-0.1c0.7,0,0.8,0,0.4,0.1c-0.3,0-0.5,0-0.7,0C3,55.6,3,55.8,3,55.8c0,0.1,0.1,0.1,0.3,0
	c0.1-0.1,0.3-0.1,0.5-0.1c0.3,0,0.4-0.1,0.4-0.3s0.1-0.4,0.4-0.4c0.1,0,0.3,0,0.1,0.1c0,0,0,0.1,0.3,0.1c0.1,0,0.4,0,0.4,0
	c0-0.3,0.8-0.1,0.9,0.1c0.3,0.3,0.1,0.3-0.8,0.5C5,56,4.5,56.3,4.5,56.4c0,0.1,0.1,0.1,0.4,0c0.7-0.3,0.9-0.3,1.1,0
	c0.1,0.1,0,0.1-0.1,0c-0.1-0.1-0.4-0.1-0.5,0c-0.1,0.1,0,0.1,0.1,0.1c0.3,0,0.3,0.5-0.1,0.8c-0.3,0.1-0.7,0-0.7-0.4
	c0-0.3,0-0.3-0.1,0c0,0.1-0.1,0.3-0.4,0.1c-0.3-0.1-0.3-0.1-0.3,0c0,0.1,0,0.1-0.1,0.1c-0.3,0-0.3-0.3-0.1-0.5
	c0.1-0.1,0.1-0.3,0-0.3c-0.1,0-0.3,0-0.3,0.1c-0.1,0.3-0.3,0.3-0.5-0.1c-0.1-0.1-0.1-0.1-0.1,0c0,0.1,0.3,0.4,0.5,0.7l0.5,0.4H3.1
	c-0.3,0-0.5,0.1-0.5,0.3c0,0.1-0.3,0.3-0.4,0.3c-0.5,0-0.4,0.4,0.3,0.4c0.4,0,0.5,0,0.3,0.1c-0.1,0-0.3,0.1-0.3,0.1V59
	c-0.4,0.5-0.1,1.2,0.5,1.4c0.3,0,0.3,0,0.1,0c-0.1-0.1-0.3-0.4-0.3-0.7c0-0.5,0-0.5,0.3-0.5c0.1,0,0.4,0,0.4-0.1
	c0-0.1,0.3-0.1,0.5,0c0.5,0.3,0.7,0.5,0.1,0.4c-0.3,0-0.5,0-0.5,0c0,0.1-0.1,0.1-0.3,0.1c-0.3-0.1,0.1,1.2,0.4,1.2
	c0.1,0,0.1,0,0.1-0.1c0-0.1,0.1,0,0.3,0.3c0.4,0.4,0.4,0.8,0.1,0.7c-0.1,0-0.3,0-0.4,0.1c-0.1,0.1-0.4,0.1-0.5,0.1
	c-0.1,0-0.3,0-0.3,0.1c0,0.3,0.1,0.3,0.7,0c0.3-0.1,0.4-0.1,0.5,0c0,0,0.3-0.1,0.4-0.3C5.2,61.3,5.9,61,6,61.2
	c0.1,0.1,1.2,0.4,1.6,0.4c0.3-0.1,0.3,0.3,0,0.7c0,0.1,0,0.3,0.1,0.3c0.1,0,0.3-0.1,0.3-0.5c0-0.3,0.5-0.4,0.8-0.3
	c0.1,0.1,0.3,0,0.3-0.3c0-0.1,0.1-0.4,0.1-0.4c0.1,0,0.1,0,0.1,0.1c-0.1,0.3,0.8,0.5,1.2,0.3c0.1-0.1,0.3-0.3,0.3-0.4
	c0-0.1,0-0.3,0.1-0.1c0.1,0.3,1.1,0.4,0.9,0.3c0-0.1,0.1-0.3,0.3-0.3c0.3-0.1,0.3-0.1,0.4,0.1c0,0.3,0.7,0.5,0.8,0.3
	c0-0.1-0.1-0.3-0.3-0.4c-0.3-0.1-0.3-0.3,0-0.3c0.1,0,0.3,0,0.3,0.1c0,0.1,0,0.1,0.1,0c0.1-0.1,0.3-0.1,0.4,0
	c0.1,0.1,0.1,0.3-0.1,0.5c-0.1,0.3-0.3,0.4-0.1,0.5c0.1,0.1,0.1,0,0.3-0.1c0-0.1,0.1-0.3,0.3-0.1c0.1,0,0.1,0.1,0.1,0.1
	c0,0.1,0,0.1,0.1,0.1s0.1-0.1,0.1-0.3c0-0.1,0-0.3,0.1-0.3c0.1,0,0.1-0.1,0.1-0.4c0-0.4,0-0.4,0.3-0.1c0.3,0.3,0.3,0.3,0.1,0
	c-0.1-0.3,0-0.7,0.3-0.5c0.1,0,0.4,0.1,0.7,0c0.4-0.1,0.5,0,0.7,0.3c0.1,0.3,0.1,0.4-0.1,0.5c-0.1,0-0.4,0.1-0.4,0
	c-0.1,0-0.3,0-0.3,0.1c-0.1,0.1-0.4,0.4-0.5,0.5c-0.1,0.1-0.3,0.3-0.1,0.3c0.1,0,0.3,0,0.3-0.1c0-0.1,0.1,0.1,0.3,0.5
	c0.1,0.5,0.1,0.7,0,0.7c-0.1,0-0.1,0-0.1-0.1c0.1-0.1,0-0.1-0.1-0.1c-0.1,0-0.5,0-0.5,0c0.1,0.1-0.4,0.4-0.5,0.3
	c-0.1,0-0.1,0-0.1,0.1c0,0.3,0.1,0.3,0.4,0.1c0.4-0.1,0.4-0.1,1.4,0c0.4,0,0.5,0,0.7-0.1c0-0.1,0.3-0.1,0.7,0
	c0.3,0.1,0.5,0.3,0.5,0.3c-0.1,0.4,0.4,0.1,0.7-0.3c0.3-0.5,0.4-0.5,0.9-0.4C20.6,63,21,63,21.1,63c0.3-0.1,0.3-0.1,0.3,0
	c0,0.1,0,0.1,0.3,0.3c0.1,0,0.3,0,0.3-0.1c0-0.1,0.3-0.1,0.5-0.3c0.4,0,0.5,0,0.8,0.4c0.3,0.4,0.4,0.4,0.5-0.1
	c0-0.1,0.3-0.4,0.4-0.4c0.3-0.1,0.4,0,0.5,0.3c0.1,0.3,0.1,0.3,0.1,0.1c0.1-0.3,0.8-0.4,0.8-0.1c0,0.1,0.1,0.1,0.3,0.1
	c0.1,0,0.1,0-0.1,0.1c-0.4,0.1-0.5,0.4-0.1,0.4c0.1,0,0.4-0.1,0.7-0.3c0.3-0.1,0.4-0.3,0.4-0.1c0,0.1,0.1,0,0.4,0
	c0.5-0.3,0.9-0.1,0.8,0.1c-0.1,0.3,0.1,0.4,0.4,0.1c0.1-0.1,0.3,0,0.3,0.3c0,0.1,0,0.3-0.1,0.3c-0.1-0.1-0.1-0.1-0.4,0.5
	c-0.1,0.1-0.3,0.4-0.3,0.4c-0.1,0.1-0.5-0.5-0.4-0.7c0.1,0,0-0.1-0.1-0.1c-0.3,0-0.5,0.4-0.4,0.5c0.1,0.1,0,0.3-0.1,0.5
	c-0.1,0.1-0.3,0.4-0.1,0.4c0.3,0.1,0.8,0.1,1.1,0c0.1-0.1,0.3-0.1,0.5,0.1c0.3,0.3,0.5,1.1,0.3,0.9c0,0-0.1,0-0.1,0.1
	c-0.1,0.1,0.9,0.4,1.1,0.3c0.1-0.1,0.1-0.1,0-0.1c-0.1,0-0.5-1.1-0.4-1.2c0,0,0.4,0,0.7,0c0.5,0,0.5,0.1,0.5,0.4
	c0,0.5,0.1,0.5,0.5,0.4c0.3-0.1,1.6-0.1,1.6,0c0,0.1-0.9,0.5-1.1,0.5c-0.1,0-0.4,0.1-0.5,0.4c-0.5,0.5-0.7,0.8-0.3,0.7
	c0.1-0.1,0.4,0,0.7,0.3c0.4,0.3,0.4,0.3,0.7,0c0.3-0.5,0.4,0,0.1,0.8c-0.1,0.5-0.1,0.7,0.1,0.8c0.3,0.1,0.5,0.1,0.8,0
	c0.3-0.1,0.5-0.1,0.5,0c0.1,0.1,0.7,0,0.8-0.3c0-0.1,0.3-0.3,0.4-0.5c0.3-0.3,0.4-0.3,0.4-0.1c0,0.4,0,0.4-0.3,0.4
	c-0.3,0-0.5,0.3-0.5,0.8c0,0.1-0.1,0.1-0.3,0.1c-0.4,0-0.5,0.7-0.1,0.8c0.3,0.1,0.4,0.1,0.4,0.1s0.1,0.1,0.1,0.3
	c0,0.3,0.1,0.3,0.4,0c0.1-0.1,0.3-0.1,0.1-0.1c-0.3,0-0.1-0.1,0.1-0.5c0,0,0.1,0.1,0.1,0.3c0.1,0.4,0.4,0.5,0.5,0.3
	c0-0.1,0.1-0.3,0.3-0.1c0.3,0.1,1.2,0.1,1.4-0.1c0-0.1,0.3-0.1,0.5-0.1c0.4,0,0.5,0,0.7-0.4c0-0.3,0.3-0.5,0.4-0.7
	c0.3-0.1,0.3-0.1,0.1,0.1c-0.3,0.5-0.1,0.7,0.4,0.5c0.7-0.1,0.8-0.3,0.5-0.7c-0.3-0.3-0.1-0.3,0.3,0c0.3,0.1,0.5,0.1,0.5,0
	c0-0.1,0.1-0.1,0.1,0c0.1,0.1,0,0.3-0.1,0.4c-0.1,0.1-0.3,0.3-0.4,0.1c0,0-0.1,0-0.3,0.1c-0.1,0.1,0,0.3,0.1,0.3
	c0.1,0,0.3,0.1,0.1,0.3c-0.1,0.1,0,0.1,0.1,0.1s0.3,0.1,0.3,0.3c0,0.1,0.1,0.1,0.4,0.1c0.4,0,0.4,0,0.5-0.5c0.1-0.5,0.1-0.5,0.4-0.4
	c0.1,0.1,0.3,0.1,0.3-0.1c0-0.1,0-0.1,0.1-0.1c0.1,0.1,0.3,0,0.3,0c0-0.1-0.3-0.3-0.5-0.1c-0.1,0-0.4,0-0.5,0c-0.5,0-0.5-0.4,0-0.5
	c0.1,0,0.3-0.1,0.4-0.4c0-0.1,0.3-0.3,0.4-0.3c0.1,0,0.3,0.1,0.3,0.3c0,0.1,0,0.1,0.1,0.1s0.3-0.1,0.3-0.3c0-0.1,0-0.1-0.1-0.1
	c-0.1,0-0.1,0,0-0.3c0.1-0.3,0.4-0.4,0.8-0.4c0.4,0,0.7-0.1,0.7-0.1c0-0.1,0.1-0.1,0.1,0c0.1,0.1,0.1,0,0.3,0c0.1-0.1,0.3-0.1,0.5,0
	c0.1,0,0.4,0,0.4-0.1c0-0.1,0.3-0.1,0.5,0c0.3,0,0.5,0,0.7,0c0.1,0,0.3-0.1,0.3-0.1c0.4,0,1.5-0.1,1.5-0.3c0-0.1,0.1,0,0.3,0
	c0.1,0.1,0.4,0.1,0.4,0c0-0.1,0.3-0.1,0.7,0c0.4,0,0.9,0,1.2-0.1c0.3-0.1,0.7-0.3,0.7-0.1c0,0,0.3-0.1,0.5-0.1
	c0.8-0.4,1.2-0.5,2.1-0.7c0.4-0.1,0.8-0.3,0.9-0.3c0.3-0.3,1.6-0.5,2.5-0.5c0.3,0,0.7-0.1,0.8-0.1c0.1-0.1,0.7-0.1,1.2,0
	c0.5,0,0.9,0,0.9,0c0-0.1,0.5,0,0.5,0.1c0,0.1,0.1,0.1,0.4,0.1c0.1,0,0.3-0.1,0.3-0.3c0-0.1,0-0.1,0.3,0c0.1,0.1,0.4,0.1,0.7,0
	c0.1-0.1,0.3-0.1,0.1,0c-0.3,0.3-0.1,0.3,0.7,0.1c0.5,0,0.7,0,0.7,0.1s0,0.1,0.1,0c0-0.1,0.1-0.1,0.3-0.1c0.1,0,0.1,0.1,0,0.3
	c-0.1,0.1,0,0.1,0.3,0c0.7-0.5,1.1-0.7,1.1-0.5c0.1,0.1,1.2-0.1,1.9-0.4c0.3-0.1,0.8-0.3,1.1-0.3c0.3,0,0.7,0,0.7,0
	c0.1-0.1,0.1-0.1-0.3-0.1c-1.4-0.1-2.6,0.1-2.5,0.4c0,0-0.1,0.1-0.4,0.1c-0.3,0-0.8,0-1.2,0.1c-0.9,0.1-0.9,0.1-0.8-0.3
	c0.1-0.3,0.3-0.4,0.5-0.4c0.3,0,0.4-0.1,0.5-0.4c0.1-0.4,0.7-0.5,0.7-0.1c0,0.1,0,0.1,0.1,0c0.1-0.1,0.4-0.1,0.7-0.3
	c0.3,0,0.5-0.1,0.5-0.3c0-0.1,0.1-0.3,0.1-0.1c0.4,0.1,0.8,0.1,0.9-0.1c0.3-0.3,0.5-0.4,1.1-0.3c0.3,0,0.4,0,0.4-0.1
	c0-0.1,0.1-0.1,0.1,0c0,0.1,0.3,0,0.5,0c0.3-0.1,0.5-0.1,0.7,0c0.3,0.1,0.4,0.1,0.5,0c0.3-0.3,0.8-0.1,0.7,0.3
	c-0.1,0.3-0.3,0.4-0.8,0.1c-0.1,0-0.3,0-0.3,0.1c0,0.1,0,0.3,0.7,0.1c0.4,0,0.8-0.1,0.9-0.3c0.1-0.1,0.1-0.1,0.1,0c0,0,0.1,0,0.4,0
	c0.3-0.1,0.5-0.1,0.7,0c0.3,0.3,0.8,0.1,1.1-0.3c0.1-0.3,0.3-0.3,0.3,0c0,0.3,0,0.3,0.4,0.1c0.3-0.1,0.7-0.1,1.1,0
	c0.3,0.1,0.7,0.1,0.7,0c0.1-0.1,0-0.1-0.3-0.1c-0.4,0-0.7-0.4-0.3-0.4c0.1,0,0.3,0,0.3,0s0.3,0,0.7,0c0.4,0,0.5,0.1,0.4,0.3
	c-0.1,0.3-0.1,0.3,0.7,0c0.5-0.1,0.7-0.1,0.4-0.3c-0.4-0.1-0.4-0.1,0-0.1c0.3,0,0.4,0,0.4,0.1c0,0.1,0.3,0.1,0.7,0.1l0.5-0.1
	l-0.5-0.1c-0.3-0.1-0.4-0.1-0.4-0.3c0-0.3,0.9-0.3,1.4-0.1c0.3,0.1,0.3,0.1,0-0.1c-0.1-0.1-0.1-0.4,0-0.7c0.1-0.1,0.3-0.3,0.3-0.1
	c0,0.3,1.6,0.5,2.3,0.3c0.4-0.1,0.5-0.3,0.4-0.4c-0.1-0.1-0.1-0.1,0.1,0c0.1,0.1,0.4,0.1,0.5,0c0.1,0,0.4-0.1,0.8-0.1
	c0.4,0,0.7,0,0.5-0.1c0-0.1,0-0.1,0.1,0c0.1,0.1,0.3,0.1,0.4,0c0.1,0,0.4,0,0.7,0s0.5,0,0.7,0c0.4-0.1,1.6,0,1.5,0.1
	c0,0-0.1,0.1-0.4,0.3c-0.3,0.1-0.3,0.1,0,0.1c0.1,0,0.4,0.1,0.5,0.1c0.1,0,0.1,0.1,0.1,0.3c0,0.1,0,0.3,0.1,0.3c0.1,0,0.1,0,0.3-0.1
	c0-0.1,0.3-0.1,0.4,0c0.3,0.1,0.3,0.1,0,0.1c-0.3,0-0.3,0.1-0.3,0.3c0.1,0.3-0.3,1.1-0.4,0.9c-0.1,0-0.1,0-0.1,0.1
	c0,0.1,0.1,0.1,0.3,0.1c0.1,0,0.4,0,0.4-0.1c0-0.1,0.1,0,0.1,0.1c0.1,0.1,0.1,0.3,0.4,0.1c0.3,0,0.9,0,1.8,0.1l1.4,0.1l-0.1,0.4
	c-0.1,0.3-0.3,0.4-0.4,0.4c-0.1,0-0.3,0-0.3,0.1c0,0.1-0.1,0.1-0.3,0.1c-0.1,0-0.3,0-0.3,0.1c0,0.3,0.7,0.7,1.1,0.7
	c0.3,0,0.4,0.1,0.4,0.1c0,0.1,0,0.1,0.1,0.1c0.1,0,0.1,0,0,0.1c-0.1,0.1-0.3,0.1-0.4,0c-0.1-0.1-0.3-0.1-0.3,0.1
	c0,0.3,0,0.3-0.1,0.3s-0.3,0-0.4,0c-0.1,0.1-0.1,0.1,0,0.1c0.3,0,0.3,0.3,0.3,1.1c0,0.4-0.1,0.4-0.5,0.5c-0.3,0-0.5,0-0.5-0.1
	c-0.1-0.3-0.4-0.3-0.5,0.1c-0.1,0.1-0.3,0.3-0.4,0.3c-0.1,0-0.3,0-0.4,0.3c-0.1,0.3-0.1,0.4,0,0.4c0.3,0,0.8,0.7,0.7,0.8
	c-0.1,0,0,0.3,0.1,0.4c0.3,0.3,0.3,0.3,0,0.3c-0.1,0-0.5,0.1-0.8,0.3c-0.3,0.1-0.7,0.4-0.9,0.4c-0.3,0-0.4,0.1-0.5,0.3
	c0,0.1,0,0.3,0.3,0.3c0.1,0,0.3,0,0.4,0.1c0,0.1,0.3,0.1,0.4,0.1c0.3,0,0.4,0.1,0.3,0.3c0,0.1,0,0.3,0.3,0.1c0.1,0,0.3-0.1,0.3-0.3
	c0-0.1,0-0.3,0.1-0.1c0.4,0.1,0.9,0.1,1.2,0c0.1-0.1,0.5-0.1,0.9-0.3c1.2-0.3,2.2-0.4,2.3-0.3c0.1,0,0.3,0,0.5-0.1
	c0.4-0.1,0.4-0.1,0.5,0.1c0.1,0.1,0.1,0.3,0.3,0.1c0-0.1,0.3-0.3,0.5-0.3c0.4-0.1,0.5,0,0.7,0.1c0.1,0.3,0.1,0.3,0.1,0
	c0-0.3,0.1-0.3,0.3-0.3c0.4,0.1,0.5,0.3,0.3,0.4c-0.1,0.1-0.3,0.3-0.4,0.4c-0.1,0.3-0.1,0.3,0.4,0.4c0.5,0,0.5,0.1,0.4,0.8
	c0,0.1,0,0.1,0,0.1c0.1-0.3,0.9,0.1,1.2,0.4c0.1,0.3,0.1,0.3,0.4-0.1c0.3-0.4,0.8-0.4,0.9-0.1c0,0.1,0.3,0.3,0.5,0.3
	c0.3,0.1,0.4,0.1,0.3,0.3c-0.3,0.3,0,0.3,0.4,0.1c0.1-0.1,0.4-0.1,0.4-0.1c0.1,0,0.3,0,0.5-0.1c0.3-0.1,0.4-0.3,0.5-0.1
	c0.3,0.1,0.8-0.1,0.7-0.4c0-0.1-0.1-0.1-0.1,0.1c-0.1,0.3-0.1,0.3-0.3,0c-0.1-0.3,0-0.5,0.4-0.4c0.1,0,0.4,0,0.7-0.1
	c0.3-0.1,0.7-0.3,1.1-0.1c0.8,0,0.9,0,0.5-0.3c-0.3-0.4,0.1-0.9,0.7-0.9c1.2,0,6.1-0.8,6.5-1.2c0.1,0,0.3,0,0.5,0
	c0.1,0.1,0.4,0.1,0.5,0c0.1-0.1,0.3-0.1,0.5,0c0.3,0.1,0.4,0,0.4-0.1c0.1-0.3,0.7-0.4,1.4-0.3c0.3,0,0.5,0,0.5,0
	c0-0.1,0.3-0.1,0.4-0.1c0.3,0,0.5,0,0.8,0c0.3,0,0.7-0.1,0.9,0c0.3,0,0.7,0,0.8,0c0.1,0,0.4,0,0.4,0c0.1,0.1,1.2,0,1.6-0.1
	c0.1-0.1,0.5-0.1,0.8-0.1c0.3,0,0.7,0,0.9,0c0.3,0,0.7,0,0.8,0c0.1,0,0.3,0,0.3-0.3c0-0.1,0-0.3,0.1-0.1c0.1,0.1,0.4,0.1,0.5,0
	c0.1,0,0.1-0.1-0.3-0.3l-0.7-0.1l0.8-0.1c0.4,0,0.9,0,1.1,0c0.1,0,0.4,0,0.7,0c0.1,0,0.5,0,0.8,0c0.3,0,0.5,0.1,0.5,0
	c0.1-0.3,1.9-0.1,2.1,0.1c0.1,0.1,0.3,0.1,0.4,0c0.3-0.1,0.3-0.1,0.4,0.1c0.1,0.1,0.1,0.3,0.4,0.1c0.4-0.1,1.6-0.4,1.9-0.4
	c0.1,0,0.4,0,0.7,0c0.4,0,0.5-0.1,0.3-0.3c-0.1-0.1-0.1-0.1,0.1-0.3c0.1,0,0.3-0.1,0.3-0.3c0-0.1,0-0.1,0.1,0c0.1,0.1,0.3,0.1,0.3,0
	c0.1-0.1,0.3,0,0.5,0.1c0.5,0.3,0.5,0.3,0.7,0c0.1-0.3,2.7,0,2.7,0.3c0,0.1,0.1,0.1,0.4,0c0.3-0.1,0.7-0.1,0.8-0.1
	c0.1,0,0.5,0,0.8,0c0.4-0.1,0.5,0,0.7,0.1c0.1,0.1,0.1,0.1,0.1,0s0.1-0.1,0.4-0.1c0.3,0.1,0.4,0,0.4,0c0-0.1,0.1-0.1,0.3-0.1
	c0.8,0.1,2.3,0.1,3.1,0c0.1,0,0.4,0,0.4,0c0.1,0,0.5,0,0.9-0.1c0.4-0.1,0.9-0.1,1.1-0.1c0.1,0,0.3-0.1,0.3-0.1c0-0.1,0.1-0.1,0.3,0
	c0.1,0,0.3,0.1,0.3,0.3c0,0.1,0.1,0,0.3,0c0.4-0.3,1.5-0.1,1.5,0.1c0,0.1-0.3,0.1-0.7,0.1c-0.8,0-2.2,0.1-2.2,0.3
	c0,0.1,0.4,0.3,0.5,0.1c0.1-0.1,1.6,0.1,1.5,0.3c0,0.1-0.9,0.1-1.9,0.1c-1.1,0-1.9,0.1-1.9,0.1c0,0.1,1.4,0.3,1.6,0.1
	c0.3-0.1,0.8,0,2.1,0.1c0.3,0,0.5,0,0.7-0.1c0.1-0.1,0.4-0.1,0.7-0.1c0.5,0.1,1.1,0,1.6,0c0.3,0,0.9,0,1.4,0.1
	c0.5,0.1,0.9,0.1,1.1,0c0.1-0.1,0.4-0.1,0.7,0c1.4,0.3,3.9,0.3,5.3,0c0.3,0,0.5,0,0.7,0c0.1,0.1,0.3,0.1,0.4,0
	c0.3-0.1,1.1-0.1,2.2,0.1c0.3,0,0.7,0,0.8,0c0.1,0,0.8,0,1.6,0.1c0.8,0.1,1.8,0.3,2.3,0.3c0.4,0,0.9,0.1,0.9,0.1
	c0.1,0.1,0.5,0.3,0.9,0.4c0.5,0.1,0.8,0.1,0.8,0c0.1-0.3,0.3-0.3,0.5,0c0.1,0.1,0.3,0.1,0.5,0.1c0.3,0,0.7,0,1.1,0
	c0.4,0,0.9,0,1.2,0c0.3,0,0.5,0,0.7,0.1c0.1,0.1,0.9,0.3,2.7,0.3c2.1,0,3.5,0,4.4,0c0.4,0,1.1,0,1.5,0c0.4,0,0.8,0,0.8,0
	c0.1,0,0.3,0,0.5,0c0.3,0,0.7,0,0.9-0.1c0.3,0,0.7,0,0.7,0c0.3,0.1,2.3,0.1,2.7,0c0.3,0,0.5-0.1,0.8,0c2.5,0.4,4.4,0.4,3.9,0.1
	c-0.1-0.1,0-0.1,0.3,0c0.3,0.1,0.9,0.3,1.5,0.3c0.6,0,1.4,0,1.8,0.1c0.4,0,0.9,0,1.1,0c0.3,0,1.4,0,2.5,0.1c1.1,0.1,2.1,0.1,2.1,0
	c0,0-0.3-0.1-0.5-0.1c-0.7,0-0.7-0.4,0-0.3c0.3,0,0.4,0,0.4-0.3c0-0.3,0-0.3,0.3,0c0.1,0.1,0.5,0.3,0.9,0.4c0.9,0.3,4.1,0.4,4.2,0.1
	c0-0.1,0.1-0.1,0.1,0c0.1,0.1,0.1,0,0.1-0.1c0-0.3-0.1-0.3-0.5-0.1c-0.4,0.1-0.5,0.1-0.4-0.3c0-0.1,0-0.1-0.1,0
	c-0.1,0-0.1,0.1-0.1,0.3c0,0.1,0,0.1-0.1,0.1c-0.1,0-0.1-0.1-0.1-0.1c0-0.1-2.7-0.7-3.5-0.5c-0.4,0-0.8,0-1.5-0.3
	c-0.7-0.3-0.9-0.4-1.1-0.3c-0.3,0.1,0,0.4,0.5,0.5c0.1,0,0.3,0.1,0.3,0.3c0,0.3-0.5,0.1-0.9,0c-0.3-0.1-0.4-0.1-0.4,0
	c0,0.1-0.4,0.1-0.8,0c-0.9-0.1-1.8-0.3-1.9-0.1c-0.1,0-0.1,0.1,0,0c0.1,0,0.3,0,0.3,0.1c0,0.1,0,0.1-0.1,0.1c-0.1,0-0.1,0-0.1,0.1
	c0,0.1,0,0.1-0.1,0.1c-0.1-0.1-0.8-0.1-1.4-0.3c-0.7,0-1.5-0.1-1.9-0.1c-1.2-0.1-1.6-0.1-4.4,0c-1.5,0-2.9,0.1-3,0
	c-0.1,0-0.7,0-0.9,0c-0.3,0.1-0.7,0.1-0.8,0c-0.1,0-0.4-0.1-0.7-0.1s-0.5,0-0.5-0.1s-2.1-0.5-2.2-0.4c-0.1,0-0.3,0-0.4-0.1
	c-0.3-0.1-0.3-0.1-0.4,0c0,0.3-0.9,0.4-1.6,0.3c-0.3,0-0.8-0.1-1.2-0.4c-0.7-0.3-0.7-0.3-0.7,0c0,0.1,0,0.3-0.1,0.3
	c-0.1,0-0.1-0.1-0.1-0.3c0-0.1-0.1-0.1-0.3-0.1c-0.1,0-0.5-0.1-0.8-0.4c-0.4-0.3-0.4-0.4-0.1-0.4c0.3,0,0.4,0,0.5-0.1
	c0.1,0,0.4-0.1,0.5,0c0.3,0,0.4,0,0.5,0c0.1-0.1,0.3-0.1,0.5,0c0.1,0,0.5,0.1,0.7,0c0.1,0,0.3,0,0.1,0c-0.1,0.1-0.1,0.1,0,0.3
	c0.3,0.3,2.5,0.3,2.6,0c0.1-0.1,0-0.1,0-0.1c-0.4,0.1-1.5-0.1-1.4-0.3c0.1-0.1,0.3,0,0.4,0c0.1,0.1,0.3,0,0.3,0
	c0-0.3-0.4-0.3-0.8-0.1c-0.7,0.3-0.9,0-0.4-0.4c0.1-0.1,0.5-0.3,0.8-0.1c0.3,0,0.5,0,0.7,0c0.1,0,0.3,0.1,0.3,0.3
	c0.1,0.3,0.1,0.3,0.3,0.1c0.1-0.3,2.1-0.4,2.3-0.1c0.1,0.1,0.3,0,0.4-0.1c0.1-0.1,0.4-0.1,0.8-0.1c0.3,0,1.1,0.1,1.6,0.1
	c0.5,0,1.4,0,1.8,0c0.4,0,0.9,0.1,1.1,0.1c0.1,0,0.4,0,0.5-0.1c0.1-0.1,0-0.1-0.3-0.1c-0.4,0-2.7-0.3-3.7-0.5c-0.3,0-0.4,0-0.4,0
	c0,0.1-2.6,0.1-2.9,0.1c-0.1,0-0.1-0.1-0.1-0.1c0-0.1,2.1-0.3,2.7-0.1c0.1,0,0.1-0.1,0.3-0.3c0.1-0.1,0.3-0.3,0.5-0.3
	c0.1,0,0.9,0,1.6,0c2.7,0,5.5,0.3,5.2,0.5c-0.1,0.1,0,0.1,0.1,0.3c0.1,0,0.4,0,0.5-0.1c0.1-0.1,0.4-0.1,0.5-0.1c0.3,0,0.9,0,1.6,0
	c0.7,0,2.3,0.1,3.8,0.4c1.5,0.3,2.7,0.4,2.9,0.4c0.1,0,0.4,0,0.5,0c0.1,0,0.7,0,1.1,0c0.9,0,2.3,0.3,4.5,0.7
	c0.9,0.1,1.8,0.3,1.8,0.3c0-0.1,1.2,0,1.5,0.1c0.1,0.1,0.1,0.1,0,0.3c-0.3,0.1-0.3,0.1,0.3,0.4c0.3,0.1,0.5,0.1,0.5,0.3
	c0.1,0,0.5,0.1,1.1,0.1c0.5,0,1.1,0.1,1.2,0.1c0.1,0,0.3,0,0.4,0c0-0.1,0.5,0,1.2,0.1c2.1,0.4,2.3,0.4,2.6,0.3
	c0.1-0.1,0.3-0.3,0.3-0.3c0-0.1-0.1,0-0.3,0c-0.1,0.1-0.4,0.1-0.5,0.1c-0.3,0,0-0.5,0.3-0.5c0.1,0,0.5,0,0.8,0
	c0.4-0.1,1.5,0,3.1,0.4c1.5,0.3,2.7,0.5,2.9,0.4c0.1,0,0.9,0.1,1.8,0.3c0.8,0.1,2.2,0.3,2.9,0.4c0.8,0.1,2.1,0.3,3,0.4
	c0.8,0.1,1.6,0.3,1.8,0.3c0.1,0,1.2,0.1,2.5,0.4c1.2,0.3,2.5,0.4,2.5,0.4c0.1,0,0.8,0.1,1.8,0.3c0.8,0.1,1.8,0.3,1.8,0.1
	c0.1,0,0.7,0,1.2,0.1c0.5,0.1,1.1,0.1,1.4,0.1c0.1,0,0.3,0,0.4,0c0-0.1,0.1,0,1.6,0.1c0.5,0.1,0.9,0.1,0.9,0c0,0,0.8,0,1.8,0.1
	c0.9,0.1,1.8,0.3,1.9,0.3c0.1,0,0.3,0.1,0.3,0.3c0,0.1,0.3,0.1,0.4,0c0.3-0.1,0.4-0.1,0.7,0c0.3,0.1,0.3,0.3,0.4,0.1
	c0-0.1,0.3-0.1,0.4,0c0.3,0.1,0.8,0.1,1.4,0.1c1.2,0,2.6,0.1,2.6,0.3c0,0,0,0,0-0.1c0-0.1,0.3-0.1,0.8,0c0.4,0.1,0.9,0.1,1.1,0.1
	c0.3-0.1,1.8-0.1,3.3,0c0.5,0.1,1.2,0.1,1.5,0c0.3,0,0.4-0.1,0.5-0.1c0.1,0,0.3-0.1,0.4-0.1c0.1-0.1,0.5-0.1,0.7-0.1
	c0.1,0,0.4,0,0.4-0.1c0.1-0.3-0.5-0.8-1.1-0.9c-0.5-0.1-0.5-0.4-0.1-0.4c0.1,0,0.7-0.1,0.9-0.4c0.3-0.3,0.7-0.3,0.8-0.3
	c0.1,0,0.1,0,0.1-0.1c0-0.1,0.4-0.4,0.8-0.5c0.4-0.3,0.8-0.5,0.8-0.5c0-0.1,0.3-0.1,0.5-0.3c0.3,0,0.4-0.1,0.3-0.1
	c-0.4-0.3,0-0.8,0.4-0.9c0.3,0,0.4-0.1,0.3-0.1c0,0,0.1-0.4,0.4-0.9c0.3-0.5,0.5-0.9,0.5-1.1c0-0.1,0.1-0.3,0.4-0.4
	c0.4-0.3,0.4-0.5,0-0.7c-0.1,0-0.1-0.3,0-0.8c0.3-0.9,0.5-2.9,0.7-3.5c0-0.3,0.1-0.4,0.3-0.4c0.1,0,0.3-0.3,0.3-0.7
	c0.1-0.5,0.3-0.7,0.5-0.8c0.4-0.3,0.9-0.9,0.7-1.1c-0.1,0-0.1-0.1-0.1-0.1c0.1,0,0.3-0.3,0.4-0.7c0.1-0.3,0.4-0.5,0.5-0.7
	c0.4-0.1,2.5-0.3,3.3,0c0.4,0.1,1.5,0.1,2.2,0.3c0.8,0,1.6,0.1,2.1,0.1c0.3,0.1,0.7,0.1,0.8,0c0.1-0.1,0.7,0,1.2,0.1
	c0.5,0.1,1.1,0.1,1.1,0.1s0.4,0,0.8,0.1c0.5,0.1,0.8,0.1,1.1,0c0.3-0.3,0.3-0.3,0.5,0.1c0.1,0.4,0.5,0.5,0.5,0.1
	c0-0.3,0-0.3,0.3-0.1c0.3,0.1,0.4,0.1,0.5-0.1c0.1-0.1,0.3-0.3,0.4-0.3c0.3,0,1.4-1.1,1.5-1.5c0-0.1,0-0.3-0.1-0.3
	c-0.1,0-0.1-0.1-0.1-0.3c0-0.1,0.1-0.3,0.3-0.1c0.1,0,0.1-0.1,0.3-0.4c0-0.3,0.1-0.5,0.3-0.5c0.1-0.1,0.3-0.3,0.1-0.4
	c0-0.1,0-0.1,0.3,0c0.4,0.1,0.8-0.1,0.5-0.4c-0.3-0.3,1.6-1.2,2.1-0.9c0.3,0.1,0.3,0.1,0.3-0.1c0-0.1,0-0.3,0-0.4
	c0-0.1,0-0.1-0.1-0.1c-0.1,0-0.3-0.1-0.3-0.3c0-0.3-0.1-0.4-0.3-0.3c-0.1,0-0.1,0,0.1-0.1c0.3-0.1,0.7-0.1,0.8-0.1
	c0.1,0,0.5,0,0.8-0.1c0.5-0.3,0.5-0.4,0.4-0.7c-0.3-0.4,0-0.5,1.1-0.1c0.9,0.3,0.8,0-0.1-0.3c-0.4-0.1-0.8-0.1-0.8-0.1
	c-0.1,0.1-0.7-0.1-0.7-0.3c0-0.1,0.1,0,0.3,0c0.1,0.1,0.3,0.1,0.1-0.1c-0.1-0.4,0-0.9,0.4-0.9c0.1,0,0.4-0.1,0.4-0.3
	c0-0.1,0.1-0.3,0.1-0.3c0.1,0,0.4-0.1,0.7-0.3c0.4-0.1,0.4-0.3,0.3-0.3c-0.4,0-0.4-0.3-0.1-0.3c0.1,0,0.1-0.1,0.1-0.3
	c0-0.1,0-0.1,0.1-0.3c0.3-0.1,0.9,0.4,0.8,0.7c-0.1,0.1,0.3,0.4,0.7,0.3c0.4,0,0.4,0,0-0.3c-0.3-0.1-0.5-0.3-0.7-0.3
	c-0.1,0,0-0.1,0.1-0.1c0.5-0.1,0.5-0.3,0-0.4c-0.3,0-0.4-0.1-0.4-0.3c0-0.1,0.1-0.1,0.3,0c0.4,0.3,0.8,0,0.8-0.4
	c0-0.3,0.1-0.4,0.5-0.1c0.1,0,0.1,0,0.1-0.1c0-0.1,0-0.1,0.1-0.1c0.1,0,0.3,0.1,0.3,0.3c0,0.1,0.1,0.1,0.1-0.1
	c0.1-0.3,0.1-0.3-0.4-0.4c-0.4,0-0.5-0.1-0.5-0.3c0-0.1,0.1-0.1,0.3-0.1c0.1,0,0.1,0,0.1-0.1c0-0.1,0.1-0.1,0.3-0.1s0.3,0,0.3-0.3
	c0.1-0.3,0.3-0.4,0.7-0.3c0.1,0,0.4-0.9,0.3-1.2c-0.1-0.1-0.1-0.3-0.1-0.4c0-0.1,0-0.1-0.1-0.3c-0.3,0-0.4-0.4-0.3-0.5
	c0,0,0.3-0.1,0.5,0c0.3,0,0.4,0,0.1-0.1c-0.1-0.1-0.3-0.1-0.4-0.1c-0.1,0-0.3-0.1-0.4-0.4c-0.1-0.3-0.3-0.3-0.4-0.3
	c-0.1,0.1-0.3,0-0.7-0.1c-0.9-0.5-0.8-0.7,0.1-0.4c0.7,0.1,0.9,0.1,0.9,0c0-0.1-0.1-0.1-0.3-0.1c-0.1,0-0.3-0.1-0.3-0.1
	c0-0.1,0-0.4,0-0.5c0-0.3,0-0.3,0.5-0.3c0.3,0.1,0.5,0,0.5-0.1c0-0.1,0.1-0.1,0.1-0.1c0.1,0,0.1,0.1,0.1,0.1c0,0.1,0.3,0,0.7-0.1
	c0.4-0.1,0.8-0.3,0.8-0.3c0.1,0,0.4,0,0.5-0.1c0.3-0.1,0.4-0.1,0.3,0c-0.1,0.1-0.1,0.1,0,0.1c0.1,0,0.3,0,0.3,0.1c0,0.1,0,0.1,0.1,0
	c0-0.1,0-0.3,0-0.4c0-0.1-0.3-0.3-0.5-0.3c-0.4,0-0.4-0.1-0.3-0.3c0.1-0.1,0.1-0.4,0.3-0.4c0,0,0.1-0.1,0.3,0c0.3,0,0.4-0.8,0.3-1.2
	c-0.1-0.1-0.4-0.3-0.8-0.4c-0.3-0.1-0.5-0.1-0.4-0.3c0.1-0.1,0-0.1,0-0.3c-0.1,0,0.1,0,0.7,0.1c0.4,0.1,0.9,0.3,0.9,0.4
	c0,0.1,0.1,0.1,0.3,0.1C314.5,35,314.4,34.3,314.1,34.2z M1.6,38.5c-0.1,0-0.1-0.1-0.1-0.3c0-0.1,0.1-0.3,0.3-0.1
	c0.1,0.1,0.1,0.1,0.1,0.3C1.9,38.3,1.8,38.5,1.6,38.5z M2.9,50.1c0,0.1-0.1,0.3-0.1,0.1C2.6,50.2,2.6,50.1,2.9,50.1
	C2.9,49.8,2.9,49.9,2.9,50.1z M4.1,47.6c-0.1,0-0.3-0.1-0.3-0.3c0-0.1,0.1-0.3,0.3-0.1c0.1,0,0.1,0.1,0,0.1c-0.1,0.1,0,0.1,0.1,0.1
	c0.1,0,0.3,0.1,0.3,0.1S4.2,47.6,4.1,47.6z M5.2,42.7c-0.8,0.1-0.9,0-0.4-0.8c0,0,0.1,0,0.3,0.1c0.1,0.1,0.4,0.3,0.5,0.1
	c0.1,0,0.3,0,0.3,0.1C5.6,42.5,5.5,42.5,5.2,42.7z M2.5,55.2c-0.1,0-0.4,0.1-0.4,0.1c-0.1,0-0.1-0.1,0-0.1c0.1-0.1,0.3-0.1,0.4-0.1
	C2.9,55.1,2.9,55.2,2.5,55.2z M4.9,55.2c0,0-0.1-0.1-0.1-0.3c0-0.1,0-0.3,0.1-0.1C5.1,54.9,5.1,55.2,4.9,55.2z M2.7,58.4
	C2.6,58.1,2.6,58.1,2.7,58.4c0.3,0,0.4,0.1,0.3,0.1C3,58.5,2.9,58.5,2.7,58.4z M3.5,58.4c-0.1-0.1-0.1-0.1,0.1-0.1
	c0.1,0,0.3,0.1,0.3,0.1C3.8,58.5,3.7,58.5,3.5,58.4z M3.7,58c-0.1,0-0.1,0-0.1-0.1c0,0,0.1-0.1,0.3-0.1c0.1,0,0.1,0,0.1,0.1
	C3.8,58,3.8,58,3.7,58z M4.4,60.3c-0.3-0.3-0.1-0.3,0.3,0c0.1,0.1,0.3,0.1,0.1,0.3C4.8,60.5,4.5,60.4,4.4,60.3z M5.6,58.1
	C5.7,58,5.7,58,5.6,58.1c0,0.3,0,0.4,0,0.3C5.5,58.2,5.5,58.1,5.6,58.1z M5.7,60.5c-0.1,0-0.3-0.1-0.4-0.1c-0.1-0.1-0.1-0.1,0.1-0.1
	C5.9,60.3,6,60.5,5.7,60.5z M7,60.8c-0.1,0-0.3,0-0.1-0.1c0.1,0,0-0.1-0.1-0.1c-0.1,0-0.1-0.1-0.1-0.1c0.1,0,0.7,0.3,0.7,0.3
	S7.1,60.7,7,60.8z M8.3,60.7c-0.1,0.1-0.1,0.1-0.3,0.1c-0.1,0-0.1-0.1-0.1-0.1c0-0.1,0.1-0.1,0.3-0.1S8.3,60.5,8.3,60.7z M8.2,59.3
	c-0.4,0.1-0.4-0.1,0-0.3c0.1-0.1,0.3-0.1,0.3,0C8.5,59.2,8.3,59.3,8.2,59.3z M9.4,54.9c-0.1,0-0.1,0-0.1-0.1c0,0,0.1-0.1,0.3-0.1
	c0.1,0,0.1,0,0.1,0.1C9.7,54.8,9.5,54.9,9.4,54.9z M13.5,59.8l-0.1-0.1c0-0.1,0-0.1,0.1-0.1c0.1,0,0.1,0.1,0.1,0.1
	C13.5,59.8,13.5,59.8,13.5,59.8z M13.9,60.4c0,0-0.1-0.1-0.1-0.3c0-0.1,0-0.3,0.1-0.3c0.1,0,0.1,0.1,0.1,0.3
	C14.1,60.3,13.9,60.4,13.9,60.4z M15.1,60.1c-0.1,0.1-0.3,0-0.4-0.1c-0.1-0.1-0.1-0.3-0.1-0.4c0-0.1,0.1,0,0.1,0.1
	c0,0.1,0.1,0.3,0.1,0.1c0-0.1,0.1-0.1,0.1,0C15.1,59.8,15.1,60,15.1,60.1z M26.3,62.8c-0.1,0-0.1,0-0.1-0.1c0-0.1,0.1-0.1,0.3-0.1
	c0.1,0,0.1,0,0.1,0.1C26.6,62.8,26.5,62.8,26.3,62.8z M29.1,62.8c-0.1,0.1-0.1,0.3-0.3,0.4c0,0.1-0.1,0.1-0.3,0.1
	c-0.1,0-0.1-0.1,0-0.3c0.1-0.1,0.1-0.3,0-0.3c-0.1,0-0.1,0-0.3,0.1c0,0.1-0.1,0.1-0.3-0.1c-0.1-0.3-0.1-0.4,0.1-0.5
	c0.1-0.1,0.4-0.3,0.5-0.3C29.1,62.2,29.2,62.7,29.1,62.8z M31.5,65.4c-0.1,0.1-0.4,0.3-0.5,0.3c-0.3,0.1-0.3,0.1-0.1-0.1
	c0.1-0.3,0.5-0.4,0.9-0.4C31.8,65.3,31.7,65.3,31.5,65.4z M32.7,22.4c0.1,0.4,0.1,0.4,0,0.3c-0.1-0.1-0.1-0.3-0.1-0.3
	C32.6,22.2,32.6,22.2,32.7,22.4z M32.5,24.4c0.1-0.1,0.3-0.1,0.3-0.1c0.1,0,0.1,0.1,0.1,0.1c0,0.1-0.1,0.1-0.3,0.1
	C32.5,24.7,32.3,24.6,32.5,24.4z M32.3,67.5c-0.3,0-0.3,0,0-0.1c0.4-0.3,0.4-0.3,0.4,0C32.7,67.3,32.5,67.5,32.3,67.5z M32.7,68
	c-0.1,0-0.1-0.4,0-0.4c0.1,0,0.1,0,0.1,0.1C32.9,67.9,32.9,68,32.7,68z M32.9,66.7c-0.1,0-0.1-0.4,0-0.4s0.1,0,0.1,0.1
	C33,66.7,33,66.7,32.9,66.7z M33,65.9c-0.3,0.1-0.4,0-0.5-0.3c-0.3-0.4-0.3-0.4,0.1-0.3c0.1,0,0.4,0.1,0.3,0.3c0,0.1,0,0.1,0.1,0.1
	C33.4,65.6,33.3,65.7,33,65.9z M33.1,21.6c-0.1,0-0.1-0.3-0.1-0.4c0-0.3,0.1-0.4,0.3-0.3C33.6,21,33.4,21.7,33.1,21.6z M33.7,67
	c-0.3-0.1-0.3-0.4,0-0.4c0.1,0,0.3,0.1,0.3,0.5C33.8,67.1,33.8,67,33.7,67z M33.7,22.6c-0.1,0-0.1-0.1-0.1-0.1
	c0.1-0.1,0.3-0.1,0.3,0C34.1,22.5,34,22.6,33.7,22.6z M34.3,19c-0.1,0-0.1-0.1-0.3-0.3c0-0.1,0-0.1,0.3-0.1c0.1,0,0.3,0.1,0.3,0.3
	C34.4,19,34.4,19.1,34.3,19z M35.7,13.6c0.1-0.3,0.1-0.3,0.3-0.1c0.3,0.3,0.1,0.5-0.3,0.4C35.7,14,35.6,13.8,35.7,13.6z M35.5,18
	h-0.1c-0.1,0-0.1-0.1-0.1-0.3c0-0.1,0-0.3-0.1-0.3c-0.1,0-0.1-0.1-0.1-0.1C35.1,16.9,35.5,17.4,35.5,18z M35.1,70.2
	c-0.1-0.1-0.3-0.3-0.4-0.1c-0.1,0-0.1-0.1,0-0.3c0.1-0.3,0.1-0.3,0.4,0C35.3,70.2,35.3,70.5,35.1,70.2z M35.7,70.3
	c-0.1,0-0.1-0.4,0-0.4c0.1,0,0.1,0,0.1,0.1C35.9,70.2,35.7,70.3,35.7,70.3z M36,69.3c-0.1,0.1-0.3,0.4-0.3,0.4s0-0.1,0-0.3
	C35.9,69.2,36,69,36,69C36.1,69,36,69.1,36,69.3z M35.6,65.9c-0.3,0.3-0.5,0.5-0.7,0.5c-0.3,0,0-0.3,0.5-0.7l0.5-0.4L35.6,65.9z
	 M47.2,64.2l-0.1-0.1c0-0.1,0-0.1,0.1-0.1c0.1,0,0.1,0.1,0.1,0.1C47.3,64.2,47.3,64.2,47.2,64.2z M52,59.3c-0.1,0-0.4,0-0.4,0
	c-0.1-0.1,0.3-0.4,0.5-0.3C52.4,59,52.4,59.3,52,59.3z M57,65.4c-0.1-0.1-0.3-0.1-0.5,0c-0.5,0.3-1.2,0.3-1.2,0
	c0.1-0.3,0.8-0.4,1.5-0.4c0.3,0,0.5,0.1,0.4,0.3C57.2,65.4,57.2,65.4,57,65.4z M59.6,64.6c-0.5,0.1-0.8,0.1-0.7-0.1
	c0-0.3,0.7-0.5,0.9-0.5C60.5,64.1,60.2,64.5,59.6,64.6z M64.1,6.8c0.3,0-0.1,0.1-0.8,0.3c-0.4,0-0.7,0-0.7,0
	C62.6,7,63.9,6.8,64.1,6.8z M62.1,42.4c0.1,0,0.1,0,0.1,0.1c0,0-0.1,0.1-0.3,0.1s-0.1,0-0.1-0.1C61.8,42.4,61.9,42.4,62.1,42.4z
	 M63.5,64.7c-0.3,0.1-0.7,0.1-0.8,0.1c-0.1,0-0.3,0-0.3,0.1c0,0.3-0.7,0-0.8-0.3c-0.1-0.3,0.3-0.4,0.9-0.4c0.9,0,1.1,0,0.8-0.3
	c-0.1-0.1-0.3-0.1-0.4,0c-0.1,0.1-0.3,0.1-0.4,0c-0.3-0.3,0.3-0.4,0.8-0.3c0.4,0.1,0.5,0.1,0.4,0.3c-0.1,0.1,0,0.1,0,0.3
	C64.1,64.4,63.9,64.6,63.5,64.7z M65.6,61.8c0-0.1-0.3,0-0.4,0c-0.1,0.1-0.5,0.1-0.7,0.1c-0.3,0-0.5,0-0.7,0c-0.3,0-0.3,0-0.3-0.1
	c0-0.3,2.1-0.5,2.2-0.4c0.1,0,0.1,0.1,0.1,0.3C65.8,61.9,65.8,61.9,65.6,61.8z M66.9,61.2c0,0.1-0.3,0.3-0.4,0.4
	c-0.4,0.1-0.4,0.1-0.4-0.1c0-0.1,0.1-0.3,0.3-0.1C66.6,61.4,66.7,61.4,66.9,61.2C66.9,61.1,66.9,61.1,66.9,61.2z M67.9,61.6
	c-0.3-0.1-0.5-0.1-0.4-0.3c0.1-0.1,0.3-0.1,0.8,0.1C68.8,61.5,68.3,61.8,67.9,61.6z M70.9,60.1c0.1,0,0.1,0.1,0,0.3
	c-0.1,0.1-0.4,0.4-0.4,0.7c-0.1,0.4-0.5,0.5-1.8,0.4c-0.4,0-0.4-0.1-0.1-0.3c0.1-0.1,0.4-0.1,0.5-0.1c0.1,0,0.5,0,0.7-0.3
	c0.4-0.3,0.4-0.3,0-0.3c-0.3,0-0.7,0-0.9,0.1c-0.3,0-0.7,0-0.8,0.1c-0.1,0-0.4,0-0.7,0c-0.1,0-0.4,0-0.5,0.1c-0.1,0-0.3,0-0.3,0
	c0-0.1-0.1,0-0.1,0.1c0,0.1-0.1,0.1-0.1,0.1c-0.1-0.1,0.7-0.7,1.1-0.5c0.1,0,0.4,0,0.5-0.1c0.1-0.1,0.3-0.1,0.3,0
	c0.1,0.1,0.3,0,0.4-0.1c0.1-0.1,0.3-0.3,0.4-0.1c0.1,0,0.5,0,1.1,0c0.9-0.1,1.4-0.1,0.8,0C70.8,60.1,70.8,60.1,70.9,60.1z
	 M73.9,61.2c0,0.1-0.1,0.3-0.3,0.1c-0.1,0-0.3,0-0.3,0.1c0,0.1-0.1,0.1-0.3,0.1c-0.3,0-0.1-0.3,0.3-0.5C73.7,60.8,73.9,61,73.9,61.2
	z M78.2,61c-0.1-0.1-0.3,0-0.3,0.1c0,0.1-0.1,0.1-0.3,0c-0.1-0.1-0.3-0.3-0.5-0.1c-0.1,0-0.5,0.1-0.8,0.1c-0.3,0-0.5,0-0.5,0.1
	c0,0.1-0.3,0.1-0.5,0c-0.5-0.1-0.5-0.1-0.4-0.4c0.1-0.1,0.3-0.3,0.4-0.3c0.4-0.1,0.3-0.4-0.1-0.3c-0.3,0-0.5,0.1-0.8,0.1
	c-0.3,0-0.5,0-0.8,0c-0.3,0-0.5,0-0.8,0c-0.4,0.1-1.4,0-1.4-0.1c0,0,0-0.3,0-0.5c0-0.3,0-0.4,0.3-0.3c0.1,0.1,0.5,0.1,0.9,0
	c0.4,0,1.1,0,1.6,0s0.9,0,1.1,0c0.1,0,0.4,0,0.8,0c0.7,0.1,0.8,0.5,0.1,0.7c-0.3,0-0.4,0.1-0.4,0.3c0,0.1,0,0.3,0.3,0.1
	c0.3,0,0.4-0.1,0.4-0.3c0-0.1,0.3-0.1,0.4,0c0.3,0,0.7,0.1,0.9,0.1c0.4,0,0.5,0.1,0.7,0.3C78.6,61.1,78.5,61.1,78.2,61z M79.4,61
	c-0.1,0-0.1-0.1-0.1-0.1s0.1-0.1,0.3-0.1s0.1,0,0.1,0.1C79.7,61,79.5,61,79.4,61z M80.2,60.5c-0.1,0-0.4,0-0.4,0
	c-0.1-0.1,0.3-0.4,0.5-0.3C80.8,60.3,80.6,60.5,80.2,60.5z M80.4,5.1c-0.1,0-0.1,0-0.1-0.1c0-0.1,0.1-0.1,0.3-0.3
	c0.1,0,0.1,0,0.1,0.1C80.6,4.9,80.5,5.1,80.4,5.1z M84.2,60.3c-0.1,0-0.5,0-0.7-0.1c-0.1-0.1-0.8,0-1.5,0.1
	c-0.7,0.1-1.2,0.3-1.2,0.1c-0.1-0.1,1.2-0.8,1.5-0.8s0.4,0,0.8,0c0.1,0,0.7,0,0.9,0C84.7,59.8,84.9,60.1,84.2,60.3z M86.9,4.2
	c-0.1,0-0.1-0.1-0.1-0.1s0.1-0.1,0.3-0.1s0.1,0,0.1,0.1C87.1,4.2,87.1,4.2,86.9,4.2z M89.5,4.8c-0.1,0-0.3-0.1-0.3-0.1
	s0.1-0.1,0.3-0.1c0.1,0,0.3,0,0.3,0.1C89.8,4.8,89.6,4.8,89.5,4.8z M96.6,3.8c0.3-0.1,0.4-0.3,0.3-0.3c0-0.1,0-0.1,0.1,0
	c0.3,0.3,0,0.8-0.5,0.8C96.1,4.2,96.1,3.9,96.6,3.8z M96.2,3.3C96.3,3.3,96.3,3.3,96.2,3.3c-0.1,0.1-0.1,0.1-0.1,0.3
	c0,0.1,0,0.1-0.1,0.1C95.7,3.5,95.9,3.3,96.2,3.3z M97.4,66.8c-0.1,0.3-0.1,0.4-0.3,0.3c-0.1-0.3-0.5-0.3-0.5-0.1
	c-0.1,0.4-0.8,0.4-0.9,0.1c-0.1-0.3-0.1-0.3,0.1-0.4c0.1-0.1,0.3-0.3,0.1-0.3c0,0-0.1-0.1-0.3-0.1c-0.1,0-0.3-0.1-0.3-0.1
	c-0.1,0,0-0.1,0.3-0.1c0.5-0.1,0.7,0.3,0.4,0.7c-0.1,0.3-0.1,0.4,0.1,0.4c0.1,0,0.3,0,0.3,0c-0.1-0.1,0.8-0.9,1.1-0.8
	C97.5,66.3,97.5,66.5,97.4,66.8z M98.5,63.8C98.4,64,98.1,64,98.1,64s-0.1-0.1,0-0.3c0-0.1,0.3-0.3,0.4-0.1
	C98.8,63.5,98.8,63.5,98.5,63.8z M125,69.5c-0.3,0-0.3-0.1-0.1-0.3c0.1-0.1,0.3,0,0.4,0C125.5,69.5,125.4,69.5,125,69.5z
	 M129.7,67.7c-0.1,0.1-0.3,0.1-0.3,0.1l-0.1-0.1c0-0.1,0.1-0.1,0.3-0.1C129.7,67.6,129.7,67.7,129.7,67.7z M137.4,68.4
	c-0.1,0.1-0.3,0.1-0.3,0.1c-0.3,0-0.1-0.3,0.1-0.4C137.6,68.2,137.6,68.3,137.4,68.4z M138.1,68.4c-0.3,0.1-0.3,0.1-0.3-0.1
	c0.1-0.1,0.3-0.3,0.4-0.3C138.5,68,138.5,68.3,138.1,68.4z M138.6,3.5c-0.1,0.1-0.3,0.1-0.3,0.1c-0.1,0-0.1-0.1-0.1-0.1
	c0-0.1,0.1-0.1,0.3-0.1C138.6,3.4,138.8,3.5,138.6,3.5z M141.1,67.5c-0.3-0.1-0.3-0.1,0-0.4c0.3-0.1,0.4-0.1,0.4,0
	C141.6,67.5,141.5,67.6,141.1,67.5z M142.5,67.5c-0.3,0-0.5-0.1-0.7-0.3c0-0.1,0-0.1,0.1,0c0.1,0.1,0.5,0.1,0.9,0.1
	c0.4,0,0.8,0,0.8,0.1C143.9,67.6,143.3,67.6,142.5,67.5z M144.3,67.1c-0.1,0-0.3,0-0.4-0.1c-0.1,0,0-0.1,0.3,0
	C144.5,67,144.5,67.1,144.3,67.1z M146.3,67.3c-0.1,0-0.3,0-0.3,0.1c0,0.1-0.1,0.1-0.3,0c-0.1-0.1-0.3-0.1-0.4,0
	c-0.1,0.1-0.5,0.1-0.4,0c0-0.1,1.2-0.4,1.5-0.4c0.1,0,0.3,0.1,0.3,0.3C146.5,67.3,146.4,67.3,146.3,67.3z M149,67
	c-0.1,0-0.4,0-0.4,0c-0.1-0.1,0.3-0.4,0.5-0.3C149.5,66.7,149.4,67,149,67z M150.2,67.3c-0.1,0.1-0.3,0.1-0.3,0.1
	c-0.1,0-0.1-0.1,0-0.1c0.1-0.1,0.3-0.1,0.3-0.1C150.3,67.2,150.3,67.2,150.2,67.3z M151.9,66.8c-0.1,0.1-0.7,0.1-1.1,0
	c-0.4-0.1-0.8-0.1-0.8-0.3c0-0.1,0.3-0.1,0.4,0c0.3,0,0.7,0.1,1.1,0.1C152,66.7,152,66.8,151.9,66.8z M164.4,67.2
	c-0.1,0.1-0.4,0.1-0.4,0.1s-0.1,0-0.1,0.1c0,0.1-0.1,0.1-0.1,0c0-0.1-0.3-0.1-0.4,0c-0.1,0.1-0.3,0.1-0.3,0c0,0-0.4,0-0.8,0
	c-0.4,0-1.6,0.1-2.6,0.1c-0.9,0-1.9,0.1-2.1,0.1c-0.3,0-0.4,0-0.1-0.3c0.1-0.3,0.1-0.3-0.4-0.3c-0.4,0-0.5,0-0.4-0.3
	c0-0.3,0.1-0.3,0.4-0.1c0.1,0.1,0.5,0.1,0.7,0.1c0.7-0.1,2.5,0,2.7,0.3c0.1,0.1,0.3,0.1,0.3,0.1c0-0.3,0.1-0.4,0.3-0.1
	c0.1,0.3,0.1,0.3,0.1,0c0.1-0.3,0.5-0.4,0.9-0.1c0.1,0.1,0.5,0.1,0.8,0.1s0.8,0,1.2,0C164.5,67.1,164.7,67.1,164.4,67.2z
	 M209.2,70.2c0.1,0,0.1,0.1,0.1,0.1c0,0.1-0.1,0.1-0.1,0.1l-0.1-0.1C209,70.2,209,70.2,209.2,70.2z M208.5,70.2
	c0.1-0.1,0.1,0,0.3,0.1c0.1,0.3,0,0.4-0.3,0.1C208.5,70.5,208.5,70.3,208.5,70.2z M207.8,70.7c0.1-0.1,0.3-0.1,0.3-0.1
	c0.3,0,0.1,0.1-0.1,0.1C207.8,70.9,207.7,70.9,207.8,70.7z M207.1,70.7c0.1,0,0.1,0,0.1,0.1c0,0.1-0.1,0.1-0.3,0.1
	c-0.1,0-0.1,0-0.1-0.1C206.9,70.7,207,70.7,207.1,70.7z M180.2,68c0.3,0.1-0.1,0.3-0.9,0.3c-0.4,0-0.5-0.1-0.5-0.1
	C178.8,67.9,179.8,67.9,180.2,68z M173.1,66.1c0.1-0.3,1.1-0.5,1.2-0.4c0.3,0.1,0.1,0.3-0.5,0.4C173.1,66.3,173.1,66.3,173.1,66.1z
	 M170.4,68.3c-0.4,0-0.8,0-1.1,0c-0.4,0-1.2-0.1-1.2-0.3c0-0.1,1.6-0.3,2.3-0.1c0.1,0,0.4,0,0.5,0c0.1,0,0.3,0,0.3,0
	C171.4,68.2,171.1,68.4,170.4,68.3z M174.7,68.7c-0.1,0.1-0.4,0.1-0.5,0.1c-0.1,0-0.3-0.3-0.4-0.4c-0.1-0.1-0.1-0.3-0.3-0.1
	c0,0.1-0.3,0.1-0.5,0.1c-1.4,0-1.4,0-1.2-0.3c0.1-0.1,0.3-0.3,0.4-0.3c0.1,0,0.3,0,0.4,0c0,0,0.3,0,0.4,0c1.1,0,1.2,0.1,1.4,0.3
	c0,0.1,0.1,0.1,0.3,0c0.3-0.1,0.3-0.1,0.4,0.1C174.9,68.4,174.9,68.6,174.7,68.7z M175.5,69.3c-0.5-0.1-0.4-0.5,0.1-0.4
	c0.3,0,0.4,0.1,0.3,0.3C175.9,69.3,175.8,69.3,175.5,69.3z M176.4,66.3c-0.5-0.1-1.1-0.1-1.2-0.1c-0.1,0-0.3-0.1-0.3-0.4
	c0-0.3,0.1-0.3,1.2-0.3c0.7,0.1,1.6,0.1,2.1,0.1c0.4,0,0.8,0,0.8,0s0,0.3-0.1,0.4c-0.1,0.4-0.3,0.4-0.8,0.4
	C177.7,66.5,177,66.4,176.4,66.3z M180.4,70.2c-0.3,0-0.7,0-1.1,0c-0.4,0-0.7,0-0.8,0c-0.1,0-0.3,0-0.4-0.1
	c-0.1-0.1-0.3-0.1-0.3-0.1c0,0.1-0.3,0.1-0.5,0c-0.5-0.1-0.5-0.4,0-0.4c0.5,0,1.8,0.1,2.7,0.3C180.9,69.8,181.1,70.2,180.4,70.2z
	 M183.1,66.4c-0.5,0.1-3.3,0.1-3.4,0c-0.1-0.1,0.9-0.7,1.5-0.5c0.8,0.1,1.1,0.1,1.2,0c0.3-0.1,1.2,0.1,1.1,0.3
	C183.7,66.1,183.4,66.3,183.1,66.4z M184.4,65.6c-0.5,0-0.7-0.1-0.5-0.1c0.1-0.1,0.7-0.1,1.1,0C186,65.4,185.6,65.6,184.4,65.6z
	 M185.7,66.3c-0.1,0-0.3-0.1-0.3-0.1c0-0.1,0.3-0.1,0.5-0.1C186.4,66,186.2,66.3,185.7,66.3z M188.3,67.2c-0.4,0-0.7,0-0.5-0.1
	c0.1-0.1,0.9-0.1,0.8,0C188.7,67.1,188.4,67.2,188.3,67.2z M208.5,36.7c-0.1,0-0.1-0.1-0.1-0.1c0-0.1,0.1-0.1,0.1,0
	c0.1,0.1,0.1,0.1,0.1,0.1C208.7,36.7,208.6,36.7,208.5,36.7z M211.3,13.2c-0.3,0-0.4,0-0.3-0.1c0.1-0.3,0.8-0.1,0.7,0
	C211.7,13.2,211.5,13.2,211.3,13.2z M212.4,13.4c-0.1,0-0.1-0.1-0.1-0.1s0.1-0.1,0.3-0.1s0.1,0,0.1,0.1
	C212.7,13.2,212.6,13.4,212.4,13.4z M216.8,11.6c-0.1,0.1-0.3,0.3-0.4,0.4c-0.1,0-0.1,0,0-0.1c0.1-0.1,0.1-0.1,0-0.1
	c-0.3,0-0.7,0.1-0.8,0.4c-0.1,0.3-0.1,0.3-0.1-0.1c0-0.3,0-0.4-0.1-0.4c-0.1,0-0.3-0.1-0.3-0.3c0-0.3,0.1-0.3,0.7-0.1
	c0.4,0.1,0.8,0.1,0.9,0.1C217,11.3,217,11.3,216.8,11.6z M219.3,14.2c-0.1,0-0.1,0-0.1-0.1c0,0,0.1-0.1,0.3-0.1c0.1,0,0.1,0,0.1,0.1
	C219.4,14.2,219.3,14.3,219.3,14.2z M220.5,12.8c-0.1,0-0.3-0.1-0.3-0.3c0-0.1,0.1-0.1,0.3-0.1c0.1,0,0.4,0.1,0.3,0.3
	C220.8,12.8,220.6,12.8,220.5,12.8z M273.8,73.3c0.3,0,0.4,0.3,0.3,0.4c0,0-0.1,0-0.3-0.1C273.7,73.3,273.7,73.3,273.8,73.3z
	 M273.6,74c0.3,0.3,0.1,0.3-0.4,0.1c-0.4-0.1-0.4-0.1-0.1-0.3C273.3,73.9,273.4,73.9,273.6,74z M299.6,56c0,0.1-0.1,0.1-0.3,0.1
	c-0.1,0-0.1-0.1-0.1-0.1s0.1-0.1,0.3-0.1C299.6,55.9,299.8,55.9,299.6,56z M304.7,50.1c0.1,0,0.1,0.1,0.1,0.1c0,0.1-0.1,0.1-0.3,0.1
	c-0.1,0-0.3-0.1-0.1-0.1C304.6,50.2,304.7,50.1,304.7,50.1z M305.6,46.9c0,0-0.3,0-0.4,0c-0.3,0-0.3,0-0.3-0.3
	c0-0.3,0.1-0.3,0.4-0.3c0.1,0,0.3,0.1,0.3,0.3C305.8,46.9,305.8,47.1,305.6,46.9z M309.9,43.1c0.1,0,0.4,0,0.4-0.1
	c0.1-0.3,0.5,0,0.4,0.3c0,0.1-0.1,0.1-0.3,0.1c-0.1-0.1-0.3-0.1-0.3,0c-0.1,0.1-0.3,0.1-0.4,0C309.6,42.9,309.6,42.9,309.9,43.1z
	 M308.9,40.4c0.1,0.3,0,0.5-0.1,0.3c-0.1-0.1-0.1,0-0.3,0.1c0,0.1-0.1,0.1-0.4,0c-0.3-0.1-0.3-0.1,0-0.3c0.1-0.1,0.3-0.1,0.1-0.1
	c-0.1,0,0-0.1,0.1-0.1C308.8,40.2,308.9,40.2,308.9,40.4z M311.9,34.8c-0.1,0-0.1-0.1-0.1-0.4c0-0.3,0-0.3,0.1-0.1
	C312.2,34.6,312.2,34.9,311.9,34.8z M312.6,36.8c0.1,0,0.1,0.1,0.1,0.1c0,0.1-0.1,0.1-0.3,0.1c-0.1,0-0.1-0.1-0.1-0.1
	C312.3,36.8,312.5,36.7,312.6,36.8z"/>
<path class="st0" d="M313.2,39.3c0,0.1,0,0.1,0.1,0.3c0.1,0,0.1,0,0.1,0s0-0.1-0.1-0.3C313.3,39.1,313.3,39.1,313.2,39.3z"/>
<path class="st0" d="M313.3,38.5c0.3-0.1,0.3-0.3,0-0.1c-0.3,0-0.4,0-0.5,0c-0.1,0-0.1,0-0.1,0.1C312.5,38.7,312.9,38.7,313.3,38.5z
	"/>
<path class="st0" d="M312.5,40.9c-0.1,0-0.3,0.1-0.3,0.1C312.3,41,312.5,41,312.5,40.9C312.7,40.9,312.7,40.8,312.5,40.9z"/>
<path class="st0" d="M311.9,39.9c-0.4-0.1-0.5-0.1-0.5,0c0,0.1-0.1,0.1-0.1,0.1c-0.1,0-0.1,0-0.1,0.1c0.1,0.1,0.1,0.3,0,0.4
	c-0.1,0,0,0.1,0.1,0c0.1,0,0.3,0,0.4,0.1c0,0.1,0.1,0.3,0.3,0.1c0.1,0,0-0.3-0.1-0.5c-0.1-0.3-0.3-0.4-0.3-0.4s0.3,0,0.5,0
	C312.6,40.4,312.6,40.2,311.9,39.9z"/>
<path class="st0" d="M311,44.7c0,0.1,0,0.3,0.1,0.3c0.1,0,0.1,0,0.1-0.1c0-0.1,0-0.1-0.1-0.3C311.1,44.5,311.1,44.6,311,44.7z"/>
<path class="st0" d="M312.2,39.3c0,0,0,0.1,0.1,0.1c0.1,0,0.1,0,0.3-0.1c0-0.1,0-0.1-0.1-0.1C312.3,39.1,312.2,39.3,312.2,39.3z"/>
<path class="st0" d="M310.4,44.3c-0.1,0,0,0.1,0.1,0.1c0.3,0,0.4,0,0.1-0.1C310.6,44.2,310.4,44.2,310.4,44.3z"/>
<path class="st0" d="M310.4,39.1c0.1,0.1,0.3,0.1,0.4,0c0.1,0,0-0.1-0.3-0.1C310.3,39,310.3,39,310.4,39.1z"/>
<path class="st0" d="M307,50.3c-0.1,0.1-0.1,0.3,0,0.3c0.3,0,0.5-0.4,0.3-0.4C307.3,50.2,307.1,50.2,307,50.3z"/>
<path class="st0" d="M306.9,51.1c-0.1,0-0.4,0-0.4,0s0.1,0.1,0.3,0.3c0.1,0.1,0.4,0.1,0.4,0C307.3,51.3,307.1,51.1,306.9,51.1z"/>
<path class="st0" d="M307.1,47.7c-0.1,0.1,0,0.3,0.4,0.1c0.3-0.1,0.3-0.1,0-0.1C307.4,47.7,307.3,47.7,307.1,47.7z"/>
<path class="st0" d="M302.6,54.4c0,0,0.1,0,0.1-0.1c0-0.1,0-0.3-0.1-0.1C302.6,54.3,302.6,54.4,302.6,54.4z"/>
<path class="st0" d="M302.9,52.6c-0.1,0-0.1,0-0.1,0.1s0.1,0.1,0.1,0.1s0.1,0,0.1-0.1C303,52.8,302.9,52.8,302.9,52.6z"/>
<path class="st0" d="M302.5,53c-0.4-0.3-0.4-0.3-0.4,0c0,0.1-0.1,0.3-0.3,0.4c-0.1,0.1-0.1,0.1,0.3,0.1
	C302.6,53.4,302.8,53.3,302.5,53z"/>
<path class="st0" d="M299.5,57.1c0,0.4,0.1,0.4,0.3,0.1c0-0.1,0-0.3-0.1-0.4C299.6,56.8,299.5,57,299.5,57.1z"/>
<path class="st0" d="M298.4,58.1C298.1,58.1,298.1,58.2,298.4,58.1c0.3,0.1,0.5,0,0.5-0.1c0.1-0.1,0-0.1,0-0.1
	C298.7,58.1,298.6,58.1,298.4,58.1z"/>
<path class="st0" d="M281.8,76.2c-0.3,0-0.3,0-0.1,0.1c0.1,0.1,0.3,0.1,0.4,0C282,76.3,281.9,76.2,281.8,76.2z"/>
<path class="st0" d="M279.6,77.9c-0.1,0-0.3-0.1-0.1-0.1c0.3-0.3-0.8-0.3-1.2-0.1c-0.3,0.1-0.3,0.1-0.3,0c0-0.1,0-0.3,0-0.3
	c0-0.1-4.4-1.1-4.5-0.9c-0.1,0.1,0.3,0.3,0.4,0.3c0,0,0.3,0.1,0.4,0.3c0.4,0.4,4.1,1.2,4.1,0.9c0-0.1,0.3,0,0.7,0.1
	c0.3,0.1,0.5,0.1,0.7,0.1C279.8,78,279.7,78,279.6,77.9z"/>
<path class="st0" d="M278.9,79.2c0,0.1,0,0.3,0.3,0.3c0.1,0,0.3,0,0.3-0.1c0-0.1-0.1-0.3-0.3-0.3C279.1,78.9,279,79.1,278.9,79.2z"
	/>
<path class="st0" d="M281.2,66.8C281.2,67,281.2,67,281.2,66.8c0.1,0,0.5,0,0.8,0c0.8,0.1,0.8,0,0-0.1
	C281.8,66.5,281.4,66.7,281.2,66.8z"/>
<path class="st0" d="M277.5,83c0.1,0,0.3,0.1,0.4,0.1c0.1,0,0-0.1-0.3-0.1C277.4,83,277.4,83,277.5,83z"/>
<path class="st0" d="M275.5,74.7c0,0.1-0.1,0.3-0.3,0.3c-0.1,0-0.1,0,0,0.1c0.1,0,0.4,0,0.4,0c0.1-0.1,0.3,0,0.5,0.1
	c0.1,0.1,0.8,0.3,1.4,0.4c0.7,0.1,0.9,0.1,1.4-0.1c0.3-0.3,0.4-0.3,0.3,0c0,0.1,0,0.3,0.4,0.4c0.5,0.1,0.5,0.1,0.3-0.3
	c-0.3-0.4-0.8-0.7-1.2-0.5c-0.1,0-0.3,0-0.3,0s-0.1,0-0.4,0c-0.3,0-0.4,0-0.4-0.1c0-0.1-0.1-0.1-0.3,0c-0.1,0.3-0.3,0.3-0.4-0.1
	c-0.1-0.3-0.3-0.3-0.3-0.3c0,0.1-0.3,0.1-0.5,0C275.6,74.4,275.5,74.4,275.5,74.7z"/>
<path class="st0" d="M278.6,78.5c-0.1,0-0.4,0-0.4,0s0.1,0.1,0.3,0.3c0.1,0.1,0.4,0.1,0.4,0C278.9,78.7,278.8,78.5,278.6,78.5z"/>
<path class="st0" d="M278.6,79.1c-0.1,0-0.3-0.1-0.4-0.3c-0.3-0.4-0.8-0.7-0.8-0.4c0,0.1-0.1,0.1-0.3,0c-0.1-0.1-0.3,0-0.3,0.1
	c0,0.1-0.1,0.3-0.3,0.3c-0.1,0-0.1-0.1,0-0.3c0.3-0.3-0.4-0.5-0.7-0.3c-0.4,0.3-0.8,0.1-0.7-0.3c0.1-0.3-0.3-0.4-0.4-0.1
	c0,0.1-0.5,0.1-1.1,0c-0.5-0.1-0.9-0.3-0.9-0.3c0.1-0.1-0.4-0.3-0.8-0.1c-0.1,0-0.9,0-1.8-0.1c-0.8-0.1-1.6-0.3-2.1-0.3
	c-0.3,0-0.5,0-0.7,0c0,0-0.3,0-0.4-0.1c-0.3-0.1-0.4-0.1-0.4,0c0,0.1-0.3,0.1-0.5,0c-0.3,0-1.1-0.1-1.6-0.3
	c-1.2-0.1-1.8-0.1-3.7-0.4c-0.7-0.1-1.6-0.1-1.9-0.1c-0.4,0-0.8,0-0.9-0.1c-0.1,0-0.4,0-0.4,0c-0.3,0-3-0.5-3.3-0.7
	c-0.3-0.1-0.4-0.1-0.7,0c-0.1,0.1-0.5,0.1-0.8,0c-0.3-0.1-0.7,0-0.7,0c-0.1,0.1-0.4,0.1-0.7,0c-0.3,0-0.7,0-0.8,0.1
	c-0.3,0.3-0.3,0.3-0.4-0.1c-0.1-0.1-0.3-0.4-0.4-0.4c-0.1,0-0.1,0,0,0.1c0.1,0.1,0,0.3-0.3,0.3c-0.3,0.1-0.4,0.1-0.3,0
	c0.3-0.3-0.9-0.7-1.5-0.4c-0.4,0.1-0.5,0.1-0.5,0c0-0.1-0.1-0.1-0.4,0c-0.3,0.1-0.3,0.1-0.3,0c0.1-0.1,0.1-0.1,0-0.1
	c-0.1,0-0.3,0-0.3,0.1c-0.1,0.1-0.4,0.1-0.8,0c-0.4-0.1-0.7,0-0.7,0c0,0.1-0.1,0.1-0.3,0.3c-0.1,0-0.1,0-0.1-0.1
	c0.1-0.1,0-0.1-0.5-0.3c-0.4-0.1-0.7-0.1-0.7,0c0,0.3-0.1,0.4-0.3,0.1c-0.1-0.1-0.3-0.3-0.4-0.1c-0.1,0-0.7,0-1.4-0.1
	c-0.5-0.1-1.4-0.1-1.6-0.1c-0.4,0-0.5,0-0.4-0.1c0-0.1-0.1-0.1-0.4,0.1c-0.3,0.1-0.4,0.1-0.5,0.1c0-0.1-0.4-0.1-0.8-0.1
	c-1.4,0-3-0.3-3-0.4c0-0.1,0.1-0.1,0.3-0.1c0.1,0,0.1,0,0.1,0s-0.4-0.1-0.7,0c-0.4,0-1.1,0-1.6-0.1c-0.5-0.1-1.5-0.1-2.2-0.1
	c-1.5-0.1-2.1-0.3-2.5-0.7l-0.4-0.4h0.5c0.8,0,1.1-0.1,0.3-0.1c-0.3,0-0.7,0-0.7,0c-0.1,0-0.4,0-0.8,0c-0.4-0.1-0.8-0.1-0.9,0
	c-0.3,0.1-0.3,0.1,0.1,0.1c0.5,0,1.1,0.5,0.7,0.7c-0.1,0.1-1.6-0.1-2.1-0.3c-0.5-0.3-0.7-0.1-0.4,0.1c0.4,0.4,0.7,0.4,1.8,0.5
	c0.7,0,0.8,0.1,0.7,0.3c0,0.1-0.1,0.3-0.4,0.3s-0.3,0-0.3-0.1c0-0.1-0.1-0.1-0.4-0.1c-0.3,0-0.4,0-0.4,0.1c0,0.1-0.3,0-0.5-0.1
	c-0.4-0.1-0.5-0.1-0.7,0c-0.1,0.1-0.1,0.1-0.3,0c-0.1-0.1-0.1-0.1-0.1,0c0,0.3-0.3,0.3-0.9,0c-0.5-0.1-0.9-0.1-1.1-0.1
	c-0.1,0,0.1,0.1,0.4,0.1c0.3,0,0.4,0.1,0.4,0.3c-0.1,0.1-1.1,0-1.4-0.3c-0.1-0.1-0.3-0.1-0.3,0c0,0.1-0.5,0-1.2-0.1
	c-0.7-0.1-1.1-0.1-1.1-0.1c0,0.1,0,0.1-0.1,0.1c-0.1,0-0.1-0.1-0.1-0.3c0-0.1-0.3-0.3-0.7-0.3c-0.8,0-0.9,0.1-0.1,0.3
	c0.7,0,0.7,0.4,0,0.4c-1.1,0-1.4-0.1-1.4-0.3c0-0.1,0.1-0.1,0.3-0.1c0.1,0,0.3,0,0.3,0c-0.1-0.1-2.5-0.1-2.5,0
	c0,0.1-0.3,0.1-0.5,0.3c-0.4,0.1-0.4,0.1,0,0.3c0.3,0,0.5,0,0.5,0c0-0.1,0.1-0.1,0.3-0.1s0.1,0.1,0,0.1c-0.1,0.1,0,0.1,0.3,0.1
	s1.1,0.1,1.8,0.1c0.7,0.1,1.5,0.1,1.9,0.1c0.4,0,1.2,0,1.8,0c0.7,0,1.4,0.1,1.5,0.1c0.8,0,1.4,0.1,2.2,0.3c0.5,0.1,0.8,0.1,0.7-0.1
	c0-0.1,0-0.1,0.1,0.1c0.1,0.1,0.3,0.3,0.1,0.1c0-0.1,0-0.1,0.3-0.1c0.3,0.1,0.4,0.1,0.1,0.3c-0.1,0.1-0.3,0.1-0.4,0.1
	c0,0-0.3-0.1-0.4,0c-0.1,0-0.4,0-0.7,0c-0.3,0-0.9-0.1-1.5-0.1c-1.5-0.1-4.8-0.4-4.9-0.3c0,0,0.4,0.1,1.1,0.3
	c0.7,0.1,1.5,0.3,1.6,0.3c0.3,0,0.4,0,0.4-0.1c-0.1-0.3,0.1-0.1,0.4,0.1c0.3,0.1,0.4,0.3,0.5,0.1c0.1,0,0.3,0,0.4,0
	c0.1,0.1,2.6,0.3,2.6,0.1c0,0,0.3,0,0.5,0c0.3,0.1,0.5,0.1,0.7,0c0.1-0.1,0.3,0,0.4,0c0.1,0.1,0.3,0.1,0.3,0s0.1-0.1,0.4-0.1
	c1.2,0.3,2.6,0.4,3,0.4c0.4,0,1.2,0.1,3.5,0.4c0.3,0,0.4,0.1,0.4,0.1c-0.1,0.1,0.8,0.1,1.4,0c0.5-0.1,0.7-0.1,0.5,0
	c-0.1,0.1,0,0.3,0.4,0.1c0.3-0.1,0.3-0.1,0.1-0.3c-0.3-0.3,0.1-0.5,0.5-0.3c0.3,0.1,0.4,0.1,0.4,0c0-0.1,0.1-0.1,0.3,0.1
	c0.1,0.3,0.3,0.3,0.4,0.1c0.1-0.1,0.3-0.1,0.1,0.1c0,0.3,0,0.3,0.5,0.3c0.3,0,0.7,0,0.8-0.1c0.1-0.1,0.1-0.1,0.1,0
	c0,0.1,0,0.3,0.1,0.3c0.1,0,0.1,0,0.1-0.1c0-0.1,0-0.3,0.1-0.3c0.1-0.1,0.3-0.1,0.1,0.1c0,0.1,0,0.3,0.3,0.3c0.1,0,0.3,0,0.3,0.1
	c0,0.1,0.3,0.1,0.5,0.3c0.4,0,0.5,0,0.5-0.1c0-0.1-0.1-0.3-0.1-0.3c-0.1,0-0.1-0.1-0.1-0.1c0-0.1,0.1-0.1,0.3-0.1
	c0.1,0,0.3,0.1,0.1,0.1c-0.1,0,0,0.3,0.1,0.4c0.3,0.3,1.6,0.4,1.9,0.3c0.1,0,0.4-0.1,0.7-0.1c1.4,0.1,2.6,0.3,3.3,0.4
	c0.5,0.1,0.7,0.1,0.8-0.1c0-0.1,0.1-0.1,0.4,0c0.1,0.1,0.7,0.3,1.1,0.4c0.7,0.1,0.8,0.1,0.8-0.1c0-0.3,0.1-0.3,0.5,0
	c0.3,0.1,0.4,0.3,0.4,0.1c0.1-0.1,1.9,0.3,2.2,0.4c0.1,0.1,0.3,0.1,0.4,0c0.1-0.1,0.5,0,0.8,0c1.1,0.3,2.9,0.4,3,0.3
	c0-0.1,0.1-0.1,0.1,0c0,0.1,0.1,0.3,0.3,0.1c0.1,0,0.5,0,0.9,0.1c0.9,0.1,1.2,0.1,0.9-0.1c-0.1-0.1-0.1-0.1,0.1,0
	c0.3,0.1,0.4,0.1,0.4,0c0-0.1,0.1-0.1,0.3,0c0.3,0.3,0.7,0.4,1.4,0.5c1.1,0.1,1.2,0.1,1.2,0c0-0.3,0.5-0.4,1.6-0.3
	c0.5,0.1,1.1,0.1,1.2,0.1c0.1,0,0.8,0,1.4,0.1c2.1,0.3,2.9,0.4,4.4,0.4c0.8,0,1.4,0.1,1.4,0.1c-0.1,0,0.1,0.1,0.4,0.1
	c0.4,0,0.5,0,0.5-0.3c0-0.3,0-0.3,0.1,0c0.1,0.4,0.4,0.4,0.4,0c0-0.3,0-0.3,0.3-0.1c0.1,0.1,0.1,0.3,0.1,0.3c-0.1,0.1,0,0.1,0,0.1
	c0.1,0,0.3,0.1,0.4,0.1c0.1,0,0.3,0.1,0.3,0c0-0.1-0.1-0.1-0.3-0.3c-0.1,0-0.3-0.1-0.1-0.1c0.1-0.1,0.4,0,0.7,0.1
	c0.3,0.1,0.4,0.1,0.4,0.1c0-0.1,0.1-0.3,0.3-0.3c0.1-0.1,0.3-0.1,0.3,0c0,0.1,0.1,0,0.3-0.1c0.1-0.1,0.3-0.1,0.5,0
	c0.4,0.3,0.7,0.4,0.7,0.1C278.8,79.1,278.8,79.1,278.6,79.1z M226.1,72.1c-0.3-0.1-0.3-0.3,0.1-0.1c0.1,0,0.3,0.1,0.3,0.3
	C226.5,72.1,226.2,72.1,226.1,72.1z M226.5,74.6c-0.1-0.1-0.1-0.1,0.1-0.1c0.1,0,0.3,0.1,0.3,0.1C226.8,74.6,226.6,74.6,226.5,74.6z
	 M229.5,73.2c0.4,0,0.4,0.3,0.1,0.3c-0.1,0-0.3,0-0.4-0.1C229.2,73.2,229.2,73.2,229.5,73.2z M228.4,75c-0.1,0-0.1-0.1-0.1-0.1
	s0.1-0.1,0.3-0.1c0.1,0,0.1,0,0.1,0.1C228.7,75,228.6,75,228.4,75z M233.5,74.9c-0.3,0-0.5,0-0.8,0.1c-0.3,0.3-0.3,0.1-0.1,0
	c0.1-0.3,0.1-0.3-0.3-0.1c-0.3,0.1-0.7,0.1-0.9,0c-0.3-0.1-0.7-0.1-0.7,0c-0.1,0.1-0.3,0.1-0.4,0c-0.1-0.1-0.3-0.1-0.3,0
	c0,0.1-0.4,0-0.7-0.1c-0.5-0.1-0.8-0.1-0.9,0c-0.3,0.1-0.3,0.1-0.7-0.1c-0.3-0.3-0.4-0.7,0-0.8c0.1,0,0.1,0.1,0,0.3
	c-0.1,0.3-0.1,0.3,0.5,0.1c0.4,0,0.7,0,0.7,0c0,0.1,0,0,0.1-0.1c0.1-0.1,0.3-0.1,0.4,0c0.1,0.1,0.3,0.3,0.5,0.1
	c0.7-0.1,3.1,0.1,3.5,0.4l0.4,0.1L233.5,74.9z M242.1,76.3C241.6,76.3,241.6,76.2,242.1,76.3c0.1-0.1,0.3-0.1,0.3-0.3
	c0-0.1,0.1-0.1,0.1,0C242.7,76.3,242.5,76.5,242.1,76.3z M243.2,76.3l-0.1-0.1c0-0.1,0-0.1,0.1-0.1c0.1,0,0.1,0.1,0.1,0.1
	L243.2,76.3z M243.2,74.9c-0.1-0.1-0.3-0.1-0.3-0.3c0,0,0.1,0,0.3,0c0.1,0,0.3,0.1,0.3,0.3C243.4,75,243.3,75,243.2,74.9z
	 M245.9,75.5c-0.1-0.1-0.1-0.1-0.1-0.3c0-0.1,0.1-0.1,0.1,0c0.1,0.1,0.1,0.1,0.1,0.3C246.2,75.5,246,75.5,245.9,75.5z M247.8,75.3
	c-0.1,0-0.3-0.1-0.1-0.1c0.1-0.1,0.3-0.1,0.3,0C248.2,75.3,248.1,75.4,247.8,75.3z M251.3,76.6c0,0.1-0.1,0.3-0.1,0.1
	C251.1,76.8,251.1,76.6,251.3,76.6C251.3,76.3,251.3,76.5,251.3,76.6z"/>
<path class="st0" d="M277.4,81.4c-0.4,0.3-0.5,0.4,0,0.1c0.3-0.1,0.5-0.1,0.7-0.1c0.3,0,0.3,0,0-0.1
	C277.8,81.3,277.5,81.3,277.4,81.4z"/>
<path class="st0" d="M277.8,79.2c-0.1,0-0.3,0-0.3,0.1c0,0.1,0,0.3,0.1,0.3c0.1,0,0.3,0,0.3,0s0-0.1-0.1-0.1c-0.1,0-0.1-0.1,0-0.1
	C278,79.4,277.9,79.2,277.8,79.2z"/>
<path class="st0" d="M278.2,74.4c0-0.1-0.3-0.1-0.4-0.1c-0.3,0-0.3,0-0.3,0.3c0,0.1,0.1,0.4,0.3,0.4
	C278.2,74.9,278.4,74.6,278.2,74.4z"/>
<path class="st0" d="M275.6,81.1c-0.1,0.1,0,0.3,0.3,0.3c0.1,0,0.1,0,0-0.1C275.9,81.1,275.8,81.1,275.6,81.1z"/>
<path class="st0" d="M274.9,81.4c-0.3,0-0.4,0-0.3-0.1c0-0.1-0.1-0.1-0.3-0.3c-0.3,0-0.3,0-0.1,0.1c0.1,0.1,0.1,0.3,0,0.3
	c-0.1,0,0,0.1,0.1,0.1c0.3,0,0.1,0,0,0.1c-0.1,0-0.3,0.1-0.1,0.1c0.1,0,0.4,0,0.5-0.1c0.4-0.3,0.8-0.3,0.7,0c0,0.1,0,0.1,0.1,0.1
	c0.3,0,0.3-0.4,0-0.5C275.4,81.4,275.1,81.4,274.9,81.4z"/>
<path class="st0" d="M274,82.2c-0.3,0-0.3,0-0.1,0.1c0.1,0.1,0.3,0.1,0.4,0C274.4,82.3,274.3,82.2,274,82.2z"/>
<path class="st0" d="M276.1,72.5c-0.3,0-0.4,0-0.3,0c0.1,0.1,0.4,0.1,0.5,0.1C276.6,72.7,276.4,72.5,276.1,72.5z"/>
<path class="st0" d="M274,81.6c0-0.1,0-0.1-0.1-0.1s-0.1-0.1,0-0.3c0.1-0.1,0-0.3-0.1-0.3c-0.1,0-0.3,0-0.3,0.3
	c-0.1,0.3-0.1,0.3-0.1,0c-0.1-0.3-0.1-0.3-0.3,0c-0.1,0.1-0.3,0.1-0.3,0.1c-0.1,0-0.3-0.1-0.4,0c-0.3,0.1-1.5-0.1-4.6-0.7
	c-1.2-0.3-3-0.5-3.9-0.7c-0.9-0.1-2.3-0.4-3.3-0.5c-0.9-0.1-1.6-0.3-1.8-0.3c0,0-0.4,0-0.8-0.1c-0.4-0.1-0.8-0.1-0.8,0
	c0,0.1-0.3,0-0.5,0c-0.3-0.1-0.5-0.1-0.7,0c-0.1,0.1-0.1,0.1-0.1,0c0-0.1,0-0.1-0.1-0.1c-0.1,0-0.8,0-1.5-0.1
	c-1.5-0.3-1.9-0.3-1.2,0.1c0.4,0.3,0.7,0.3,0.9,0.3c0.4,0,0.4,0,0.4,0.3c0,0.1,0,0.3-0.1,0.3c-0.1-0.1-0.5,0.1-0.3,0.3
	c0.1,0.1,0.1,0.3,0.1,0.4c0,0.1,0.1,0.1,0.1-0.1c0.1-0.4,0.1-0.4,0.3-0.1c0.1,0.3,0.4,0.3,0.9,0.4c0.5,0.1,0.8,0.1,0.7,0.3
	c0,0.1,0,0.1,0.1,0c0.3-0.1,1.2-0.1,1.1,0c0,0,0.3,0.1,0.7,0.1c0.4,0,1.4,0.1,2.1,0.4c0.9,0.1,1.4,0.3,1.4,0.1c0-0.1,0-0.1,0.1,0
	c0.1,0.1,0.4,0.3,0.9,0.1c0.5,0,0.8,0,0.9,0.1c0.1,0.3,2.1,0.3,2.1,0.1c0,0,0.1-0.1,0.3-0.1c0.1,0,0.1,0.1,0,0.1
	c-0.1,0.1-0.1,0.1,0,0.1c0.1,0,0.5,0,0.9,0.1c0.4,0.1,0.8,0.1,0.8,0c0.1-0.1,1.4,0.1,1.4,0.3c0,0.3,0.4,0.1,0.5,0
	c0.3-0.3,0.9-0.1,0.9,0s0,0.1,0.1,0c0.3-0.3,0.7-0.3,0.4,0c-0.1,0.3-0.1,0.3,0.3,0.1c0.3-0.1,0.5-0.3,0.5-0.4c0-0.1,0.1-0.1,0.1,0
	c0,0.3,0.5,0.4,0.5,0.1c0-0.1,0.3-0.1,0.4,0c0.3,0.1,0.4,0,0.5-0.3c0.1-0.1,0.3-0.3,0.3-0.3C273.8,81.8,273.8,81.8,274,81.6z
	 M255.4,79.9c0,0-0.1,0.1-0.3,0.1c-0.1,0-0.1,0,0-0.1c0.1-0.1,0.1-0.3,0-0.3c-0.1,0-0.3,0-0.3,0.1c0,0.1-0.1,0-0.1-0.3
	c0-0.3,0-0.4,0.1-0.5c0.3-0.3,0.7,0,0.5,0.4C255.4,79.6,255.4,79.9,255.4,79.9z M260.1,80.9c-0.1-0.1-0.1-0.1,0-0.3
	c0.1-0.1,0.3-0.1,0.4,0.1C260.8,81,260.5,81.1,260.1,80.9z"/>
<path class="st0" d="M274.4,74.4c-0.1,0-0.3,0-0.3,0.1c-0.1,0.1-0.1,0.1,0,0.1c0.1,0,0.3,0,0.3-0.1
	C274.5,74.6,274.5,74.4,274.4,74.4z"/>
<path class="st0" d="M267.8,75.7c-0.1,0.1,0.3,0.3,1.8,0.5c1.1,0.1,2.5,0.4,3,0.5c0.5,0.1,1.1,0.1,1.1,0c0-0.1-0.9-0.4-2.7-0.7
	C269.1,75.8,268,75.5,267.8,75.7z"/>
<path class="st0" d="M273.4,75.8c0,0,0-0.1-0.1-0.3c-0.1-0.1-0.1,0-0.1,0c0,0.1,0,0.1,0.1,0.3C273.3,75.9,273.4,75.9,273.4,75.8z"/>
<path class="st0" d="M272.5,75.5c-0.3,0-0.5,0-0.5,0c0,0.1,0.1,0.3,0.7,0.1C273,75.7,273,75.7,272.5,75.5z"/>
<path class="st0" d="M271.5,75.7c0.1,0,0-0.1-0.3-0.1s-0.3,0-0.1,0C271.4,75.7,271.5,75.7,271.5,75.7z"/>
<path class="st0" d="M270.6,75.4c0,0,0-0.1-0.1-0.1c-0.1-0.1-0.1,0-0.1,0c0,0.1,0,0.1,0.1,0.1H270.6z"/>
<path class="st0" d="M269.5,75c-0.1-0.1-0.3-0.1-0.3,0c-0.1,0.1,0,0.1,0.1,0.1C269.6,75.3,269.8,75.3,269.5,75z"/>
<path class="st0" d="M266.4,75.5c-0.1,0-0.3,0-0.4,0c-0.3,0.1-0.1,0.1,0.1,0.1C266.5,75.7,266.6,75.7,266.4,75.5z"/>
<path class="st0" d="M265.2,75.4c-0.1-0.1-0.4-0.1-0.5,0c-0.1,0.1-0.1,0.1,0.3,0.3C265.5,75.8,265.7,75.7,265.2,75.4z"/>
<path class="st0" d="M261.7,84.2c-0.3,0-0.3,0-0.1,0.1c0.1,0.1,0.3,0.1,0.4,0C262,84.4,262,84.2,261.7,84.2z"/>
<path class="st0" d="M262.8,75.3c0.8,0,0.9,0,0.5-0.1c-1.2-0.4-1.2-0.4-1.2-0.1C262.1,75.1,262.4,75.3,262.8,75.3z"/>
<path class="st0" d="M253,79.8c-0.1,0.3,0.1,0.4,0.5,0.3c0.1,0,0.3-0.1,0.1-0.3C253.4,79.3,253.1,79.3,253,79.8z"/>
<path class="st0" d="M252,78.9c-0.1,0.1-0.3,0-0.3-0.1c-0.1-0.1-0.7-0.3-1.4-0.4c-0.7-0.1-1.1,0-0.9,0c0.1,0.1,0.1,0.3,0,0.4
	c-0.1,0.1,0,0.3,0.4,0.4c0.9,0.3,1.2,0.4,1.2,0.5c0,0.1,0.1,0.1,0.4,0c0.1-0.1,0.3-0.1,0.1-0.1c-0.1,0-0.4-0.1-0.5-0.3
	c-0.1-0.3-0.3-0.3-0.3-0.3c0,0.1-0.1,0.1-0.3,0c-0.1-0.3,0-0.4,0.4-0.3c0.3,0,0.4,0.1,0.3,0.3c0,0.1,0,0.3,0.1,0.3
	c0.1,0,0.4,0,0.5,0c0.5,0,0.5,0,0.4-0.3C252.3,78.8,252.2,78.8,252,78.9z"/>
<path class="st0" d="M252,79.6c0,0.3,0,0.4,0.1,0.4c0.3,0,0.3,0,0.1-0.4C252.2,79.3,252,79.3,252,79.6z"/>
<path class="st0" d="M251.3,74.9c0.1,0,0-0.1-0.3-0.1c-0.3,0-0.3,0-0.1,0.1C251.1,74.9,251.3,74.9,251.3,74.9z"/>
<path class="st0" d="M248.8,78.8c-0.4-0.3-1.6-0.4-2.2-0.4c-0.3,0,0.1,0.1,0.9,0.3c0.8,0.1,1.4,0.3,1.4,0.3
	C249,78.9,248.9,78.8,248.8,78.8z"/>
<path class="st0" d="M245.2,77.7c-0.1,0-0.3,0-0.3,0.1c0,0.1,0.1,0.1,0.3,0.1c0.1,0,0.3,0,0.3-0.1C245.5,77.9,245.3,77.7,245.2,77.7
	z"/>
<path class="st0" d="M237.8,73.7c0.1,0,0-0.1-0.3-0.1s-0.3,0-0.1,0C237.6,73.7,237.7,73.7,237.8,73.7z"/>
<path class="st0" d="M236.6,73.5c-0.3-0.1-0.5-0.1-0.3,0c0.1,0.1,0.4,0.1,0.7,0.1C237.2,73.6,237,73.5,236.6,73.5z"/>
<path class="st0" d="M232.8,71.2c-0.3-0.1-0.5-0.1-0.3,0c0.1,0.1,0.4,0.1,0.7,0.1C233.2,71.3,233,71.2,232.8,71.2z"/>
<path class="st0" d="M232.2,72.7c0.1,0.1,0.3,0.1,0.4,0C232.8,72.7,232.6,72.5,232.2,72.7C232.2,72.5,232.2,72.5,232.2,72.7z"/>
<path class="st0" d="M231.6,72.5c0-0.1,0-0.1-0.1-0.1c-0.1,0-0.1,0-0.3,0.1c0,0.1,0,0.1,0.1,0.1C231.4,72.7,231.6,72.7,231.6,72.5z"
	/>
<path class="st0" d="M229.5,72.5c0.1,0,0.4,0,0.4,0c0.1-0.1,0.1-0.1,0-0.1c-0.1,0-0.3,0-0.4,0C229.2,72.5,229.2,72.5,229.5,72.5z"/>
<path class="st0" d="M228.8,71.4c0.1,0,0.4,0,0.5,0c0.3-0.1,0.3-0.1,0-0.1c-0.1,0-0.4,0-0.5,0C228.7,71.3,228.7,71.3,228.8,71.4z"/>
<path class="st0" d="M229.3,70.7c0.1-0.1,0-0.1-0.3-0.3c-0.4-0.1-0.5,0-0.1,0.1C229.1,70.7,229.2,70.7,229.3,70.7z"/>
<path class="st0" d="M227.9,71c0,0.1,0.1,0.1,0.3,0.1c0.1,0,0.4,0,0.4-0.1c0-0.1-0.1-0.1-0.3-0.1C228,71,227.9,71,227.9,71z"/>
<path class="st0" d="M227,71c0.3,0.4,0.4,0.4,0.4,0c0-0.1,0.1-0.3,0.4-0.3c0.1,0,0.3,0,0.4-0.1c0.1-0.1-0.1-0.1-0.4-0.1
	C227,70.5,226.8,70.6,227,71z"/>
<path class="st0" d="M224.9,71.6c0,0-0.3-0.1-0.5-0.1c-0.3,0-0.5,0-0.5,0c0,0.1,0.3,0.1,0.5,0.1C224.6,71.7,224.9,71.7,224.9,71.6z"
	/>
<path class="st0" d="M221.3,72.4c-0.9-0.1-1.2-0.1-0.8,0.1c0.1,0.1,0.4,0.1,0.5,0.1c0.1,0,0.7,0,1.1,0.1c0.5,0.1,1.1,0.1,1.2,0
	c0.3-0.1,0.3-0.1-0.3-0.1C222.8,72.5,222,72.5,221.3,72.4z"/>
<path class="st0" d="M223.6,71.9c0.1,0,0-0.1-0.3-0.1c-0.3,0-0.3,0-0.1,0.1C223.3,71.9,223.5,72,223.6,71.9z"/>
<path class="st0" d="M219.7,72.3c0-0.1-0.3-0.1-0.5-0.3c-0.5-0.1-0.5-0.1-0.3,0.1C219.4,72.4,219.7,72.5,219.7,72.3z"/>
<path class="st0" d="M218,69.4c0-0.1,0-0.1-0.1-0.1c-0.1,0-0.1,0-0.3,0.1c0,0.1,0,0.1,0.1,0.1C217.9,69.7,218,69.5,218,69.4z"/>
<path class="st0" d="M215.6,70.7c-0.3,0.1-0.3,0.1-0.1,0.1c0.1,0,0.1,0.1,0.1,0.1c-0.1,0.1-0.1,0.1,0,0.1c0.1,0,0.1-0.1,0.1-0.3
	c0-0.1,0-0.3,0.3-0.1c0.1,0,0.3,0.1,0.1,0.1c0,0,0.1,0.1,0.5,0.3s0.7,0.1,0.7,0.1s-0.1-0.1-0.3-0.1c-0.1,0-0.4-0.1-0.7-0.4
	C216,70.6,215.9,70.6,215.6,70.7z"/>
<path class="st0" d="M216.7,72.3c0.1,0,0.3,0.1,0.4,0C217.1,72.3,217,72.3,216.7,72.3C216.7,72.1,216.6,72.3,216.7,72.3z"/>
<path class="st0" d="M217.2,69.1c-0.1,0-0.3,0-0.4,0.1c-0.1,0.1-0.1,0.3,0,0.3C217.2,69.5,217.5,69.1,217.2,69.1z"/>
<path class="st0" d="M216.6,70.1c0.1,0,0.3,0.1,0.4,0c0.1,0,0-0.1-0.3-0.1C216.4,69.9,216.4,69.9,216.6,70.1z"/>
<path class="st0" d="M216,69.4c-0.4-0.1-0.4,0.1,0.1,0.3c0.4,0.1,0.4,0.1,0.3,0C216.4,69.5,216.1,69.4,216,69.4z"/>
<path class="st0" d="M215.3,69.7c0,0-0.3-0.1-0.7-0.3c-0.8-0.5-1.2-0.5-1.4-0.3c0,0.1,0.5,0.7,0.9,0.7c0.1,0,0.1,0,0.1,0.1
	c0,0,0.3,0.1,0.5,0.3c0.3,0.1,0.5,0.1,0.5,0c0-0.1,0.1-0.1,0.1,0c0.3,0.3,0.3,0,0-0.3C215.4,69.7,215.4,69.5,215.3,69.7z"/>
<path class="st0" d="M212.3,72.8c1.1,0.4,1.1,0.1,0-0.3c-1.2-0.5-1.2-0.5-1.6-0.1c-0.3,0.3-0.3,0.4,0,0.3c0.3,0,0.4,0,0.3,0.3
	c0,0.1,0,0.3,0.1,0.3c0.1,0,0.1,0,0.1-0.1c0-0.1,0-0.1,0.3,0c0.4,0.3,0.5,0,0.1-0.3C211.5,72.7,211.7,72.7,212.3,72.8z"/>
<path class="st0" d="M212,71.3c0-0.1-0.1-0.1-0.3-0.1c-0.1,0-0.3,0-0.3,0.1c0,0.1,0.1,0.1,0.3,0.1C211.9,71.5,212,71.4,212,71.3z"/>
<path class="st0" d="M212,68.7c0,0,0,0.1,0.1,0.1c0.1,0,0.1,0,0.3-0.1c0-0.1,0-0.1-0.1-0.1C212.2,68.7,212,68.7,212,68.7z"/>
<path class="st0" d="M209.3,72.9c-0.8,0-0.5,0.3,0.4,0.3c0.4,0,0.7,0,0.5-0.1C210.1,73.1,209.7,72.9,209.3,72.9z"/>
<path class="st0" d="M209.9,69.3c0,0.1,0,0.1,0.1,0.1c0.1,0,0.1,0,0.3-0.1c0-0.1,0-0.1-0.1-0.1C210,69.1,209.9,69.1,209.9,69.3z"/>
<path class="st0" d="M208.2,69c0.1,0.1,0.4,0.1,0.4,0.1c0.1,0,0.1,0,0.1,0.1c0,0.1,0,0.1,0.1,0.3c0.3,0,0.5-0.4,0.3-0.5
	c-0.1-0.1-0.4-0.1-0.7-0.1C208.1,68.9,208,68.9,208.2,69z"/>
<path class="st0" d="M203.7,69.4c0.4,0.1,0.7,0.3,0.7,0.1c0,0,0.1-0.1,0.3,0c0.8,0.1,2.3,0.1,2.3,0c0-0.1,0-0.3-0.1-0.3
	c-0.1,0-0.3,0-0.3,0.1c-0.1,0-0.4,0-0.5-0.1c-0.3-0.1-0.4-0.1-0.4,0c0,0.1,0,0.1-0.3,0c-0.7-0.4-3.1-0.7-3.8-0.4
	c-0.3,0.1-0.8,0.1-1.1,0.1c-0.3-0.1-0.7,0-0.7,0c0,0.1-0.1,0.1-0.3,0c-0.3-0.3-0.7-0.4-0.5-0.3c0,0.1,0.1,0.1,0.3,0.1
	c0.1,0,0.3,0.1,0.3,0.1s0.5,0.1,0.9,0.3c0.5,0.1,0.9,0.1,1.1,0c0.3-0.1,0.5-0.1,1.1,0c0.4,0.1,0.7,0.1,0.5,0.1
	C202.7,69.3,203,69.1,203.7,69.4z"/>
<path class="st0" d="M205.4,67.9c0.3,0,0.3-0.1-0.3-0.1c-0.4,0-0.7,0-0.8,0C204,67.9,204.8,68,205.4,67.9z"/>
<path class="st0" d="M203.7,67.7c0.1-0.1,0-0.1-0.3-0.3c-0.3,0-0.4,0-0.4,0.1c0,0.1,0.1,0.1,0.3,0.3
	C203.4,67.9,203.6,67.7,203.7,67.7z"/>
<path class="st0" d="M200.3,76.9c-0.1,0.1-0.1,0.4,0,0.5c0.3,0.3,0.3,0,0.3-0.5C200.4,76.6,200.4,76.6,200.3,76.9z"/>
<path class="st0" d="M202.1,69.7c0.1,0.1,0.3,0.1,0.4,0c0.1,0,0-0.1-0.3-0.1C202,69.5,202,69.5,202.1,69.7z"/>
<path class="st0" d="M200,67.9c-0.4,0-0.5,0.1-0.4,0.1c0.1,0,0.8,0,1.5,0c0.7,0,1.2,0,1.4,0c0.1,0,0.1,0,0.1,0c0-0.1,0-0.1-0.1-0.3
	c-0.1,0-0.1-0.1,0.1-0.1c0.3-0.1,0.1-0.1-0.3-0.1c-0.3,0-0.8,0-1.1-0.1c-0.3,0-0.7,0-0.8,0c-0.1,0,0,0.1,0.1,0.1
	C201.1,67.5,200.7,67.9,200,67.9z M201.1,67.5c0.1,0,0.1,0.1,0.1,0.1c0,0.1-0.1,0.1-0.1,0.1l-0.1-0.1L201.1,67.5z"/>
<path class="st0" d="M199.1,77.7c-0.1,0-0.1-0.1-0.1-0.1s-0.1-0.1-0.3-0.3c-0.4-0.1-0.4,0-0.5,0.4c-0.1,0.7,0,0.9,0.3,0.4
	c0.1-0.3,0.3-0.4,0.4-0.3C198.9,77.9,199.1,77.8,199.1,77.7C199.4,77.9,199.2,77.9,199.1,77.7z"/>
<path class="st0" d="M198,67.7c0.1,0.1,0.4,0.1,0.7,0.1c0.1,0,0-0.1-0.3-0.1C198,67.7,197.8,67.7,198,67.7z"/>
<path class="st0" d="M196.7,68c0,0.1,0.1,0.3,0.3,0.1c0.3,0,0.4,0,0.4,0s-0.1-0.1-0.3-0.1C196.9,67.9,196.7,67.9,196.7,68z"/>
<path class="st0" d="M212.4,9.7c0.1-0.1,0.1-0.3,0-0.3c-0.1,0-0.1,0.1-0.3,0.1c0,0.1,0,0.3,0,0.3C212.2,10,212.3,9.8,212.4,9.7z"/>
<path class="st0" d="M207.1,8.6c0.1,0,0-0.1-0.3-0.1s-0.4,0-0.3,0C206.9,8.6,207.1,8.6,207.1,8.6z"/>
<path class="st0" d="M189.2,71.7c-0.1,0-0.3,0-0.4,0c0,0,0,0.1,0.3,0.1c0.1,0,0.4,0,0.4,0C189.4,71.7,189.4,71.7,189.2,71.7z"/>
<path class="st0" d="M205.5,8.5c0.1,0,0-0.1-0.3-0.1s-0.3,0-0.1,0.1C205.2,8.5,205.4,8.5,205.5,8.5z"/>
<path class="st0" d="M187.8,72c-0.1,0-0.3,0.1-0.4,0.1c-0.1,0.1-0.1,0.3,0.1,0.1C187.9,72.1,187.9,72,187.8,72z"/>
<path class="st0" d="M187.1,71.7c-0.3,0.1-2.1,0.3-3,0.1c-0.4,0-0.7,0-0.7,0S183,72,182.5,72c-0.4,0-0.8,0.1-0.9,0.1
	c-0.1,0.1,0,0.1,0.1,0.1c0.1,0,0.5,0,0.8,0.1c0.3,0,0.5,0,0.4,0c0-0.1,0.1-0.1,0.4-0.1c0.9,0.1,1.5,0.1,1.6,0.1c0.1,0,0.1,0,0,0.3
	c-0.3,0.4-0.1,0.5,0.3,0.4c0.3,0,0.3-0.1,0.1-0.1c-0.4-0.1-0.1-0.4,0.3-0.4c0.3,0,0.4,0,0.4-0.1c0-0.1,0.1-0.1,0.3-0.1
	c0.1,0,0.3,0,0.4-0.1C187.2,71.7,187.2,71.6,187.1,71.7z"/>
<path class="st0" d="M186.2,69.4c0.1,0.1,0.3,0.1,0.4,0.1c0.1,0,0-0.1-0.3-0.1C186.2,69.4,186.1,69.4,186.2,69.4z"/>
<path class="st0" d="M183.1,72.9c-0.3,0-0.7,0-0.7,0.1c0,0.1,0,0.1,0.1,0.1c0.3,0,1.6-0.1,1.8-0.3c0.1,0,0-0.1-0.3,0
	C183.9,72.9,183.4,72.9,183.1,72.9z"/>
<path class="st0" d="M181.9,72.9c-0.1,0-0.4,0-0.4,0.1c0,0.1,0.1,0.1,0.3,0.1c0.3,0,0.4,0,0.4-0.1C182.3,73.1,182.1,72.9,181.9,72.9
	z"/>
<path class="st0" d="M199.4,7.2c0.1,0,0-0.1-0.3-0.1c-0.3,0-0.3,0-0.1,0C199.1,7.2,199.2,7.4,199.4,7.2z"/>
<path class="st0" d="M181.1,71.9c-0.1,0-0.4,0-0.5,0c-0.3,0.1-0.1,0.1,0.1,0.3c0.3,0,0.5,0,0.5,0C181.2,72,181.2,72,181.1,71.9z"/>
<path class="st0" d="M198.4,7.1c0.1,0,0-0.1-0.1-0.1c-0.3,0-0.4,0-0.3,0C198,7.1,198.3,7.1,198.4,7.1z"/>
<path class="st0" d="M179.8,72c-0.1,0.1,0,0.3,0.3,0.3c0.1,0,0.1,0,0-0.1C180,72,179.8,72,179.8,72z"/>
<path class="st0" d="M179.1,72c0,0.1,0,0.1,0.1,0.3c0.1,0.1,0.1,0,0.3-0.1c0-0.1,0-0.3-0.1-0.3C179.3,71.8,179.1,72,179.1,72z"/>
<path class="st0" d="M178.8,72c-0.1,0-0.3,0-0.3,0.1c-0.1,0.1,0,0.1,0.1,0.1s0.3,0,0.3-0.1C179,72,178.9,72,178.8,72z"/>
<path class="st0" d="M192.4,6.8c0.1,0,0-0.1-0.3-0.1s-0.3,0-0.1,0C192.3,6.8,192.4,6.8,192.4,6.8z"/>
<path class="st0" d="M191.4,5.7c0.1,0,0-0.1-0.3-0.1s-0.3,0-0.1,0.1C191.1,5.7,191.3,5.7,191.4,5.7z"/>
<path class="st0" d="M189.1,5.5c0.1,0,0-0.1-0.3-0.1s-0.3,0-0.1,0C188.8,5.5,189,5.5,189.1,5.5z"/>
<path class="st0" d="M187.5,5.1c0.1,0,0-0.1-0.3-0.1s-0.3,0-0.1,0C187.2,5.1,187.4,5.1,187.5,5.1z"/>
<path class="st0" d="M184.9,4.9c0.1,0,0.1,0,0.3-0.1c0-0.1,0-0.1-0.1-0.1s-0.1,0-0.3,0.1C184.8,4.8,184.8,4.9,184.9,4.9z"/>
<path class="st0" d="M182,2.9c0.1,0,0.3-0.1,0.3-0.1s0-0.1-0.1-0.1c-0.1,0-0.1,0-0.3,0.1C181.9,2.9,181.9,2.9,182,2.9z"/>
<path class="st0" d="M154.6,74.7C154.3,74.9,154.3,74.9,154.6,74.7c0,0.1,0.1,0.1,0.4,0.1c0.1,0,0.3-0.1,0.1-0.1
	C155,74.7,154.7,74.7,154.6,74.7z"/>
<path class="st0" d="M150.5,70.2c0.1,0,0.3,0.1,0.4,0.1c0.1,0,0-0.1-0.3-0.1C150.5,70.1,150.3,70.1,150.5,70.2z"/>
<path class="st0" d="M147.8,69.8c-0.1,0-0.1,0.1,0.1,0.3c0.1,0.1,0.4,0.1,0.4,0.1s0-0.1-0.1-0.3C148.2,69.8,147.9,69.8,147.8,69.8z"
	/>
<path class="st0" d="M145.6,69.7c-0.4,0-1.1,0-1.6-0.1c-0.5-0.1-1.5-0.1-2.2,0c-0.7,0-1.4,0-1.5-0.1c-0.3-0.1-0.4-0.1-0.5,0.3
	c-0.1,0.4,0,0.4,0.7,0.5c0.4,0.1,0.8,0.1,0.9,0c0.1-0.1,0.4-0.1,0.7-0.1s0.5-0.1,0.4-0.1c0-0.1,0.3-0.1,0.8,0
	c0.5,0.1,1.4,0.1,1.8,0.1c0.4,0,0.9,0,1.1,0c0.1,0,0.4,0,0.4-0.1c0.1-0.1,0-0.1-0.1-0.1C146.4,69.7,145.9,69.7,145.6,69.7z"/>
<path class="st0" d="M142.9,71.7c-0.3,0-0.4,0-0.4,0s-0.3,0-0.5,0c-1.1-0.1-3.3,0.3-3.3,0.5c0,0.1-0.1,0.1-0.1,0
	c0-0.1-0.9-0.1-3.1,0c-1.6,0.1-3,0.3-3.1,0.3c0,0,0,0.1,0.1,0.3c0.1,0.1,0.7,0.1,1.5,0c0.7-0.1,1.5-0.1,1.6-0.1c0.3,0,0.5,0,0.9,0
	c0.3,0,0.5,0,0.5-0.1c0,0,0.8-0.1,1.9-0.1c0.9,0,2.5-0.1,3.1-0.3C143.3,72,143.7,71.7,142.9,71.7z"/>
<path class="st0" d="M138.5,69.1c-0.1-0.1-0.3-0.1-0.4,0c-0.1,0.1,0,0.1,0.3,0.3C138.8,69.4,138.8,69.3,138.5,69.1z"/>
<path class="st0" d="M154.9,3.1c0.7,0.1,0.8,0,0.3-0.3c-0.1-0.1-0.4-0.1-0.5,0C154.3,3,154.5,3.1,154.9,3.1z"/>
<path class="st0" d="M133.6,79.2C133.3,79.1,133.3,79.1,133.6,79.2c0,0.1,0.1,0.1,0.3,0.1C133.9,79.2,133.7,79.2,133.6,79.2z"/>
<path class="st0" d="M132.6,79.3c0,0-0.3,0.1-0.5,0.1c-0.4,0-0.7,0.3-0.4,0.4c0.1,0,0.1,0,0.3-0.1c0-0.1,0.1-0.1,0.3-0.1
	c0.4,0.1,0.8-0.3,0.7-0.4C132.7,78.9,132.6,79.1,132.6,79.3z"/>
<path class="st0" d="M135.3,69.4c-0.1-0.1-0.4-0.1-0.5,0c-0.3,0-0.1,0.1,0.1,0.1C135.6,69.7,135.6,69.7,135.3,69.4z"/>
<path class="st0" d="M153.5,2.9c0.1,0,0.1,0,0.3-0.1c0.1-0.1,0-0.1-0.1-0.1c-0.1,0-0.1,0-0.3,0.1C153.4,2.9,153.4,2.9,153.5,2.9z"/>
<path class="st0" d="M130.7,79.6c-1.1,0-1.9,0.3-2.1,0.4c0,0.1,0,0.1,0.1,0.1c0.1-0.1,0.3-0.1,0.3,0c0.1,0.1,0.1,0,0.1,0
	c0-0.1,0.1-0.1,0.3,0c0.1,0.1,0.1,0.1,0.1,0c0-0.1,0-0.1,0.3-0.3c0.5,0,0.8,0,0.4,0.1c-0.1,0-0.3,0.1-0.1,0.1c0.1,0,0.4-0.1,0.7-0.3
	C131.3,79.6,131.3,79.6,130.7,79.6z"/>
<path class="st0" d="M133,69.5c-0.3,0-0.7,0-0.8,0.1c-0.4,0.1-0.4,0.1,0.3,0.1C133.3,69.8,133.7,69.7,133,69.5z"/>
<path class="st0" d="M150.8,1.9c0.1,0,0-0.1-0.3-0.1s-0.3,0-0.1,0C150.6,1.9,150.8,2.1,150.8,1.9z"/>
<path class="st0" d="M130.9,69.5C130.9,69.7,130.9,69.7,130.9,69.5c0.1,0,0.3,0.1,0.4,0.3c0.1,0.1,0.3,0.1,0.3,0.1s-0.1-0.1-0.1-0.3
	C131.1,69.5,131,69.4,130.9,69.5z"/>
<path class="st0" d="M127.7,80c-0.3,0-0.1,0.1,0.1,0.1c0.4,0,0.5,0,0.3-0.1C128.1,80,127.9,80,127.7,80z"/>
<path class="st0" d="M130.3,69.5c-0.3,0-0.4,0.1-0.4,0.3C129.9,69.9,130.2,69.8,130.3,69.5C130.7,69.5,130.7,69.5,130.3,69.5z"/>
<path class="st0" d="M148.5,1.6h0.4l-0.4-0.1c-0.1,0-0.5,0-0.7,0c-0.3,0.1-0.3,0.1,0,0.1C147.9,1.8,148.2,1.6,148.5,1.6z"/>
<path class="st0" d="M126.2,80.6c-0.1,0.1-0.4,0.1-0.5,0c-0.1-0.1-1.9,0.1-1.9,0.4c0,0.3,0.3,0.3,0.4,0c0.1-0.1,0.3-0.1,0.4-0.1
	c0.4,0.1,1.9,0,1.9-0.3C126.5,80.4,126.5,80.4,126.2,80.6z"/>
<path class="st0" d="M146,1.8c0.1,0,0.3-0.1,0.3-0.1s0-0.1-0.1-0.1c-0.1,0-0.1,0-0.3,0.1C145.9,1.8,145.9,1.8,146,1.8z"/>
<path class="st0" d="M122.8,81.4c0.1,0,0.3,0,0.4-0.1c0.1-0.1,0.1-0.3,0.1-0.3s-0.1,0-0.4,0.1C122.8,81.3,122.7,81.3,122.8,81.4z"/>
<path class="st0" d="M144.9,1.6c0.1-0.1,0.1-0.1,0-0.1c-0.1,0-0.3,0-0.3,0.1c-0.1,0.1-0.1,0.1,0,0.1C144.6,1.6,144.8,1.6,144.9,1.6z
	"/>
<path class="st0" d="M121.3,81.4c0.1,0,0.3,0.1,0.4,0.1c0.1,0,0-0.1-0.3-0.1C121.3,81.4,121.2,81.4,121.3,81.4z"/>
<path class="st0" d="M143.4,0.3c0.1,0,0-0.1-0.1-0.1c-0.3,0-0.4,0-0.3,0C143.1,0.1,143.4,0.3,143.4,0.3z"/>
<path class="st0" d="M119.4,79.5c-0.1,0-0.1,0-0.3,0.1c0,0.1,0,0.1,0.1,0.1c0.1,0,0.3-0.1,0.3-0.1C119.5,79.5,119.5,79.5,119.4,79.5
	z"/>
<path class="st0" d="M117.9,79.6C117.6,79.6,117.6,79.8,117.9,79.6c0,0.1,0.1,0.1,0.4,0.1c0.1,0,0.3-0.1,0.1-0.1
	C118.1,79.5,118,79.6,117.9,79.6z"/>
<path class="st0" d="M138.5,1.8c0.1,0,0.1-0.1,0.3-0.1c0-0.1-0.1-0.3-0.3-0.3c-0.1,0-0.4,0.1-0.5,0.3c-0.1,0.1-0.1,0.3,0.1,0.1
	C138.2,1.6,138.3,1.6,138.5,1.8z"/>
<path class="st0" d="M136.2,1.8c0.1,0,0.3,0,0.3-0.1c0-0.1,0-0.3-0.3-0.1c-0.1,0-0.3,0.1-0.3,0.1S135.9,1.6,136.2,1.8z"/>
<path class="st0" d="M111.9,72.1C111.6,72.1,111.6,72.1,111.9,72.1c0,0.1,0.1,0.1,0.3,0.1C112.1,72.3,112,72.3,111.9,72.1z"/>
<path class="st0" d="M110.8,72.4c-0.1,0-0.1,0-0.3,0.1c0,0.1,0,0.1,0.1,0.1c0.1,0,0.3-0.1,0.3-0.1C110.9,72.5,110.8,72.4,110.8,72.4
	z"/>
<path class="st0" d="M127.3,0.1c0.3-0.1,0.3-0.1,0-0.1c-0.1,0-0.4,0-0.4,0.1C126.7,0.3,126.9,0.3,127.3,0.1z"/>
<path class="st0" d="M125,0.1c-0.1,0-0.3,0-0.5,0c-0.4,0.1-0.4,0.1,0.1,0.1S125.1,0.3,125,0.1z"/>
<path class="st0" d="M118,2.2c0.1,0,0.3,0,0.4-0.1c0.1-0.1,0.3-0.1,0.5,0c0.4,0.3,0.5,0.1,0.4-0.1c0-0.1-0.3-0.3-0.4-0.1
	c-0.4,0-0.5,0-0.9,0C117.6,1.6,117.7,2.2,118,2.2z"/>
<path class="st0" d="M115.4,2.2c0,0,0.3-0.1,0.7,0c0.5,0.1,1.2,0,1.4-0.3c0,0-0.3-0.1-0.7-0.1c-0.4,0-0.9,0-1.2,0
	c-0.3,0-0.5,0.1-0.7,0c-0.1,0-0.3,0-0.4,0c-0.1,0-0.4,0-0.8,0c-0.5,0-0.9,0.3-0.5,0.3C113.7,2.3,115.4,2.2,115.4,2.2z"/>
<path class="st0" d="M98.1,71.4c-0.1,0-0.1,0-0.3,0.1c0,0.1,0,0.1,0.1,0.1c0.1,0,0.3-0.1,0.3-0.1C98.4,71.4,98.2,71.4,98.1,71.4z"/>
<path class="st0" d="M91.7,81.6c-0.7,0.1-0.9,0.3-0.5,0.3c0.1,0,0.3,0,0.3,0.1c-0.1,0.3,0.4,0.1,0.7-0.1
	C92.4,81.5,92.4,81.5,91.7,81.6z"/>
<path class="st0" d="M111.6,2.3c0.1-0.1,0.4-0.1,0.7,0c0.4,0.1,0.7-0.1,0.4-0.4c-0.1-0.1-0.1-0.1-0.1,0c0,0.1-0.3,0.1-0.4,0
	c-0.5-0.3-1.1,0-0.8,0.3C111.3,2.5,111.5,2.5,111.6,2.3z"/>
<path class="st0" d="M90.2,82.3c-0.1,0-0.1,0-0.3,0.1c0,0.1,0,0.1,0.1,0.1c0.1,0,0.3-0.1,0.3-0.1S90.3,82.5,90.2,82.3z"/>
<path class="st0" d="M89.6,84c-0.3,0-0.3,0-0.1,0.1c0.1,0.1,0.3,0.1,0.4,0C89.9,84.1,89.9,84,89.6,84z"/>
<path class="st0" d="M88.8,82.1c-0.1,0.1-0.1,0.1,0,0.1c0.1,0,0.3,0,0.3-0.1c0.1-0.1,0.1-0.1,0-0.1C89.1,81.9,89,82.1,88.8,82.1z"/>
<path class="st0" d="M88.7,82.8c0,0.1-0.1,0.1-0.1,0c-0.1-0.1-0.9,0.3-0.8,0.4c0,0,0.4,0,0.7-0.1c0.4-0.1,0.7-0.3,0.5-0.4
	C88.7,82.6,88.7,82.6,88.7,82.8z"/>
<path class="st0" d="M110.8,2.3c0.1,0,0.1-0.1,0-0.1c0-0.1-0.1-0.1-0.3-0.1c-0.1,0-0.1,0,0,0.1C110.7,2.2,110.7,2.3,110.8,2.3z"/>
<path class="st0" d="M88.3,84.1c-0.1,0-0.1,0-0.3,0.1c0,0.1,0,0.1,0.1,0.1s0.1,0,0.3-0.1C88.6,84.1,88.3,84.1,88.3,84.1z"/>
<path class="st0" d="M91.8,68.6c-0.3,0-0.3,0-0.1,0.3c0.1,0.1,0.3,0.3,0.4,0.3c0.1,0,0-0.1,0-0.1c-0.1,0-0.1-0.1,0-0.1
	C92.1,68.7,92,68.6,91.8,68.6z"/>
<path class="st0" d="M109.8,2.5c0.4,0,0.4-0.1,0.1-0.3c-0.3-0.3-0.8-0.1-0.9,0C108.9,2.5,109.3,2.5,109.8,2.5z"/>
<path class="st0" d="M88.1,78c0.3,0,0.4-0.1,0.1-0.1c-0.1,0-0.3,0-0.3,0.1C87.9,78,87.9,78,88.1,78z"/>
<path class="st0" d="M108.2,2.6c0.1,0,0.4,0,0.5-0.3c0.1-0.3,0.1-0.3-0.4-0.3C107.7,2.2,107.7,2.5,108.2,2.6z"/>
<path class="st0" d="M86.2,82.9c0,0,0.1,0,0.1-0.1c0-0.1,0-0.3-0.1-0.1C86.2,82.6,86.1,82.8,86.2,82.9z"/>
<path class="st0" d="M85.1,83.5c-0.1,0-0.3,0.1-0.4,0.3c-0.3,0.4-0.1,0.4,0.3,0.1C85.3,83.5,85.3,83.5,85.1,83.5z"/>
<path class="st0" d="M102.2,2.6c0.1,0.1,0.3,0.1,0.1,0.3c-0.1,0.1,0,0.1,0,0.1c0.1,0,0.1,0.1,0,0.1c-0.1,0.1-0.1,0.1,0.1,0.1
	c0.1,0,0.3-0.1,0.3-0.3s0.1-0.3,0.3-0.1c0.1,0.1,0.3,0.1,0.4,0c0.1-0.1,0.3-0.1,0.5-0.1c0.1,0,0.4,0,0.5-0.1c0.1-0.1,0.4-0.1,0.4,0
	c0.1,0.1,0.1,0,0.1,0c0-0.1,0.1-0.1,0.4-0.1c0.3,0,0.4,0.1,0.4,0.1c0,0.1,0.8,0.1,0.9-0.1c0.1-0.1,0.3-0.1,0.4,0
	c0.1,0.1,0.1,0,0.1,0c0-0.1-0.1-0.1-0.5-0.1c-0.3,0-1.5,0-2.5,0.1C103.4,2.5,102.5,2.6,102.2,2.6C101.9,2.5,101.9,2.5,102.2,2.6z"/>
<path class="st0" d="M84.9,82.8c-0.1,0.1-0.1,0.1,0,0.1c0.1,0,0.3,0,0.3-0.1c0.1-0.1,0.1-0.1,0-0.1C85.1,82.6,85,82.8,84.9,82.8z"/>
<path class="st0" d="M85.3,79.5c-0.1,0-0.1,0,0,0.1c0.1,0.1,0.3,0.1,0.3,0.1c0.1,0,0.1-0.1,0-0.1C85.5,79.6,85.4,79.5,85.3,79.5z"/>
<path class="st0" d="M83.8,83.7c-0.3,0-0.3,0,0,0.1c0.3,0.3,0.5,0.3,0.4,0C84.2,83.9,83.9,83.7,83.8,83.7z"/>
<path class="st0" d="M84.1,83.3c0.1-0.1,0-0.1-0.1-0.1c-0.1,0-0.3,0-0.3,0.1c0,0.1,0,0.1,0.1,0.1C83.8,83.3,83.9,83.3,84.1,83.3z"/>
<path class="st0" d="M89.5,61.1c-0.1,0-0.3,0-0.4,0c-0.3,0.1-0.3,0.1,0,0.1c0.1,0,0.4,0,0.4,0C89.6,61.2,89.6,61.1,89.5,61.1z"/>
<path class="st0" d="M89,63.8c0-0.1,0-0.1-0.1-0.1c-0.1,0-0.3,0-0.3,0.1c-0.1,0.1,0,0.1,0.1,0.1C88.7,64,88.8,64,89,63.8z"/>
<path class="st0" d="M82.8,83.6c-0.1,0.1,0,0.1,0.1,0.1c0.1,0,0.3,0,0.1,0.1c-0.1,0.1-0.1,0.3,0,0.3c0.3,0,0.3-0.4,0.1-0.7
	C83.1,83.5,82.9,83.5,82.8,83.6z"/>
<path class="st0" d="M82.3,83.7c-0.1,0-0.3,0-0.3,0s0.1,0.1,0.3,0.3c0.1,0.1,0.3,0.1,0.3,0C82.4,83.9,82.4,83.7,82.3,83.7z"/>
<path class="st0" d="M88,61.1C87.9,61.1,87.7,61.1,88,61.1c0,0.1,0.1,0.1,0.3,0.1C88.3,61.2,88.1,61.2,88,61.1z"/>
<path class="st0" d="M80.6,84.2c-0.1,0.3-0.1,0.4,0,0.4s0.3-0.1,0.1-0.3c0-0.1,0.1-0.1,0.3-0.3c0.4-0.1,0.7-0.4,0.4-0.4
	C81.3,83.7,80.9,83.9,80.6,84.2z"/>
<path class="st0" d="M86.8,61.2c-0.7,0-1.2,0.1-1.1,0.4c0.1,0.1,1.6-0.1,1.8-0.3C87.5,61.2,87.2,61.2,86.8,61.2z"/>
<path class="st0" d="M86.2,64.2c-0.1,0-0.3,0.1-0.3,0.1C86.1,64.4,86.2,64.4,86.2,64.2C86.6,64.2,86.5,64.1,86.2,64.2z"/>
<path class="st0" d="M82.3,77.3c-0.1,0-0.3,0.1-0.3,0.1C82,77.6,82.3,77.4,82.3,77.3C82.5,77.3,82.5,77.3,82.3,77.3z"/>
<path class="st0" d="M86.5,62.2c-0.1,0-0.3,0-0.4,0.1c-0.1,0.1-0.3,0.1-0.1,0.3c0.1,0,0.3,0,0.4-0.1C86.5,62.2,86.5,62.2,86.5,62.2z
	"/>
<path class="st0" d="M79.4,84.1c-0.1,0.1,0,0.1,0.1,0.1c0.1,0,0.1,0.1-0.1,0.1c-0.4,0.1-0.7,0.1-0.4-0.1c0.3-0.1-0.1-0.3-0.5,0
	c-0.3,0.1-0.8,0.1-1.1,0.1c-0.4,0-0.7,0.1-0.8,0.3c-0.1,0.3-0.4,0.4-0.8,0.4c-0.1,0-0.1,0.1-0.1,0.1c0,0.1,0.4,0,0.5-0.1
	c0.3-0.1,0.5-0.1,0.5-0.1s0.1,0,0.3,0c0.1-0.1,0.1-0.1,0-0.1c-0.1,0-0.3,0-0.1-0.1c0-0.1,0.3-0.1,0.5,0c0.3,0.1,0.5,0.1,0.8,0
	c0.3-0.3,0.7-0.1,0.4,0c-0.3,0.3,0.1,0.3,0.4,0c0.1-0.1,0.4-0.1,0.7-0.1c0.5,0,0.8-0.4,0.3-0.5C79.8,84,79.5,84,79.4,84.1z"/>
<path class="st0" d="M84.7,64.4c0,0.3,0,0.3,0.3,0.1c0.1-0.1,0.3-0.1,0.4-0.1c0,0-0.1-0.1-0.3-0.1C85,64.1,84.9,64.2,84.7,64.4z"/>
<path class="st0" d="M84.7,62.4c-0.3,0.1-0.3,0.1,0,0.1c0.1,0,0.4,0,0.4-0.1c0.1-0.1,0.1-0.1,0-0.1C85.1,62.3,84.9,62.3,84.7,62.4z"
	/>
<path class="st0" d="M80.5,77.7c-0.1,0-0.3,0.1-0.3,0.1C80.2,78,80.4,78,80.5,77.7C80.8,77.7,80.8,77.7,80.5,77.7z"/>
<path class="st0" d="M101.2,1.5c0.1,0,0.3-0.1,0.3-0.1s0-0.1-0.1-0.1c-0.1,0-0.1,0-0.3,0.1C101.1,1.5,101.1,1.6,101.2,1.5z"/>
<path class="st0" d="M100.1,3c0.3-0.1,0.5-0.1,0.7,0c0.1,0.1,0.1,0,0.3,0c0-0.1-0.1-0.1-0.3-0.3c-0.5-0.1-0.9,0-1.1,0.3
	C99.7,3.1,99.7,3.1,100.1,3z"/>
<path class="st0" d="M84.1,62.7c0.1,0,0.1-0.1,0-0.1c0-0.1-0.1-0.1-0.3-0.1c-0.1,0-0.1,0,0,0.1C83.8,62.7,83.9,62.7,84.1,62.7z"/>
<path class="st0" d="M83.4,64.5c-0.1,0-0.3,0-0.3,0.1c0,0.1,0.1,0.1,0.3,0.1c0.1,0,0.3,0,0.3-0.1C83.6,64.5,83.5,64.5,83.4,64.5z"/>
<path class="st0" d="M79.9,78c0,0,0-0.1-0.1-0.1c-0.1,0-0.1,0-0.3,0.1c0,0.1,0,0.1,0.1,0.1C79.8,78,79.9,78,79.9,78z"/>
<path class="st0" d="M83.4,61.6c0,0.1,0,0.3,0,0.4c0.1,0,0.1-0.1,0.3-0.3c0.1-0.1,0-0.3,0-0.4C83.5,61.4,83.4,61.5,83.4,61.6z"/>
<path class="st0" d="M83.1,62.6c0-0.1,0-0.1-0.1-0.1c-0.1,0-0.1,0.1-0.1,0.3C82.9,63,82.9,62.8,83.1,62.6z"/>
<path class="st0" d="M75,78.9c0,0,0.4,0,0.8-0.1c0.4-0.1,1.1-0.3,1.2-0.1c0.1,0,0.3,0,0.3-0.1c0-0.1,0.1-0.1,0.1,0
	c0.1,0.1,0.3,0.1,0.5,0c0.3-0.1,0.3-0.1,0.1-0.3c-0.3-0.1-2.2,0.1-2.7,0.4c-0.1,0.1-0.4,0.1-0.4,0c-0.1,0-0.7,0-1.5,0.1
	c-0.9,0.1-1.2,0.3-1.1,0.4c0.1,0.1,0.3,0.1,0.5-0.1c0.3-0.1,0.4-0.1,0.5-0.1c0.1,0.1,0.1,0,0.3,0s0.1-0.1,0.3,0c0.1,0.1,0.4,0,0.5,0
	C74.9,78.9,75.2,78.8,75,78.9z"/>
<path class="st0" d="M75.7,82.5c-0.1,0-0.3,0.1-0.3,0.1C75.6,82.6,75.7,82.6,75.7,82.5C76.1,82.3,76,82.3,75.7,82.5z"/>
<path class="st0" d="M74.9,85.3c-0.1,0-0.3,0.1-0.3,0.1C74.8,85.6,74.9,85.6,74.9,85.3C75.3,85.3,75.2,85.3,74.9,85.3z"/>
<path class="st0" d="M97.3,1.9c0.3-0.1,0.3-0.1,0.3-0.1c-0.3,0-0.8,0.1-0.7,0.3C96.9,1.9,97,1.9,97.3,1.9z"/>
<path class="st0" d="M75,82.8c0-0.1,0-0.1-0.1-0.1c-0.1,0-0.3,0.1-0.3,0.1s0,0.1,0.1,0.1C74.9,83,74.9,82.9,75,82.8z"/>
<path class="st0" d="M78.5,66.1c0.3-0.1,0.3-0.4,0-0.4c-0.1,0-0.3,0-0.3,0.1C78.2,66.1,78.3,66.1,78.5,66.1z"/>
<path class="st0" d="M96.1,1.9c0-0.1-0.1-0.1-0.3-0.1c-0.4,0.1-0.8,0.4-0.5,0.4C95.4,2.2,96.1,2.1,96.1,1.9z"/>
<path class="st0" d="M72.3,85.5c-0.3,0.3-0.3,0.3,0,0.3c0.1,0,0.3-0.1,0.3-0.3c0-0.1,0.1-0.1,0.3,0c0.3,0.1,0.4,0.1,0.1,0
	C72.9,85.1,72.7,85.2,72.3,85.5z"/>
<path class="st0" d="M77.9,65.9c-0.1-0.3-0.1-0.1-0.1,0.1c0,0.1,0.1,0.3,0.1,0.3C78.1,66.1,78.1,66.1,77.9,65.9z"/>
<path class="st0" d="M77.1,66.3c0.4,0.1,0.4,0.1,0.1-0.3c-0.1-0.3-0.3-0.3-0.7,0c-0.4,0.3-0.4,0.3-0.1,0.3
	C76.7,66.1,76.9,66.3,77.1,66.3z"/>
<path class="st0" d="M94.1,2.3c0.1,0,0.3,0,0.4-0.1c0.1-0.1,0-0.1-0.3-0.3c-0.1,0-0.4,0-0.4,0.1C93.9,2.2,94,2.2,94.1,2.3z"/>
<path class="st0" d="M70.3,85.6c-0.3,0-0.7,0.1-0.7,0.1c-0.1,0.1,0,0.1,0.3,0.1c0.3,0,0.5,0,0.7,0c0.1,0,0.4-0.1,0.4-0.1
	C70.8,85.6,70.5,85.6,70.3,85.6z"/>
<path class="st0" d="M74.5,66.5c0.1-0.1,0.4-0.1,0.7-0.1c0.3,0,0.5-0.1,0.7-0.1c0.1-0.1,0-0.1-0.5-0.1c-0.4,0-0.9,0.1-1.2,0.3
	l-0.5,0.3l0.4,0.1C74.1,66.7,74.4,66.5,74.5,66.5z"/>
<path class="st0" d="M72,79.5c-0.1-0.1-0.4,0-0.7,0.1l-0.4,0.3h0.4C72,79.8,72.3,79.6,72,79.5z"/>
<path class="st0" d="M92.9,2.3c0.3-0.1,0.3-0.1,0-0.1c-0.1,0-0.4,0-0.4,0C92.2,2.5,92.5,2.5,92.9,2.3z"/>
<path class="st0" d="M68.1,86.2c-0.1,0.3-0.3,0.4-0.1,0.4c0.1,0,0.3,0,0.3-0.1c0-0.1,0.1-0.3,0.3-0.1c0.1,0,0.3,0,0.4-0.1
	c0.1-0.1,0-0.1-0.1-0.3C68.5,85.8,68.2,85.9,68.1,86.2z"/>
<path class="st0" d="M69.9,79.6c-0.4,0.1-0.3,0.3,0.3,0.1c0.3,0,0.3-0.1,0.3-0.1C70.4,79.6,70.1,79.6,69.9,79.6z"/>
<path class="st0" d="M71.4,66.7c-0.1-0.1-0.9,0.1-0.8,0.3c0.1,0.1,0.5,0.1,2.1-0.1c0.9-0.1,1.1-0.3,0.5-0.4c-0.1,0-0.4,0-0.4,0.1
	c0,0.1-0.3,0.1-0.5,0c-0.3,0-0.5,0-0.5,0C71.5,66.7,71.4,66.7,71.4,66.7z"/>
<path class="st0" d="M90.3,2.6c0.1,0,0.1,0,0.1,0s0-0.1-0.1-0.3c-0.1-0.1-0.1,0-0.1,0C90.2,2.5,90.3,2.6,90.3,2.6z"/>
<path class="st0" d="M68.6,79.9c0-0.1-0.1-0.1-0.3,0c-0.1,0.1-0.3,0.1-0.3,0.3C68.1,80.3,68.5,80.2,68.6,79.9z"/>
<path class="st0" d="M67,80c-0.3,0.1-0.3,0.1-0.1,0.3c0.1,0.1,0.3,0,0.3-0.1c0-0.1,0.1-0.1,0.3-0.1c0.1,0.1,0.3,0.1,0.3,0
	c0-0.1,0-0.1-0.1-0.1C67.4,79.9,67.1,79.9,67,80z"/>
<path class="st0" d="M88.5,2.7c0.3-0.1,0.3-0.1,0-0.1c-0.1,0-0.4,0-0.4,0C88,2.9,88.3,2.9,88.5,2.7z"/>
<path class="st0" d="M71.4,64.2c-0.1,0-0.1,0-0.3,0.1c0,0.1,0,0.1,0.1,0.1s0.1,0,0.3-0.1C71.5,64.4,71.5,64.2,71.4,64.2z"/>
<path class="st0" d="M70.4,63.3c-0.5,0.1-1.1,0.3-0.9,0.3c0.1,0.1,1.8-0.1,1.9-0.3C71.4,63.1,71.1,63.1,70.4,63.3z"/>
<path class="st0" d="M86.2,3.1c0.3,0,0.5,0,0.8,0C87.2,3,87.5,3,87.6,3s0.1,0,0.1-0.1c-0.1,0-0.5,0-1.1,0.1C86,3,85.8,3,86.2,3.1z"
	/>
<path class="st0" d="M69.7,67c-0.3,0-0.5,0.1-0.5,0.3c0,0.1,0.1,0.1,0.5,0.1C70.4,67.1,70.4,66.8,69.7,67z"/>
<path class="st0" d="M65.9,79.9c-0.1,0-0.3,0-0.3,0.1c-0.1,0.1,0,0.1,0.1,0.1C66.2,80,66.2,79.9,65.9,79.9z"/>
<path class="st0" d="M65.2,80.4c0.1-0.3-0.3-0.3-0.4,0.1c-0.1,0.1-0.3,0.3-0.3,0.1c0,0-0.4,0-0.8,0c-0.4,0.1-0.5,0.1-0.4,0.3
	c0.1,0,0.3,0.1,0.3,0.3c0,0.1,0.1,0.1,0.1,0c0.1-0.3,0.3-0.3,0.7-0.1c0.1,0,0.1,0,0.3-0.1c0.1-0.1,0.3-0.1,0.3-0.1
	c0.1,0,0.3,0,0.4-0.1c0.3-0.1,0.3-0.1,0-0.1C65.3,80.6,65.2,80.6,65.2,80.4z"/>
<path class="st0" d="M68.5,67.1c-0.5,0.1-0.5,0.1-0.4,0.3c0.4,0.1,0.8,0.1,0.9-0.1C69.2,67,69,67,68.5,67.1z"/>
<path class="st0" d="M63.7,84.4c-0.1,0.1-0.1,0.1,0,0.1c0.1,0,0.3,0,0.3-0.1c0.1-0.1,0.1-0.1,0-0.1S63.7,84.4,63.7,84.4z"/>
<path class="st0" d="M85.4,3.1C85.7,3,85.7,3,85.3,3c-0.3,0-0.5,0-0.8,0.1c-0.3,0-0.3,0.1,0.1,0.1C84.9,3.3,85.3,3.3,85.4,3.1z"/>
<path class="st0" d="M68.5,63.5c-0.4,0.1-0.7,0.1-0.7,0.1c0.1,0.1,1.2,0,1.4-0.1C69.2,63.5,68.8,63.5,68.5,63.5z"/>
<path class="st0" d="M67.4,67.6c0-0.1-0.1-0.1-0.3-0.3c-0.1,0-0.3,0-0.3,0.1c0,0.1,0.1,0.1,0.3,0.3C67.3,67.7,67.4,67.6,67.4,67.6z"
	/>
<path class="st0" d="M83.2,3.5c0.3,0,0.4,0,0.4-0.1c0-0.1,0.1-0.3,0.3-0.3C84.2,3,84.2,3,83.9,3s-0.5,0-0.7,0
	C82.7,3.3,82.7,3.5,83.2,3.5z"/>
<path class="st0" d="M63.3,79.3c0-0.1,0-0.1-0.1-0.1c-0.1,0-0.3,0.1-0.3,0.1s0,0.1,0.1,0.1C63.2,79.5,63.2,79.3,63.3,79.3z"/>
<path class="st0" d="M62.1,81c-0.7-0.1-1.1,0-1.4,0.3c-0.1,0.1-0.1,0.3,0,0.3c0.1,0,0.3-0.1,0.3-0.3c0-0.3,0.1-0.3,0.1,0
	c0.1,0.3,0.3,0.1,0.3-0.1c0,0,0.1,0,0.4,0.1c0.3,0.1,0.4,0.1,0.4,0C62.3,81.1,62.2,81,62.1,81z"/>
<path class="st0" d="M65.6,67.7c-0.1,0-0.5,0-0.8-0.1c-0.4-0.1-0.4-0.1-0.1,0.3c0.1,0.1,0.4,0.3,0.4,0.1
	C65.1,68,65.3,67.9,65.6,67.7C65.9,67.7,65.9,67.7,65.6,67.7z"/>
<path class="st0" d="M65.6,65.9c-0.3,0-0.5,0-0.7,0.1c-0.1,0.1,0,0.1,0.3,0.1C65.9,66,66.2,65.9,65.6,65.9z"/>
<path class="st0" d="M62.2,78.3c-0.1,0-0.1,0-0.3,0.1c0,0.1,0,0.1,0.1,0.1c0.1,0,0.3-0.1,0.3-0.1S62.3,78.3,62.2,78.3z"/>
<path class="st0" d="M81.1,3.7c0.1-0.1,0.3-0.1,0.4-0.1c0.1,0,0.5,0,0.7-0.1c0.3-0.1,0.4-0.1,0.1-0.3c-0.1,0-0.4,0-0.4,0
	c-0.1,0-0.4,0.1-0.7,0.1c-0.3,0-0.5,0-0.5,0.1C80.6,3.8,80.9,3.8,81.1,3.7z"/>
<path class="st0" d="M61.4,79.8c0.1,0,0-0.1-0.3-0.1c-0.3,0-0.3,0-0.1,0.1C61.1,79.8,61.3,79.8,61.4,79.8z"/>
<path class="st0" d="M64,68.2c0.1,0,0.1,0,0.3-0.1c0-0.1,0-0.1-0.1-0.1c-0.1,0-0.1,0-0.3,0.1L64,68.2z"/>
<path class="st0" d="M59.9,81.1c0,0.1,0,0.3,0.1,0.4c0.3,0,0.4-0.3,0.3-0.5C60.2,80.7,60,80.9,59.9,81.1z"/>
<path class="st0" d="M63,68c0-0.3,0.1-0.3,0.5-0.4c0.3,0,0.4-0.1,0.4-0.1c-0.1,0-0.5,0-0.9,0c-0.4,0-0.8,0.1-1.1,0.1
	c-0.7,0-1.4,0.1-1.4,0.3s-0.1,0.1-0.1,0c-0.1-0.1-1.2,0.1-1.2,0.3c0,0.1,0,0.1,0.1,0.1s0.3,0,0.3,0c0.1,0,0.1,0,0.1-0.1
	c0,0,0.1-0.1,0.3-0.3s0.3-0.1,0.4,0.1c0.1,0.1,0.3,0.1,0.3,0c0-0.1,1.6-0.5,2.1-0.4c0.1,0,0.1,0.1,0.1,0.1C63,68,63,68,63,68
	C63,68.3,63,68.2,63,68z"/>
<path class="st0" d="M60,79.9c0,0,0.1,0,0.4-0.1c0.1-0.1,0.3-0.1,0.1-0.3C60.3,79.6,60,79.8,60,79.9z"/>
<path class="st0" d="M63.9,66c-0.1,0-0.1,0-0.3,0.1c0,0.1,0,0.1,0.1,0.1c0.1,0,0.3-0.1,0.3-0.1C64.1,66,64,66,63.9,66z"/>
<path class="st0" d="M58.7,83.3c0,0.1,0.3,0,0.4,0c0.3-0.1,0.3-0.3,0.1-0.3C58.9,82.9,58.5,83.2,58.7,83.3z"/>
<path class="st0" d="M59.3,81.4C59.5,81.3,59.5,81.3,59.3,81.4c-0.4,0-0.5,0.4-0.3,0.4c0.3,0,0.7-0.1,0.3-0.1
	C59.3,81.5,59.3,81.4,59.3,81.4z"/>
<path class="st0" d="M59.5,79.8c-0.1,0-0.1,0-0.1,0.1c0,0.1,0.1,0.1,0.1,0.1s0.1,0,0.1-0.1C59.8,79.8,59.6,79.8,59.5,79.8z"/>
<path class="st0" d="M79.7,3.8c0.1,0,0.4,0,0.5-0.1c0.1-0.1,0.3-0.1,0.1-0.3c-0.1,0-0.4,0-0.5,0.1C79.4,3.8,79.4,3.8,79.7,3.8z"/>
<path class="st0" d="M58.5,81.4c-0.1,0-0.3,0.1-0.3,0.1s0,0.1,0.1,0.1c0.1,0,0.1,0,0.3-0.1C58.7,81.4,58.7,81.4,58.5,81.4z"/>
<path class="st0" d="M79.5,4.2C79.5,4.2,79.5,4.1,79.5,4.2c-0.3-0.1-0.3-0.3-0.3-0.4c0-0.1,0-0.3-0.3-0.1c-0.1,0-0.3,0.1-0.3,0.1
	C78.6,3.9,79.4,4.4,79.5,4.2z"/>
<path class="st0" d="M77.9,4.4C78.5,4,78.6,4,78.3,4c-0.1,0-0.4,0-0.8,0.1c-0.5,0.1-0.7,0.1-0.4,0.4C77.4,4.6,77.5,4.6,77.9,4.4z"/>
<path class="st0" d="M58.1,68.3c-0.5,0-0.7,0.4-0.1,0.4c0.3,0,0.4-0.1,0.5-0.1C58.5,68.4,58.4,68.3,58.1,68.3z"/>
<path class="st0" d="M74.6,4.6c0.3-0.1,0.3-0.1,0-0.1c-0.1,0-0.4,0-0.4,0.1C74.1,4.8,74.2,4.8,74.6,4.6z"/>
<path class="st0" d="M56.3,68.7c-0.1,0-0.7,0.1-1.2,0.3c-0.5,0.1-1.1,0.3-1.1,0.1c0-0.1-0.4-0.1-0.9,0c-1.1,0.3-1.1,0.3-0.9,0.3
	c0,0,0.4,0,0.8-0.1c0.4-0.1,0.8-0.1,0.8,0c0,0,0,0.1-0.1,0.1c-0.1,0-0.3,0.1-0.3,0.1c0,0.1,0.3,0,0.5-0.1c0.3-0.1,0.7-0.3,0.7-0.1
	c0.1,0,0.4-0.1,0.7-0.3c0.3-0.1,0.7-0.3,0.8-0.3s0.3,0,0.3-0.1C56.5,68.9,56.5,68.7,56.3,68.7z"/>
<path class="st0" d="M70.3,5.6c0.4,0,0.7-0.1,0.5-0.3C70.7,5.2,70.7,5,70.7,5c0-0.1,0.1-0.1,0.1,0c0,0,0.3,0.1,0.4,0
	c0.1,0,0.3,0,0.4,0c0,0.1,0,0.1-0.3,0.3c-0.3,0.1-0.3,0.1,0,0.1c0.1,0,0.4,0,0.4,0s0.4-0.1,0.8-0.4l0.8-0.4h-0.7
	c-0.3,0-1.2,0.1-1.9,0.1c-0.7,0.1-1.4,0.3-1.6,0.3c-0.3,0-0.4,0-0.1,0.3C69.6,5.6,69.7,5.7,70.3,5.6z"/>
<path class="st0" d="M51.9,69.4c-0.1,0-0.1,0-0.3,0.1c0,0.1,0,0.1,0.1,0.1c0.1,0,0.1,0,0.3-0.1L51.9,69.4z"/>
<path class="st0" d="M50.9,69.4c-0.1,0-0.3,0.1-0.3,0.3c0,0.1,0,0.1,0.1,0.1c0.1,0,0.3-0.1,0.3-0.3C51,69.4,51,69.4,50.9,69.4z"/>
<path class="st0" d="M49.7,70.5c-0.1,0.1-0.1,0.1,0,0.1c0.1,0,0.3,0,0.3-0.1c0.1-0.1,0.1-0.1,0-0.1C49.9,70.3,49.8,70.3,49.7,70.5z"
	/>
<path class="st0" d="M50.1,69.4c-0.1,0-0.3,0.1-0.4,0.3c-0.1,0.3,0,0.3,0.3,0.1c0.1-0.1,0.4-0.1,0.4-0.3
	C50.2,69.5,50.2,69.4,50.1,69.4z"/>
<path class="st0" d="M49,69.7c-0.1,0-0.3,0-0.3,0.1c0,0.1,0.1,0.1,0.3,0.1s0.3,0,0.4,0c0,0,0.1-0.1,0.1-0.3c0-0.1,0-0.3-0.1-0.1
	C49.3,69.5,49.1,69.7,49,69.7z"/>
<path class="st0" d="M47.9,69.7c0,0-0.3,0.1-0.4,0c-0.5-0.1-0.9,0.1-0.4,0.3c0.5,0.1,1.6-0.3,1.2-0.4C48.2,69.7,47.9,69.7,47.9,69.7
	z"/>
<path class="st0" d="M46,69.8c-0.1,0-0.5,0.1-0.9,0.1c-0.4,0-0.8,0.1-0.8,0.1c0,0.1-0.3,0.1-0.4,0c-0.7-0.1-1.1,0-1.1,0.3
	c-0.1,0.3,0,0.3,0.4,0.1c0.5-0.1,0.5-0.1,0.5,0.1c0,0.3,0.3,0.4,0.4,0.1c0-0.1,0.1-0.1,0.3-0.1s0.3,0,0.3-0.1s0-0.1-0.1-0.1
	c-0.1,0-0.1,0,0-0.1c0.1-0.1,0.3-0.1,0.4-0.1c0.1,0,0.3,0,0.3-0.1c0-0.1,0.1-0.1,0.3,0c0.1,0.1,0.3,0.1,0.1-0.1c0-0.1,0-0.1,0.1-0.1
	c0.1,0.1,0.3,0.1,0.5,0c0.3-0.1,0.3-0.3,0.1-0.3C46.3,69.7,46.1,69.7,46,69.8z"/>
<path class="st0" d="M45.6,69c0.1,0-0.1-0.1-0.4-0.3c-0.3,0-0.5,0-0.5,0c0,0.1,0.1,0.1,0.4,0.3C45.3,69.1,45.4,69.1,45.6,69z"/>
<path class="st0" d="M43.8,69c0-0.1-0.1-0.1-0.3,0c-0.1,0.1-0.3,0.1-0.3,0.3C43.4,69.4,43.7,69.1,43.8,69z"/>
<path class="st0" d="M39.3,70.9c-0.1,0-0.3,0-0.3,0.1c0,0.1-0.1,0.1-0.3,0.1c-0.1,0-0.3,0.1-0.3,0.1c0.1,0.1,0.9-0.1,0.9-0.3
	C39.6,71,39.6,70.9,39.3,70.9z"/>
<path class="st0" d="M37.5,71.6c-0.4,0.1-0.4,0.1,0,0.4c0.1,0.1,0.4,0.1,0.5,0.1c0.1,0,0.4-0.1,0.7-0.1c0.5-0.1,0.5-0.1-0.1-0.3
	C38.2,71.4,37.7,71.4,37.5,71.6z"/>
<path class="st0" d="M34.9,72c0,0.1,0.3,0.3,0.4,0c0.1-0.1,0-0.1-0.1-0.1C35.1,71.9,34.9,72,34.9,72z"/>
<path class="st0" d="M33.8,71.4c-0.1,0-0.1,0-0.3,0.1c0,0.1,0,0.1,0.1,0.1s0.1,0,0.3-0.1C34,71.4,34,71.4,33.8,71.4z"/>
<path class="st0" d="M32.3,70.5c0,0.1-0.1,0.3-0.3,0.3c-0.1,0-0.3,0-0.4,0c-0.3,0-0.5,0.3-0.3,0.4c0.1,0.1,0.3,0,0.4-0.1
	c0.3-0.1,0.3-0.1,0.4,0c0.1,0.3,0.1,0.3,0.1,0c0-0.1,0.1-0.1,0.4,0c0.5,0.3,0.7,0,0.3-0.4C32.6,70.2,32.5,70.2,32.3,70.5z"/>
<path class="st0" d="M31.9,71.9c-0.1,0.1-0.1,0.3,0,0.3c0.1,0,0.3,0,0.3-0.1c0-0.1,0-0.3,0-0.3C32.1,71.7,32.1,71.9,31.9,71.9z"/>
<path class="st0" d="M31.1,71.3c-0.3,0.1-0.3,0.4,0.1,0.5c0.3,0,0.4-0.4,0.3-0.5C31.4,71.3,31.3,71.3,31.1,71.3z"/>
<path class="st0" d="M31,69.9c0.1,0,0.3-0.1,0.3-0.3c0-0.3,0-0.3-0.1-0.1c-0.1,0.1-0.1,0,0-0.3l0.3-0.5l-0.7,0.5
	c-0.4,0.3-0.8,0.4-1.2,0.4c-0.4,0-0.5,0.1-0.5,0.3c-0.1,0.4,0.4,0.5,0.5,0.1c0-0.1,0.1-0.1,0.1-0.1c0,0.1,0.1,0.1,0.5,0.1
	C30.6,69.9,30.8,69.9,31,69.9z"/>
<path class="st0" d="M30.6,70.7c-0.1,0-0.3,0.1-0.3,0.3c0,0.1,0,0.1,0.1,0.1c0.1,0,0.3-0.1,0.3-0.3C30.8,70.9,30.7,70.7,30.6,70.7z"
	/>
<path class="st0" d="M30,71.7c0,0.1,0,0.3,0.1,0.3c0.1,0,0.3-0.1,0.3-0.3c0-0.1,0-0.3-0.1-0.3C30.1,71.4,30,71.6,30,71.7z"/>
<path class="st0" d="M29.5,71.4c0,0.1,0,0.4,0.1,0.4c0.3,0,0.3-0.1,0.1-0.4C29.6,71.2,29.6,71.2,29.5,71.4z"/>
<path class="st0" d="M28.4,70.2c0,0,0.1,0,0.1-0.1c0-0.1,0-0.3-0.1-0.1C28.4,69.9,28.4,70.1,28.4,70.2z"/>
<path class="st0" d="M27.3,69.7c0,0.1,0,0.1,0.1,0.3c0.1,0,0.1,0,0.1,0s0-0.1-0.1-0.3C27.4,69.5,27.3,69.5,27.3,69.7z"/>
<path class="st0" d="M27,67.9c-0.3,0-0.4,0-0.4,0.3c0,0.1,0,0.3,0,0.1c0.1-0.1,0.3-0.1,0.4,0c0.1,0.1,0.3,0,0.3-0.1
	C27.3,68.2,27.3,68,27,67.9z"/>
<path class="st0" d="M25.4,65.6c-0.4,0.1-0.4,0.1,0,0.3c0.3,0,0.5,0.1,0.5,0.3c0,0.1,0,0.1,0.1,0c0-0.1,0-0.3-0.1-0.4
	C25.8,65.4,25.7,65.4,25.4,65.6z"/>
<path class="st0" d="M26.2,64.1c-0.1,0-0.1,0-0.1,0.1c0,0.1,0.1,0.1,0.1,0.1s0.1,0,0.1-0.1C26.3,64.2,26.3,64.1,26.2,64.1z"/>
<path class="st0" d="M20.3,64.7c-0.3,0.3-0.4,0.4-0.1,0.4c0.1,0,0.3-0.1,0.3-0.3C20.6,64.6,20.6,64.5,20.3,64.7z"/>
<path class="st0" d="M31.7,20.6c0,0,0.1,0.1,0.3,0.3c0.3,0.1,0.3,0.1,0.4,0c0-0.1-0.1-0.3-0.3-0.3C31.9,20.6,31.8,20.6,31.7,20.6z"
	/>
<path class="st0" d="M33.3,15.7c0.1,0,0.1,0,0.3-0.1c0-0.1,0-0.1-0.1-0.1s-0.3,0.1-0.3,0.1C33,15.5,33.1,15.7,33.3,15.7z"/>
<path class="st0" d="M30.4,25.5c0.1,0.1,0.3,0.1,0.3,0c0-0.1-0.1-0.1-0.3-0.3c-0.1,0-0.3,0-0.3,0C30.3,25.2,30.3,25.4,30.4,25.5z"/>
<path class="st0" d="M19.1,64.7c-0.3,0.3-0.3,0.1-0.1,0c0.1-0.4-0.3-0.8-0.5-0.5c-0.1,0.1-0.3,0.1-0.4,0.1c-0.3,0-1.1,0.7-0.9,0.9
	c0,0,0.1,0,0.1-0.1c0-0.1,0.3-0.1,0.5,0c0.5,0.1,1.9,0,2.1-0.3c0-0.1,0-0.3-0.1-0.3C19.4,64.5,19.2,64.6,19.1,64.7z"/>
<path class="st0" d="M31.9,17.6C32.1,17.3,32.1,17.3,31.9,17.6c-0.3,0-0.3,0.1-0.3,0.1C31.7,17.7,31.8,17.7,31.9,17.6z"/>
<path class="st0" d="M15.5,64.9c-0.1,0-0.1,0-0.1,0.1s0.1,0.1,0.1,0.1s0.1,0,0.1-0.1S15.7,64.9,15.5,64.9z"/>
<path class="st0" d="M14.9,64.7c-0.1,0-0.1,0.1,0,0.3c0.3,0.3,0.4,0.1,0.3-0.1C15.1,64.7,15,64.7,14.9,64.7z"/>
<path class="st0" d="M12.8,61.6c-0.1,0-0.3-0.1-0.3-0.3c0-0.1-0.1,0-0.1,0.3c-0.1,0.4,0.1,0.9,0.7,0.9c0.3,0,0.4-0.4,0.1-0.8
	C13.1,61.8,12.8,61.6,12.8,61.6z"/>
<path class="st0" d="M11.3,61.8c-0.1,0-0.3,0.1-0.3,0.1c-0.1,0.1-0.1,0.3,0.1,0.1C11.5,61.9,11.6,61.9,11.3,61.8z"/>
<path class="st0" d="M21,22c0.1-0.1,0.1-0.3-0.1-0.4c-0.3,0-0.4,0.3-0.3,0.5C20.7,22.2,20.9,22.2,21,22z"/>
<path class="st0" d="M6.8,62.3c0,0.1,0,0.1,0.1,0.3c0.1,0.1,0.1,0,0.3-0.1c0-0.1,0-0.3-0.1-0.3C7,62.2,6.8,62.2,6.8,62.3z"/>
<path class="st0" d="M5.1,61.8c-0.1,0-0.1,0-0.1,0.1C4.9,62,5.1,62,5.1,62s0.1,0,0.1-0.1C5.2,61.9,5.2,61.8,5.1,61.8z"/>
<path class="st0" d="M1.2,62.2c-0.3,0-0.3,0-0.1,0.1c0.1,0,0.3,0.1,0.4,0C1.5,62.3,1.5,62.2,1.2,62.2z"/>
<path class="st0" d="M2.5,57.4c0-0.1,0-0.1-0.1-0.1c-0.1,0-0.3,0.1-0.3,0.1s0,0.1,0.1,0.1C2.3,57.5,2.5,57.5,2.5,57.4z"/>
<path class="st0" d="M1.9,56.2c-0.1,0-0.3,0.1-0.3,0.1c-0.1,0.1-0.1,0.3,0.1,0.1C2.1,56.3,2.2,56.2,1.9,56.2z"/>
<path class="st0" d="M3.8,48.8c0-0.1-0.3-0.1-0.4-0.1c-0.4,0-0.4,0,0,0.1C3.7,48.9,3.9,49.1,3.8,48.8z"/>
<path class="st0" d="M1.4,53.8c0,0.1,0,0.1,0.1,0c0.1-0.1,0.4-0.1,0.5,0c0.1,0.1,0.3,0.1,0.3,0c0,0-0.1-0.1-0.3-0.3
	C1.8,53.6,1.5,53.6,1.4,53.8z"/>
<path class="st0" d="M0.9,57.5c-0.1,0-0.3,0.1-0.3,0.1s0,0.1,0.1,0.1s0.1,0,0.3-0.1C1.1,57.5,1.1,57.4,0.9,57.5z"/>
<path class="st0" d="M0.5,53.8C0.4,54,0.5,54,0.7,54s0.3,0,0.4-0.1c0.1-0.1,0-0.1-0.1-0.1C0.8,53.7,0.7,53.7,0.5,53.8z"/>
<path class="st0" d="M2.3,47.1C2.5,47.1,2.5,47.1,2.3,47.1c0.1-0.3,0.1-0.3,0.3-0.3c0.1,0,0.1-0.1,0.1-0.1c-0.1-0.1-1.1,0-1.1,0.3
	c0,0.1,0,0.3,0.3,0.1C2.1,47.1,2.2,47.1,2.3,47.1z"/>
<path class="st0" d="M1.1,46.1c0,0.1,0,0.4,0,0.5c0.1,0.3,0.1,0.1,0.1-0.4C1.2,45.9,1.1,45.9,1.1,46.1z"/>
<path class="st0" d="M1.2,44.9c0,0,0.1,0,0.3-0.1c0.1-0.1,0.1-0.3-0.1-0.1C1.2,44.7,1.2,44.9,1.2,44.9z"/>
<path class="st0" d="M0.9,43.6c0.1-0.1,0-0.1-0.1-0.1c-0.1,0-0.3,0-0.4,0.1c-0.1,0.1,0,0.1,0.1,0.1C0.7,43.6,0.8,43.6,0.9,43.6z"/>
<path class="st0" d="M2.2,37.1c0.3-0.1,0.3-0.1,0.1-0.3c-0.1-0.1-0.3-0.1-0.4,0C1.5,36.9,1.8,37.1,2.2,37.1z"/>
<path class="st0" d="M0.4,42.3c0.1,0.1,0.1,0,0.3-0.1c0-0.1,0-0.3-0.1-0.3s-0.1,0-0.3,0.1C0.3,42,0.4,42.1,0.4,42.3z"/>
<path class="st0" d="M0.5,40.6c0-0.3-0.1-0.3-0.1-0.1c0,0.1,0,0.3,0,0.4C0.5,41,0.5,41,0.5,40.6z"/>
<path class="st0" d="M0.8,38.5C0.9,38.5,0.9,38.5,0.8,38.5c-0.1-0.1-0.1-0.3,0-0.4c0.1-0.1,0.1-0.1,0-0.1s-0.3,0.1-0.3,0.3
	c0,0.1-0.1,0.3-0.3,0.4L0,38.9l0.3-0.3C0.4,38.7,0.7,38.6,0.8,38.5z"/>
</svg>
