<svg width="92" height="19" viewBox="0 0 92 19" fill="none" xmlns="http://www.w3.org/2000/svg">
<path d="M0 8.70833L8.52531 0C3.9239 0.254464 0.254066 4.01488 0 8.70833Z" fill="white"/>
<path d="M18.1233 9.21725C18.1233 9.16071 18.1233 9.16071 18.1233 9.07588H10.8401L9.14636 7.35118H17.9257C17.8128 6.53124 17.5023 5.76785 17.1071 5.00446H9.34397L10.953 3.36457H16.0626C15.3286 2.40326 14.3124 1.58332 13.2679 1.01785C13.2679 1.01785 13.2679 1.01785 13.2114 0.9613C12.4774 0.565466 11.7152 0.339276 10.8401 0.197906L0.112915 11.0551C0.225833 11.5074 0.366981 11.9315 0.479899 12.3274C0.592817 12.7798 0.790423 13.1473 0.98803 13.5431C2.42774 16.3423 5.166 18.2366 8.41239 18.4345L2.31482 12.2143L3.55692 10.942L10.7837 18.3214C11.6588 18.1235 12.4774 17.869 13.2114 17.5015L5.166 9.30208L6.4081 8.02975L14.6793 16.4836C15.3004 15.9747 15.865 15.4092 16.2884 14.7589L13.155 11.4509H17.8975C18.0669 10.744 18.1233 9.98065 18.1233 9.21725Z" fill="white"/>
<path d="M22.9224 6.1637C22.9224 5.45685 22.9788 4.83483 23.2329 4.26935C23.487 3.70388 23.7975 3.19495 24.2209 2.79912C24.6444 2.43156 25.1525 2.09227 25.7171 1.83781C26.2817 1.63989 26.9027 1.52679 27.5238 1.52679C28.2013 1.52679 28.7659 1.66816 29.3869 1.83781C29.9515 2.09227 30.4596 2.34674 30.8266 2.71429L29.0764 4.8631C28.9635 4.66519 28.7094 4.46727 28.5118 4.41072C28.2577 4.29763 27.9472 4.21281 27.6932 4.21281C27.4391 4.21281 27.185 4.26935 27.0156 4.35418C26.7616 4.41072 26.6487 4.55209 26.4511 4.72174C26.3381 4.91965 26.197 5.11757 26.0841 5.28721C26.0276 5.54168 25.9712 5.79614 25.9712 6.10715C25.9712 6.36162 26.0276 6.61608 26.0841 6.87054C26.197 7.06846 26.3381 7.26638 26.4511 7.43602C26.6487 7.54912 26.818 7.69049 27.0156 7.80358C27.2132 7.86013 27.4391 7.94495 27.6932 7.94495C28.0037 7.94495 28.2577 7.8884 28.5118 7.74703C28.7659 7.54912 28.9353 7.43602 29.0764 7.2381L30.8266 9.38691C30.4596 9.75447 30.008 10.0938 29.4434 10.2634C28.8788 10.5179 28.2013 10.631 27.5238 10.631C26.9027 10.631 26.2817 10.5179 25.7171 10.3199C25.1525 10.0655 24.6444 9.75447 24.2209 9.35864C23.7975 8.96281 23.487 8.48215 23.2329 7.8884C22.9788 7.43602 22.9224 6.814 22.9224 6.1637Z" fill="white"/>
<path d="M32.3793 6.10714C32.3793 5.40029 32.4922 4.77827 32.7462 4.21279C33.0003 3.64732 33.3108 3.19493 33.7343 2.82738C34.1577 2.45982 34.6658 2.12053 35.2304 1.86607C35.795 1.66815 36.4161 1.55505 37.0936 1.55505C37.7711 1.55505 38.3921 1.69642 38.9567 1.86607C39.5778 2.12053 40.0859 2.43154 40.5094 2.82738C40.8763 3.22321 41.2433 3.64732 41.4974 4.21279C41.695 4.77827 41.8079 5.42857 41.8079 6.10714C41.8079 6.81398 41.695 7.43601 41.4974 8.00148C41.2433 8.56696 40.8763 9.07589 40.5094 9.47172C40.0859 9.83928 39.5778 10.1786 38.9567 10.433C38.3921 10.6309 37.7711 10.744 37.0936 10.744C36.4161 10.744 35.795 10.6309 35.2304 10.433C34.6658 10.1786 34.1577 9.86755 33.7343 9.47172C33.3108 9.07589 33.0003 8.59523 32.7462 8.00148C32.5204 7.43601 32.3793 6.81398 32.3793 6.10714ZM35.428 6.10714C35.428 6.3616 35.4845 6.61607 35.541 6.87053C35.6539 7.12499 35.7386 7.32291 35.9079 7.49255C36.0209 7.69047 36.2185 7.80357 36.4161 7.86011C36.6701 8.00148 36.8395 8.00148 37.0936 8.00148C37.3477 8.00148 37.6017 8.00148 37.7711 7.86011C37.9687 7.80357 38.1381 7.6622 38.3357 7.49255C38.4486 7.29464 38.5897 7.09672 38.6462 6.87053C38.7591 6.61607 38.7591 6.3616 38.7591 6.10714C38.7591 5.79613 38.7591 5.54166 38.6462 5.34374C38.5897 5.08928 38.4486 4.89136 38.3357 4.77827C38.1381 4.58035 37.9687 4.46726 37.7711 4.41071C37.5735 4.26934 37.3477 4.21279 37.0936 4.21279C36.8395 4.21279 36.6701 4.26934 36.4161 4.41071C36.2185 4.46726 36.0491 4.60863 35.9079 4.77827C35.7103 4.91964 35.6539 5.08928 35.541 5.34374C35.5127 5.54166 35.428 5.79613 35.428 6.10714Z" fill="white"/>
<path d="M44.038 1.78125H47.7079C48.1313 1.78125 48.583 1.8378 48.95 1.92262C49.3734 2.03571 49.7686 2.17708 50.0792 2.375C50.3897 2.62946 50.7002 2.88393 50.8978 3.25149C51.0954 3.64732 51.2083 4.07143 51.2083 4.6369C51.2083 5.14583 51.0954 5.59821 50.7849 6.02232C50.5308 6.38988 50.1639 6.72917 49.7404 6.98363L51.8576 10.4896H48.6112L46.9175 7.37946H46.861V10.4896H44.038V1.78125ZM46.8328 5.45684H47.3974C47.4538 5.45684 47.595 5.45684 47.7079 5.45684C47.8208 5.4003 47.9055 5.4003 48.0184 5.34375C48.1313 5.2872 48.216 5.20238 48.2725 5.08929C48.3289 5.03274 48.3854 4.89137 48.3854 4.77827C48.3854 4.58036 48.3289 4.46726 48.2725 4.41071C48.216 4.26935 48.1596 4.2128 48.0749 4.2128C47.962 4.15625 47.8773 4.0997 47.7643 4.0997C47.7079 4.0997 47.5667 4.0997 47.5103 4.0997H46.8328V5.45684Z" fill="white"/>
<path d="M58.4351 10.4896H55.5557V4.26935H53.4949V1.78125H60.5523V4.26935H58.4351V10.4896Z" fill="white"/>
<path d="M63.093 1.78125H69.0212V4.18452H65.8312V4.94792H68.7671V7.23809H65.8312V8.05804H69.1905V10.4896H63.093V1.78125Z" fill="white"/>
<path d="M71.0537 1.78125H74.3001L75.7398 7.18155H75.7963L77.0948 1.78125H80.3412L77.2924 10.4896H74.1307L71.0537 1.78125Z" fill="white"/>
<path d="M83.8417 1.78125H86.8905L90.1933 10.4896H87.0881L86.6364 9.21726H83.8981L83.4465 10.4896H80.4541L83.8417 1.78125ZM85.2531 4.83482L84.5756 6.98363H85.9589L85.2531 4.83482Z" fill="white"/>
<path d="M89.8828 2.03571V3.11012H89.5723V2.03571H89.177V1.78125H90.1933V2.03571H89.8828Z" fill="white"/>
<path d="M91.633 3.11012L91.6895 2.14881H91.633L91.2943 3.11012H91.1249L90.8144 2.14881H90.7297L90.8144 3.11012H90.5038V1.78125H90.9273L91.2378 2.60119L91.4919 1.78125H91.9153V3.11012H91.633Z" fill="white"/>
<path d="M26.3946 13.5432V16.5967H25.7736V16.1443C25.5195 16.4554 25.1525 16.6533 24.7008 16.6533C23.8822 16.6533 23.2047 15.9464 23.2047 15.0699C23.2047 14.1934 23.8822 13.4866 24.7008 13.4866C25.1243 13.4866 25.5195 13.6845 25.7736 13.9955V13.5432H26.3946ZM25.7736 15.0699C25.7736 14.5045 25.3501 14.1086 24.842 14.1086C24.2774 14.1086 23.8539 14.4762 23.8539 15.0699C23.8539 15.6354 24.2774 16.0878 24.842 16.0878C25.3501 16.0878 25.7736 15.6354 25.7736 15.0699Z" fill="white"/>
<path d="M30.4032 13.5432V16.4554C30.4032 17.4167 29.6692 17.9256 28.8506 17.9256C28.2295 17.9256 27.7214 17.6711 27.4673 17.1622L28.0319 16.8512C28.1448 17.1057 28.3424 17.3036 28.907 17.3036C29.4152 17.3036 29.7821 16.9926 29.7821 16.4836V16.1161C29.5281 16.4271 29.2176 16.625 28.7094 16.625C27.8908 16.625 27.2133 15.9182 27.2133 15.0982C27.2133 14.2217 27.8908 13.5149 28.7094 13.5149C29.2176 13.5149 29.5281 13.7128 29.7821 14.0238V13.5714H30.4032V13.5432ZM29.7821 15.07C29.7821 14.5045 29.3587 14.1086 28.8506 14.1086C28.286 14.1086 27.8625 14.4762 27.8625 15.07C27.8625 15.5789 28.286 16.0313 28.8506 16.0313C29.3305 16.0313 29.7821 15.5789 29.7821 15.07Z" fill="white"/>
<path d="M32.9438 13.5432V14.25C32.5204 14.1934 32.0123 14.3631 32.0123 15.0699V16.5967H31.3912V13.5432H32.0123V14.0521C32.2099 13.6562 32.5769 13.5432 32.9438 13.5432Z" fill="white"/>
<path d="M33.5649 12.7232C33.5649 12.4688 33.7625 12.2708 33.9319 12.2708C34.1859 12.2708 34.3553 12.4688 34.3553 12.7232C34.3553 12.9211 34.1577 13.0908 33.9319 13.0908C33.7625 13.0908 33.5649 12.8929 33.5649 12.7232ZM33.6214 13.5432H34.2989V16.5967H33.6214V13.5432Z" fill="white"/>
<path d="M37.4323 15.7768C37.4323 16.3423 36.9242 16.6533 36.2467 16.6533C35.6821 16.6533 35.2587 16.3988 35.0611 15.9464L35.6256 15.6354C35.6821 15.8899 35.9362 16.0878 36.2467 16.0878C36.5572 16.0878 36.8113 15.9747 36.8113 15.7768C36.8113 15.2113 35.2022 15.5223 35.2022 14.4479C35.2022 13.8824 35.7103 13.4866 36.2749 13.4866C36.7831 13.4866 37.2065 13.7411 37.4041 14.1086L36.8395 14.4196C36.7831 14.1652 36.529 14.1086 36.2749 14.1086C36.0773 14.1086 35.8515 14.1652 35.8515 14.4196C35.8233 14.9286 37.4323 14.6176 37.4323 15.7768Z" fill="white"/>
<path d="M37.9969 15.0699C37.9969 14.1934 38.6744 13.4866 39.5496 13.4866C40.1706 13.4866 40.6787 13.7976 40.9328 14.3065L40.3682 14.6176C40.2553 14.3065 39.9448 14.1086 39.5496 14.1086C39.0414 14.1086 38.618 14.561 38.618 15.0699C38.618 15.6354 39.0414 16.0312 39.5496 16.0312C39.9165 16.0312 40.2271 15.8333 40.3682 15.5789L40.9328 15.8899C40.6787 16.3988 40.1988 16.6533 39.5496 16.6533C38.6744 16.6533 37.9969 15.9464 37.9969 15.0699Z" fill="white"/>
<path d="M41.5538 12.7232C41.5538 12.4688 41.7515 12.2708 41.9208 12.2708C42.1749 12.2708 42.3443 12.4688 42.3443 12.7232C42.3443 12.9211 42.1467 13.0908 41.9208 13.0908C41.7232 13.0908 41.5538 12.8929 41.5538 12.7232ZM41.6103 13.5432H42.2314V16.5967H41.6103V13.5432Z" fill="white"/>
<path d="M44.7156 16.0878C45.0261 16.0878 45.3366 15.8899 45.4495 15.7202L45.9577 16.0312C45.7036 16.4836 45.2801 16.6533 44.6591 16.6533C43.7275 16.6533 43.05 16.0312 43.05 15.0699C43.05 14.1934 43.7275 13.4866 44.6591 13.4866C45.5342 13.4866 46.1553 14.25 46.1553 15.0699C46.1553 15.183 46.0988 15.2679 46.0988 15.3809H43.7275C43.8404 15.8333 44.2074 16.0878 44.7156 16.0878ZM45.4778 14.8155C45.4213 14.3065 45.0543 14.1086 44.6591 14.1086C44.151 14.1086 43.8404 14.3631 43.7275 14.8155H45.4778Z" fill="white"/>
<path d="M49.6275 14.7589V16.5967H49.0065V14.8155C49.0065 14.3631 48.7524 14.1086 48.3289 14.1086C47.9055 14.1086 47.595 14.3631 47.595 14.9851V16.5684H46.9739V13.5432H47.595V13.9955C47.7926 13.6845 48.1031 13.4866 48.5265 13.4866C49.1476 13.4866 49.6275 13.9107 49.6275 14.7589Z" fill="white"/>
<path d="M50.3897 15.0699C50.3897 14.1934 51.0672 13.4866 51.9988 13.4866C52.5634 13.4866 53.0715 13.7976 53.2973 14.3065L52.7327 14.6176C52.6198 14.3065 52.3093 14.1086 51.9141 14.1086C51.406 14.1086 51.039 14.561 51.039 15.0699C51.039 15.6354 51.406 16.0312 51.9141 16.0312C52.2811 16.0312 52.5916 15.8333 52.7327 15.5789L53.2973 15.8899C53.0433 16.3988 52.5634 16.6533 51.9988 16.6533C51.0672 16.6533 50.3897 15.9464 50.3897 15.0699Z" fill="white"/>
<path d="M55.4428 16.0878C55.8098 16.0878 56.0638 15.8899 56.1768 15.7202L56.7413 16.0312C56.4308 16.4836 56.0074 16.6533 55.4428 16.6533C54.4547 16.6533 53.8337 16.0312 53.8337 15.0699C53.8337 14.1934 54.4547 13.4866 55.3863 13.4866C56.2614 13.4866 56.8825 14.25 56.8825 15.0699C56.8825 15.183 56.8825 15.2679 56.8825 15.3809H54.5112C54.5677 15.8333 54.9346 16.0878 55.4428 16.0878ZM56.2332 14.8155C56.1203 14.3065 55.7251 14.1086 55.3581 14.1086C54.85 14.1086 54.5394 14.3631 54.483 14.8155H56.2332Z" fill="white"/>
</svg>
